SplineFontDB: 3.0
FontName: Verana-Italic
FullName: Verana Italic
FamilyName: Verana
Weight: Normal
Copyright: Copyright (c) Arkandis Digital fondry, from initial release of Bitstream VeraSerif Font modified  and under Public Domain.
Version: 1.002
ItalicAngle: -12
UnderlinePosition: -100
UnderlineWidth: 50
Ascent: 760
Descent: 240
sfntRevision: 0x00010041
LayerCount: 2
Layer: 0 0 "Arri+AOgA-re"  1
Layer: 1 0 "Avant"  0
XUID: [1021 905 1196402830 12296545]
BaseHoriz: 2 'ideo' 'romn'
BaseScript: 'latn' 1  -135 0
FSType: 8
OS2Version: 2
OS2_WeightWidthSlopeOnly: 0
OS2_UseTypoMetrics: 1
CreationTime: 1214138583
ModificationTime: 1312110173
PfmFamily: 17
TTFWeight: 400
TTFWidth: 5
LineGap: 200
VLineGap: 0
Panose: 2 0 5 6 6 0 0 9 0 3
OS2TypoAscent: 0
OS2TypoAOffset: 1
OS2TypoDescent: 0
OS2TypoDOffset: 1
OS2TypoLinegap: 200
OS2WinAscent: 0
OS2WinAOffset: 1
OS2WinDescent: 0
OS2WinDOffset: 1
HheadAscent: -168
HheadAOffset: 1
HheadDescent: -4
HheadDOffset: 1
OS2SubXSize: 650
OS2SubYSize: 600
OS2SubXOff: -16
OS2SubYOff: 75
OS2SupXSize: 650
OS2SupYSize: 600
OS2SupXOff: 74
OS2SupYOff: 350
OS2StrikeYSize: 65
OS2StrikeYPos: 311
OS2Vendor: 'ADFP'
OS2CodePages: 00000003.00000000
OS2UnicodeRanges: 800000af.5000204a.00000000.00000000
Lookup: 1 0 0 "'aalt' Activer toutes les variantes dans Latin lookup 0"  {"sous-table 'aalt' Activer toutes les variantes dans Latin lookup 0"  } ['aalt' ('latn' <'dflt' > ) ]
Lookup: 3 0 0 "'aalt' Activer toutes les variantes dans Latin lookup 1"  {"sous-table 'aalt' Activer toutes les variantes dans Latin lookup 1"  } ['aalt' ('latn' <'dflt' > ) ]
Lookup: 1 0 0 "'numr' Num+AOkA-rateurs dans Latin lookup 2"  {"sous-table 'numr' Num+AOkA-rateurs dans Latin lookup 2"  } ['numr' ('latn' <'dflt' > ) ]
Lookup: 1 0 0 "'dnom' D+AOkA-nominateurs dans Latin lookup 3"  {"sous-table 'dnom' D+AOkA-nominateurs dans Latin lookup 3"  } ['dnom' ('latn' <'dflt' > ) ]

StartChar: .notdef
Encoding: 65536 -1 0
Width: 659
Flags: W
HStem: -177 56<108 496> 649 56<271 659>
LayerCount: 2
Fore
SplineSet
40 -177 m 1
 227 705 l 1
 727 705 l 1
 540 -177 l 1
 40 -177 l 1
108 -121 m 1
 496 -121 l 1
 659 649 l 1
 271 649 l 1
 108 -121 l 1
EndSplineSet
Validated: 1
EndChar

StartChar: exclam
Encoding: 33 33 2
Width: 251
Flags: W
HStem: -14 130<93.0197 171.48> 709 20G<210.406 339>
VStem: 65.413 133.176<13.3281 88.6719>
LayerCount: 2
Fore
SplineSet
67 51 m 0
 75 87 109 116 146 116 c 0
 177.166423712 116 198.58940794 94.264634998 198.58940794 65.0689041263 c 0
 198.58940794 60.54096105 198.074128064 55.8335762882 197 51 c 0
 190 15 155 -14 119 -14 c 0
 86.956230023 -14 65.4130040348 7.00108797775 65.4130040348 36.6614428752 c 0
 65.4130040348 41.2490285913 65.9283826977 46.043769977 67 51 c 0
213 729 m 1
 339 729 l 1
 221 328 l 1
 195 205 l 1
 135 205 l 1
 161 328 l 1
 213 729 l 1
EndSplineSet
Validated: 1
Position2: "sous-table 'cpsp' Chasses pour composition en capitales dans Latin lookup 1" dx=5 dy=0 dh=10 dv=0
EndChar

StartChar: quotedbl
Encoding: 34 34 3
Width: 418
Flags: W
HStem: 458 271<227 248 413 434>
VStem: 170 321
LayerCount: 2
Fore
SplineSet
305 729 m 1
 248 458 l 1
 170 458 l 1
 227 729 l 1
 305 729 l 1
491 729 m 1
 434 458 l 1
 356 458 l 1
 413 729 l 1
 491 729 l 1
EndSplineSet
Validated: 1
EndChar

StartChar: numbersign
Encoding: 35 35 4
Width: 712
Flags: W
HStem: 0 21G<112 204.208 333 426.109> 202 75<69 204 322 426 544 681> 440 75<176 314 433 536 654 788>
LayerCount: 2
Fore
SplineSet
536 440 m 1
 398 440 l 1
 322 277 l 1
 461 277 l 1
 536 440 l 1
526 718 m 1
 433 515 l 1
 571 515 l 1
 664 718 l 1
 748 718 l 1
 654 515 l 1
 804 515 l 1
 788 440 l 1
 619 440 l 1
 544 277 l 1
 697 277 l 1
 681 202 l 1
 509 202 l 1
 417 0 l 1
 333 0 l 1
 426 202 l 1
 288 202 l 1
 195 0 l 1
 112 0 l 1
 204 202 l 1
 53 202 l 1
 69 277 l 1
 239 277 l 1
 314 440 l 1
 160 440 l 1
 176 515 l 1
 349 515 l 1
 443 718 l 1
 526 718 l 1
EndSplineSet
Validated: 1
EndChar

StartChar: dollar
Encoding: 36 36 5
Width: 542
Flags: W
HStem: -15 48<165.767 239 299 372.487> 580 49<296.845 366 425 480.288> 740 20G<399.725 453>
VStem: 77 53<137.414 170> 131.225 105.338<409.225 501.303> 436.574 111.592<122.397 216.285> 519 53<453 472.341>
LayerCount: 2
Fore
SplineSet
299 33 m 1xfc
 373 40 421 77 434 138 c 0
 435.717211125 146.013651917 436.574351486 153.699657828 436.574351486 161.046296123 c 0
 436.574351486 205.03851666 405.839834177 236.862018542 345 254 c 1
 299 33 l 1xfc
366 580 m 1
 298 575 251 539 239 482 c 0
 237.380966038 474.346384906 236.563477744 467.082710949 236.563477744 460.193035503 c 0
 236.563477744 420.27305057 264.008573584 392.909116981 322 375 c 1
 366 580 l 1
48 35 m 1
 77 170 l 1
 130 170 l 1
 127.681886901 157.105495884 126.518268562 145.134587578 126.518268562 134.081192695 c 0
 126.518268562 68.8422279968 167.053560665 35.5653537939 250 33 c 1
 300 270 l 1
 229 291 182 315 157 342 c 0
 139.691694306 361.471843905 131.225084067 385.624585404 131.225084067 414.458224496 c 0
 131.225084067 425.605814674 132.490614635 437.453073176 135 450 c 0
 157 554 246 621 376 629 c 1
 404 760 l 1
 453 760 l 1
 425 629 l 1
 489 624 548 608 599 581 c 1
 572 453 l 1
 519 453 l 1xfa
 519.716096612 459.802917812 520.071634691 466.349438446 520.071634691 472.635975862 c 0
 520.071634691 536.580603492 483.286594264 573.626584535 415 580 c 1
 368 359 l 1
 443 337 494 312 520 284 c 0
 538.777777778 263.777777778 548.166666667 238.339506173 548.166666667 208.061899863 c 0
 548.166666667 196.416666667 546.777777778 184.055555556 544 171 c 0
 521 63 427 -6 288 -15 c 1
 260 -147 l 1
 211 -147 l 1
 239 -15 l 1
 177 -14 114 3 48 35 c 1
EndSplineSet
Validated: 1
EndChar

StartChar: percent
Encoding: 37 37 6
Width: 851
Flags: W
HStem: -14 45<606.033 708.447> 345 44<179.32 281.333 671.95 759.213> 697 45<235.684 337.501>
VStem: 83.1265 77.6189<407.076 592.788> 356.407 77.3843<494.059 679.888> 510.132 77.1943<49.9606 233.673> 783.407 77.108<134.944 320.936>
LayerCount: 2
Fore
SplineSet
292 697 m 0
 235 697 189 640 168 543 c 0
 163.124921973 519.599625468 160.745314451 498.457057585 160.745314451 479.861953812 c 0
 160.745314451 422.170673378 183.650218477 389 226 389 c 0
 282 389 329 447 349 543 c 0
 353.968358232 566.848119516 356.406546653 588.351203596 356.406546653 607.202647607 c 0
 356.406546653 664.237213137 334.088596949 697 292 697 c 0
719 339 m 0
 663 339 615 281 595 184 c 1
 589.829505321 160.363452894 587.326350029 139.091138428 587.326350029 120.451721486 c 0
 587.326350029 63.3870172463 610.787985812 31 653 31 c 0
 709 31 755 88 776 184 c 0
 780.968358232 207.848119516 783.406546653 229.412915055 783.406546653 248.35712152 c 0
 783.406546653 305.672337501 761.088596949 339 719 339 c 0
728 383 m 0
 812.974078381 383 860.514593767 329.91240157 860.514593767 243.389612135 c 0
 860.514593767 225.03515569 858.375223694 205.176082678 854 184 c 0
 828 63 747 -14 644 -14 c 0
 558.4637299 -14 510.132058787 38.0864385822 510.132058787 123.899646739 c 0
 510.132058787 142.423156069 512.384067525 162.518160405 517 184 c 0
 543 307 624 383 728 383 c 0
743 742 m 1
 817 742 l 1
 201 -14 l 1
 127 -14 l 1
 743 742 l 1
300 742 m 0
 384.900308296 742 433.790879154 689.683966363 433.790879154 603.533094864 c 0
 433.790879154 585.166798611 431.568854216 565.262744623 427 544 c 0
 401 421 320 345 216 345 c 0
 131.308969968 345 83.1264525825 396.382351132 83.1264525825 483.025808756 c 0
 83.1264525825 501.756865196 85.3783182605 522.135890232 90 544 c 0
 116 665 197 742 300 742 c 0
EndSplineSet
Validated: 1
Ligature2: "sous-table Remplacement de ligature lookups12" zero fraction zero
Ligature2: "sous-table Remplacement de ligature lookups12" zero slash zero
EndChar

StartChar: ampersand
Encoding: 38 38 7
Width: 816
Flags: W
HStem: -14 59<244.451 431> 0 52<697 801> 362 52<639 716 767.889 859> 690 52<406.92 556.196>
VStem: 70.5799 103.448<115.372 271.222> 249.246 98.3535<500.316 623.037> 584 55<583 597.8> 716 59<309.332 362>
LayerCount: 2
Fore
SplineSet
522 113 m 1xbf
 301 412 l 1
 233 361 193 303 179 236 c 0
 175.664041954 220.988188793 174.028289143 206.671916092 174.028289143 193.029697754 c 0
 174.028289143 157.598571105 185.061898611 126.714129358 206 100 c 0
 235 63 278 45 334 45 c 0
 401 45 465 69 522 113 c 1xbf
639 583 m 1
 584 583 l 1
 584.450846929 588.184739683 584.675846132 593.194447379 584.675846132 598.026153256 c 0
 584.675846132 657.496172427 550.589836852 690 484 690 c 0
 417 690 363 650 350 591 c 0
 348.4 583 347.6 575 347.6 567 c 0
 347.6 555 349.4 543 353 531 c 1
 360 512 378 484 406 447 c 2
 601 181 l 1
 657 233 695 294 716 362 c 1
 628 362 l 1
 639 414 l 1
 870 414 l 1
 859 362 l 1
 775 362 l 1
 746 277 700 204 631 141 c 1
 697 52 l 1
 814 52 l 1
 801 0 l 1
 605 0 l 1x7f
 553 71 l 1
 472 14 391 -14 300 -14 c 0
 216 -14 153 7 113 50 c 0
 84.3525755226 80.7959813132 70.5798841367 119.798711918 70.5798841367 166.273497345 c 0
 70.5798841367 184.690807839 72.742784179 204.281549671 77 225 c 0
 96 312 161 387 276 452 c 1
 257.911816966 480.941092855 249.246486057 508.835202141 249.246486057 538.333652118 c 0
 249.246486057 549.605535349 250.511745892 561.111674819 253 573 c 0
 275 677 369 742 497 742 c 0
 541 742 596 732 666 709 c 1
 639 583 l 1
EndSplineSet
Validated: 1
Position2: "sous-table 'cpsp' Chasses pour composition en capitales dans Latin lookup 1" dx=5 dy=0 dh=10 dv=0
EndChar

StartChar: quotesingle
Encoding: 39 39 8
Width: 232
Flags: W
HStem: 458 271<227 248>
VStem: 170 135
LayerCount: 2
Fore
SplineSet
305 729 m 1
 248 458 l 1
 170 458 l 1
 227 729 l 1
 305 729 l 1
EndSplineSet
Validated: 1
EndChar

StartChar: parenleft
Encoding: 40 40 9
Width: 310
Flags: W
HStem: 740 20G<359 441.833>
VStem: 89.834 91.5737<1.76295 278.159>
LayerCount: 2
Fore
SplineSet
251 -156 m 1
 143.830818395 -103.159639625 89.834014039 -3.79344915647 89.834014039 139.213076536 c 0
 89.834014039 188.360110209 96.2115213908 242.661459253 109 302 c 0
 158 534 272 689 446 760 c 1
 436 712 l 1
 378 677 332 629 297 566 c 0
 261 503 232 415 208 302 c 0
 190.403187264 219.148340033 181.407702818 149.736255521 181.407702818 93.7637464633 c 0
 181.407702818 73.3962820548 182.598804776 54.8083665671 185 38 c 0
 193 -25 219 -73 262 -108 c 1
 251 -156 l 1
EndSplineSet
Validated: 1
EndChar

StartChar: parenright
Encoding: 41 41 10
Width: 312
Flags: W
HStem: 740 20G<176.833 234.791>
VStem: 251.163 91.4175<324.432 601.825>
LayerCount: 2
Fore
SplineSet
-14 -156 m 1
 -3 -108 l 1
 54 -73 100 -25 136 38 c 0
 171 101 201 189 225 302 c 0
 242.709903645 385.384129661 251.163050899 455.155382278 251.163050899 511.31375785 c 0
 251.163050899 531.259749684 250.096698785 549.488497068 248 566 c 0
 239 629 213 677 171 712 c 1
 181 760 l 1
 288.58138906 706.95639845 342.580577786 607.028371607 342.580577786 463.134838222 c 0
 342.580577786 414.423786478 336.392444 360.674428737 324 302 c 0
 274 70 160 -85 -14 -156 c 1
EndSplineSet
Validated: 1
EndChar

StartChar: asterisk
Encoding: 42 42 11
Width: 533
Flags: W
HStem: 722 20G<383.452 453>
VStem: 291 66<287 315.933> 387 66<713.067 742>
LayerCount: 2
Fore
SplineSet
625 604 m 1
 415 515 l 1
 587 425 l 1
 538 367 l 1
 390 473 l 1
 357 287 l 1
 291 287 l 1
 336 473 l 1
 144 367 l 1
 119 425 l 1
 329 514 l 1
 157 604 l 1
 206 662 l 1
 354 556 l 1
 387 742 l 1
 453 742 l 1
 408 556 l 1
 600 662 l 1
 625 604 l 1
EndSplineSet
Validated: 1
EndChar

StartChar: plus
Encoding: 43 43 12
Width: 657
Flags: W
HStem: 0 21G<287 369.234> 274 79<88 345 440 697>
LayerCount: 2
Fore
SplineSet
498 627 m 1
 440 353 l 1
 714 353 l 1
 697 274 l 1
 423 274 l 1
 365 0 l 1
 287 0 l 1
 345 274 l 1
 71 274 l 1
 88 353 l 1
 362 353 l 1
 420 627 l 1
 498 627 l 1
EndSplineSet
Validated: 1
EndChar

StartChar: comma
Encoding: 44 44 13
Width: 279
Flags: W
HStem: -136 247
VStem: 145 100<47.0468 111>
LayerCount: 2
Fore
SplineSet
16 -97 m 1
 86 -52 127 6 145 93 c 1
 149 111 l 1
 245 111 l 1
 216 -1 154 -77 47 -136 c 1
 16 -97 l 1
EndSplineSet
Validated: 1
EndChar

StartChar: hyphen
Encoding: 45 45 14
Width: 406
Flags: W
HStem: 230 76<140 373>
VStem: 123 267
LayerCount: 2
Fore
SplineSet
140 306 m 1
 390 306 l 1
 373 230 l 1
 123 230 l 1
 140 306 l 1
EndSplineSet
Validated: 1
AlternateSubs2: "sous-table 'aalt' Activer toutes les variantes dans Latin lookup 1" endash emdash minus
EndChar

StartChar: period
Encoding: 46 46 15
Width: 262
Flags: W
HStem: -14 130<96.0197 174.48>
VStem: 68.413 133.176<13.3281 88.6719>
LayerCount: 2
Fore
SplineSet
70 51 m 0
 78 87 112 116 149 116 c 0
 180.166423712 116 201.58940794 94.264634998 201.58940794 65.0689041263 c 0
 201.58940794 60.54096105 201.074128064 55.8335762882 200 51 c 0
 193 15 158 -14 122 -14 c 0
 89.956230023 -14 68.4130040348 7.00108797775 68.4130040348 36.6614428752 c 0
 68.4130040348 41.2490285913 68.9283826977 46.043769977 70 51 c 0
EndSplineSet
Validated: 1
Substitution2: "sous-table 'aalt' Activer toutes les variantes dans Latin lookup 0" ellipsis
EndChar

StartChar: slash
Encoding: 47 47 16
Width: 366
Flags: W
HStem: 709 20G<414.465 503>
LayerCount: 2
Fore
SplineSet
425 729 m 1
 503 729 l 1
 70 -93 l 1
 -8 -93 l 1
 425 729 l 1
EndSplineSet
Validated: 1
Substitution2: "sous-table 'dnom' D+AOkA-nominateurs dans Latin lookup 3" fraction
Substitution2: "sous-table 'numr' Num+AOkA-rateurs dans Latin lookup 2" fraction
Substitution2: "sous-table 'aalt' Activer toutes les variantes dans Latin lookup 0" fraction
EndChar

StartChar: zero
Encoding: 48 48 17
Width: 610
Flags: W
HStem: -14 48<248.749 378.165> 694 48<379.835 509.251>
VStem: 109.812 97.5257<93.1591 359.814> 550.662 97.5257<368.186 634.841>
LayerCount: 2
Fore
SplineSet
309 34 m 0
 409 34 481 143 528 364 c 0
 543.096922607 434.987657364 550.661954643 494.419537414 550.661954643 542.395064548 c 0
 550.661954643 643.777776442 516.878888071 694 449 694 c 0
 349 694 277 585 230 364 c 0
 214.903077393 293.012342636 207.338045357 233.580462586 207.338045357 185.604935452 c 0
 207.338045357 84.2222235582 241.121111929 34 309 34 c 0
299 -14 m 0
 175.963877771 -14 109.812344777 69.231135828 109.812344777 217.622867154 c 0
 109.812344777 260.998275862 115.464416564 309.941089388 127 364 c 0
 178 603 300 742 459 742 c 0
 582.036122229 742 648.187655223 658.768864172 648.187655223 510.377132846 c 0
 648.187655223 467.001724138 642.535583436 418.058910612 631 364 c 0
 580 125 458 -14 299 -14 c 0
EndSplineSet
Validated: 1
Position2: "sous-table 'cpsp' Chasses pour composition en capitales dans Latin lookup 1" dx=5 dy=0 dh=10 dv=0
EndChar

StartChar: one
Encoding: 49 49 18
Width: 404
Flags: W
HStem: 0 52<51 178 276 392> 722 20G<319.87 422>
LayerCount: 2
Fore
SplineSet
40 0 m 1
 51 52 l 1
 178 52 l 1
 306 658 l 1
 139 563 l 1
 153 627 l 1
 355 742 l 1
 422 742 l 1
 276 52 l 1
 403 52 l 1
 392 0 l 1
 40 0 l 1
EndSplineSet
Validated: 1
Position2: "sous-table 'cpsp' Chasses pour composition en capitales dans Latin lookup 1" dx=5 dy=0 dh=10 dv=0
EndChar

StartChar: two
Encoding: 50 50 19
Width: 556
Flags: W
HStem: 0 80<160 464> 694 48<300.508 468.99>
VStem: 156 55<555 587.5> 510.25 103.025<492.01 654.259>
LayerCount: 2
Fore
SplineSet
211 555 m 1
 156 555 l 1
 184 685 l 1
 261 722 337 742 405 742 c 0
 537.07144204 742 613.274979414 683.112208596 613.274979414 584.360282195 c 0
 613.274979414 569.459381148 611.539941217 553.650834612 608 537 c 0
 593 466 524 380 403 281 c 1
 383 264 l 1
 160 80 l 1
 464 80 l 1
 483 170 l 1
 540 170 l 1
 504 0 l 1
 34 0 l 1
 45 53 l 1
 313 274 l 2
 430 371 486 448 505 537 c 0
 508.528694309 553.635273173 510.250341576 569.112906834 510.250341576 583.352245639 c 0
 510.250341576 653.85419885 468.045057451 694 394 694 c 0
 301 694 240 648 211 555 c 1
EndSplineSet
Validated: 1
Position2: "sous-table 'cpsp' Chasses pour composition en capitales dans Latin lookup 1" dx=5 dy=0 dh=10 dv=0
EndChar

StartChar: three
Encoding: 51 51 20
Width: 568
Flags: W
HStem: -14 48<169.294 356.232> 370 50<286 414.04> 694 48<310.44 481.83>
VStem: 72 55<148.113 177> 177 55<570 603.185> 465.452 102.146<148.887 323.065> 515.365 99.9402<517.826 660.86>
LayerCount: 2
Fore
SplineSet
204 698 m 1xfa
 286 727 360 742 421 742 c 0
 546.075619663 742 615.304719873 692.273647063 615.304719873 606.872650984 c 0xfa
 615.304719873 594.633975381 613.882942292 581.662639558 611 568 c 0
 593 480 522 419 416 398 c 1
 513.862996557 383.658009125 567.598146957 329.458608818 567.598146957 246.210016349 c 0
 567.598146957 230.781508524 565.752483471 214.355236053 562 197 c 0
 533 61 424 -14 252 -14 c 0
 176 -14 107 2 42 35 c 1
 72 177 l 1
 127 177 l 1
 125.586543954 166.670898124 124.882386604 156.897413561 124.882386604 147.680831646 c 0
 124.882386604 72.1296096932 172.198920981 34 264 34 c 0
 364 34 438 96 459 196 c 0
 463.311377495 215.832336475 465.451679404 233.99919031 465.451679404 250.485174666 c 0xfc
 465.451679404 329.59499685 416.167663525 370 321 370 c 2
 275 370 l 1
 286 420 l 1
 310 420 l 2
 425 420 491 467 511 562 c 0
 513.918202094 575.780398775 515.364519639 588.56201875 515.364519639 600.306509419 c 0
 515.364519639 661.004168148 476.733234209 694 403 694 c 0
 315 694 257 651 232 570 c 1
 177 570 l 1
 204 698 l 1xfa
EndSplineSet
Validated: 1
Position2: "sous-table 'cpsp' Chasses pour composition en capitales dans Latin lookup 1" dx=5 dy=0 dh=10 dv=0
EndChar

StartChar: four
Encoding: 52 52 21
Width: 593
Flags: W
HStem: 0 52<229 346 444 550> 195 52<138 376 485 613> 722 20G<475.834 590>
LayerCount: 2
Fore
SplineSet
387 247 m 1
 469 635 l 1
 138 247 l 1
 387 247 l 1
550 0 m 1
 218 0 l 1
 229 52 l 1
 346 52 l 1
 376 195 l 1
 58 195 l 1
 69 248 l 1
 493 742 l 1
 590 742 l 1
 485 247 l 1
 624 247 l 1
 613 195 l 1
 474 195 l 1
 444 52 l 1
 561 52 l 1
 550 0 l 1
EndSplineSet
Validated: 1
Position2: "sous-table 'cpsp' Chasses pour composition en capitales dans Latin lookup 1" dx=5 dy=0 dh=10 dv=0
EndChar

StartChar: five
Encoding: 53 53 22
Width: 560
Flags: W
HStem: -14 48<176.628 348.065> 427 48<251.029 425.662> 649 80<265 599>
VStem: 81 55<146.728 177> 471.977 102.16<181.673 381.382>
LayerCount: 2
Fore
SplineSet
616 729 m 1
 599 649 l 1
 265 649 l 1
 221 440 l 1
 259 464 307 475 363 475 c 0
 442 475 500 453 535 409 c 1
 560.976214289 378.811426638 574.137339879 340.243756819 574.137339879 293.989064327 c 0
 574.137339879 274.359498121 571.76704247 253.345511577 567 231 c 0
 534 76 419 -14 252 -14 c 0
 185 -14 117 2 51 35 c 1
 81 177 l 1
 136 177 l 1
 134.486350685 166.171585669 133.731893784 155.926122656 133.731893784 146.27466049 c 0
 133.731893784 73.0343940997 177.177718019 34 262 34 c 0
 365 34 437 104 464 231 c 0
 469.336102504 256.099445111 471.977136002 278.933469898 471.977136002 299.41716142 c 0
 471.977136002 382.578343792 428.446123689 427 345 427 c 0
 286 427 239 407 195 363 c 1
 153 363 l 1
 230 729 l 1
 616 729 l 1
EndSplineSet
Validated: 1
Position2: "sous-table 'cpsp' Chasses pour composition en capitales dans Latin lookup 1" dx=5 dy=0 dh=10 dv=0
EndChar

StartChar: six
Encoding: 54 54 23
Width: 601
Flags: W
HStem: -14 48<245.977 396.485> 426 48<317.699 468.881> 593 120<588.419 643> 694 48<395.3 560.737>
VStem: 105.571 101.156<88.4762 280.44> 508.749 101.888<184.348 385.357>
LayerCount: 2
Fore
SplineSet
316 34 m 0xcc
 408 34 473 103 500 230 c 0
 505.856282274 257.54621662 508.74870906 282.363804378 508.74870906 304.340518174 c 0
 508.74870906 383.685981959 471.045260401 426 399 426 c 0
 306 426 242 359 216 236 c 0
 209.788888605 207.384522504 206.726993926 181.524609633 206.726993926 158.605820711 c 0
 206.726993926 78.2055659008 244.407937439 34 316 34 c 0xcc
235 401 m 1
 289 450 349 474 420 474 c 0
 541.761996985 474 610.637012128 408.420142515 610.637012128 297.985655898 c 0
 610.637012128 276.909482736 608.128386872 254.199575553 603 230 c 0
 588 156 552 97 498 52 c 1
 443 8 378 -14 302 -14 c 0
 173.302607305 -14 105.571115479 64.2087819223 105.571115479 208.061676845 c 0
 105.571115479 247.521545867 110.667529569 291.920765454 121 341 c 0
 175 596 315 742 506 742 c 0xdc
 558 742 613 733 668 713 c 1
 643 593 l 1
 588 593 l 1xec
 588.313235875 597.07206638 588.469485009 601.030317371 588.469485009 604.87303189 c 0
 588.469485009 662.369308537 553.489403395 694 486 694 c 0xdc
 359 694 278 600 235 401 c 1
EndSplineSet
Validated: 1
Position2: "sous-table 'cpsp' Chasses pour composition en capitales dans Latin lookup 1" dx=5 dy=0 dh=10 dv=0
EndChar

StartChar: seven
Encoding: 55 55 24
Width: 534
Flags: W
HStem: 0 21G<150 235.636> 649 80<222 559>
LayerCount: 2
Fore
SplineSet
652 679 m 1
 223 0 l 1
 150 0 l 1
 559 649 l 1
 222 649 l 1
 203 559 l 1
 146 559 l 1
 182 729 l 1
 662 729 l 1
 652 679 l 1
EndSplineSet
Validated: 1
Position2: "sous-table 'cpsp' Chasses pour composition en capitales dans Latin lookup 1" dx=5 dy=0 dh=10 dv=0
EndChar

StartChar: eight
Encoding: 56 56 25
Width: 590
Flags: W
HStem: -14 48<220.25 383.861> 364 48<306 445.024> 694 48<358.725 506.72>
VStem: 74.8308 103.43<75.2323 244.856> 175.463 98.6364<443.108 601.072> 485.74 102.353<150.039 321.763> 539.9 99.0415<506.745 662.41>
LayerCount: 2
Fore
SplineSet
480 199 m 0xf4
 483.849665857 217.198420416 485.739671918 234.080194405 485.739671918 249.548878335 c 0
 485.739671918 322.480346282 443.726412513 364 367 364 c 0
 274 364 206 303 184 199 c 0
 180.150334143 180.801579584 178.260328082 163.919805595 178.260328082 148.451121665 c 0
 178.260328082 75.5196537176 220.273587487 34 297 34 c 0
 390 34 458 95 480 199 c 0xf4
535 553 m 0
 538.289311275 568.407826497 539.900240707 582.706722135 539.900240707 595.818857208 c 0
 539.900240707 658.446153763 503.150268317 694 437 694 c 0
 357 694 298 642 279 553 c 0
 275.710688725 537.592173503 274.099759293 523.293277865 274.099759293 510.181142792 c 0xea
 274.099759293 447.553846237 310.849731683 412 377 412 c 0
 457 412 516 464 535 553 c 0
447 388 m 1
 538.247356289 375.326756071 588.092737121 323.393018175 588.092737121 244.863894376 c 0
 588.092737121 230.446266453 586.412575571 215.132175426 583 199 c 0
 554 63 448 -14 287 -14 c 0
 148.918442998 -14 74.8308262536 42.6383149406 74.8308262536 144.559558774 c 0xf4
 74.8308262536 161.476200415 76.8718332488 179.640321443 81 199 c 0
 103 303 183 373 297 388 c 1
 217.162670122 402.286680083 175.463396651 446.942553231 175.463396651 513.064576782 c 0
 175.463396651 525.622442037 176.967465976 538.954579255 180 553 c 0
 205 670 306 742 447 742 c 0
 569.304960205 742 638.941783477 687.827059155 638.941783477 597.102505589 c 0
 638.941783477 583.234718572 637.314723368 568.512905362 634 553 c 0
 615 465 548 405 447 388 c 1
EndSplineSet
Validated: 1
Position2: "sous-table 'cpsp' Chasses pour composition en capitales dans Latin lookup 1" dx=5 dy=0 dh=10 dv=0
EndChar

StartChar: nine
Encoding: 57 57 26
Width: 596
Flags: W
HStem: -14 48<185.532 348.467> 15 121<101 155.581> 254 48<273.962 425.602> 694 48<347.389 498.091>
VStem: 132.294 102.077<342.636 543.647> 536.871 101.668<446.671 639.546>
LayerCount: 2
Fore
SplineSet
509 327 m 1xbc
 455 278 393 254 322 254 c 0
 200.439226119 254 132.293608135 319.363282874 132.293608135 429.467201701 c 0
 132.293608135 450.697328555 134.82720527 473.590874869 140 498 c 0
 156 572 192 631 246 675 c 0
 301 720 366 742 442 742 c 0
 571.262752725 742 638.53855289 664.056010147 638.53855289 520.668942961 c 0
 638.53855289 481.026749305 633.396290116 436.382378052 623 387 c 0
 569 132 429 -14 238 -14 c 0xbc
 186 -14 131 -5 76 15 c 1
 101 136 l 1
 156 136 l 1x7c
 155.693749423 132.018742501 155.541313488 128.142529148 155.541313488 124.373428002 c 0
 155.541313488 66.6062997985 191.348758191 34 258 34 c 0
 385 34 463 127 509 327 c 1xbc
428 694 m 0
 336 694 270 625 243 498 c 0
 237.217614634 470.801372538 234.370623991 446.262946544 234.370623991 424.49277145 c 0
 234.370623991 344.610308343 272.702942728 302 345 302 c 0
 437 302 502 369 528 492 c 0
 533.931576463 520.33975421 536.870857783 545.976790227 536.870857783 568.730861059 c 0
 536.870857783 649.551264286 499.788702424 694 428 694 c 0
EndSplineSet
Validated: 1
Position2: "sous-table 'cpsp' Chasses pour composition en capitales dans Latin lookup 1" dx=5 dy=0 dh=10 dv=0
EndChar

StartChar: colon
Encoding: 58 58 27
Width: 262
Flags: W
HStem: -14 130<96.5263 174.433> 304 130<164.37 241.98>
VStem: 68.413 133.176<12.893 88.6719> 136.411 133.227<331.275 406.281>
LayerCount: 2
Fore
SplineSet
70 51 m 0xe0
 78 87 113 116 149 116 c 0
 180.166423712 116 201.58940794 94.264634998 201.58940794 65.0689041263 c 0
 201.58940794 60.54096105 201.074128064 55.8335762882 200 51 c 0
 192 14 159 -14 122 -14 c 0
 89.956230023 -14 68.4130040348 7.00108797775 68.4130040348 36.6614428752 c 0
 68.4130040348 41.2490285913 68.9283826977 46.043769977 70 51 c 0xe0
138 369 m 0
 146 405 181 434 217 434 c 0
 248.890250883 434 269.63746194 413.199658993 269.63746194 383.764260542 c 0
 269.63746194 379.047850445 269.10481062 374.109749117 268 369 c 0
 260 332 226 304 189 304 c 0
 157.833576288 304 136.41059206 325.735365002 136.41059206 354.931095874 c 0xd0
 136.41059206 359.45903895 136.925871936 364.166423712 138 369 c 0
EndSplineSet
Validated: 1
EndChar

StartChar: semicolon
Encoding: 59 59 28
Width: 282
Flags: W
HStem: 304 130<201.37 278.63>
VStem: 135 100<47.0468 111> 173.411 133.179<331.328 406.672>
LayerCount: 2
Fore
SplineSet
6 -97 m 1xc0
 76 -52 117 6 135 93 c 1
 139 111 l 1
 235 111 l 1
 206 -1 144 -77 37 -136 c 1
 6 -97 l 1xc0
175 369 m 0
 183 405 218 434 254 434 c 0
 285.166423712 434 306.58940794 412.264634998 306.58940794 383.068904126 c 0
 306.58940794 378.54096105 306.074128064 373.833576288 305 369 c 0
 297 333 262 304 226 304 c 0
 194.833576288 304 173.41059206 325.735365002 173.41059206 354.931095874 c 0xa0
 173.41059206 359.45903895 173.925871936 364.166423712 175 369 c 0
EndSplineSet
Validated: 1
EndChar

StartChar: less
Encoding: 60 60 29
Width: 692
Flags: W
LayerCount: 2
Fore
SplineSet
751 498 m 1
 205 313 l 1
 673 129 l 1
 655 46 l 1
 78 273 l 1
 95 354 l 1
 769 581 l 1
 751 498 l 1
EndSplineSet
Validated: 1
EndChar

StartChar: equal
Encoding: 61 61 30
Width: 782
Flags: W
HStem: 175 78<128 738> 374 78<171 780>
LayerCount: 2
Fore
SplineSet
171 452 m 1
 797 452 l 1
 780 374 l 1
 154 374 l 1
 171 452 l 1
128 253 m 1
 754 253 l 1
 738 175 l 1
 112 175 l 1
 128 253 l 1
EndSplineSet
Validated: 1
EndChar

StartChar: greater
Encoding: 62 62 31
Width: 692
Flags: W
LayerCount: 2
Fore
SplineSet
146 498 m 1
 164 581 l 1
 742 354 l 1
 725 273 l 1
 50 46 l 1
 68 129 l 1
 614 313 l 1
 146 498 l 1
EndSplineSet
Validated: 1
EndChar

StartChar: question
Encoding: 63 63 32
Width: 478
Flags: W
HStem: -14 130<166.02 244.48> 694 48<271.347 424.678>
VStem: 138.413 133.176<13.3281 88.6719> 143 47<570 602.926> 459.667 103.128<500.563 658.703>
LayerCount: 2
Fore
SplineSet
140 51 m 0xe8
 148 87 182 116 219 116 c 0
 250.166423712 116 271.58940794 94.264634998 271.58940794 65.0689041263 c 0
 271.58940794 60.54096105 271.074128064 55.8335762882 270 51 c 0
 263 15 228 -14 192 -14 c 0
 159.956230023 -14 138.413004035 7.00108797775 138.413004035 36.6614428752 c 0
 138.413004035 41.2490285913 138.928382698 46.043769977 140 51 c 0xe8
170 697 m 1
 245 728 310 742 365 742 c 0
 490.468902728 742 562.79490477 685.820362132 562.79490477 592.644187752 c 0
 562.79490477 578.882556676 561.217204387 564.313892884 558 549 c 0
 532 428 444 351 292 318 c 1
 266 194 l 1
 206 194 l 1
 240 354 l 1
 361 382 434 449 455 550 c 0
 458.138399616 564.700924516 459.667038631 578.474190381 459.667038631 591.225155746 c 0
 459.667038631 655.669057698 420.620506901 694 353 694 c 0
 278 694 220 650 190 570 c 1
 143 570 l 1xd8
 170 697 l 1
EndSplineSet
Validated: 1
Position2: "sous-table 'cpsp' Chasses pour composition en capitales dans Latin lookup 1" dx=5 dy=0 dh=10 dv=0
EndChar

StartChar: at
Encoding: 64 64 33
Width: 934
Flags: W
HStem: -174 51<421.391 677.433> 42 57<467.849 599.677> 425 57<467.135 599.793> 653 51<430.596 687.683>
VStem: 97 83<123.442 404.935> 324 87<161.646 362.354> 663 76<95 121 155.031 369.63 403 472> 914 46<215.041 443.576>
LayerCount: 2
Fore
SplineSet
662 121 m 1
 623 68 576 42 516 42 c 0
 459 42 412 62 377 103 c 0
 342 144 324 197 324 262 c 0
 325 327 343 380 378 421 c 0
 413 462 460 482 517 482 c 0
 577 482 624 456 663 403 c 1
 663 472 l 1
 739 472 l 1
 739 95 l 1
 850 119 914 204 914 327 c 0
 914 399 892 464 849 519 c 0
 779 606 676 653 560 653 c 0
 501 653 445 640 388 615 c 0
 256 555 180 426 180 265 c 0
 180 157 213 63 273 -4 c 1
 344 -81 443 -123 556 -123 c 0
 640 -123 713 -98 776 -49 c 1
 802 -83 l 1
 731 -143 641 -174 536 -174 c 0
 416 -174 304 -129 223 -49 c 0
 140 34 97 142 97 265 c 0
 97 385 141 493 226 576 c 1
 309 659 424 704 551 704 c 0
 691 704 808 648 886 547 c 1
 934 483 960 407 960 326 c 0
 959 239 933 170 880 119 c 0
 826 68 754 43 662 42 c 1
 662 121 l 1
663 237 m 2
 663 288 l 2
 663 369 612 425 537 425 c 0
 458 425 412 365 411 262 c 0
 411 159 458 99 538 99 c 0
 613 99 663 156 663 237 c 2
EndSplineSet
Validated: 1
EndChar

StartChar: A
Encoding: 65 65 34
Width: 751
Flags: W
HStem: 0 52<15 79 140 209 488 569 681 742> 212 52<266 534> 709 20G<470.095 567.456>
LayerCount: 2
Fore
SplineSet
266 264 m 1
 534 264 l 1
 473 611 l 1
 266 264 l 1
4 0 m 1
 15 52 l 1
 79 52 l 1
 482 729 l 1
 564 729 l 1
 681 52 l 1
 753 52 l 1
 742 0 l 1
 477 0 l 1
 488 52 l 1
 569 52 l 1
 542 212 l 1
 235 212 l 1
 140 52 l 1
 220 52 l 1
 209 0 l 1
 4 0 l 1
EndSplineSet
Validated: 1
Position2: "sous-table 'cpsp' Chasses pour composition en capitales dans Latin lookup 1" dx=5 dy=0 dh=10 dv=0
EndChar

StartChar: B
Encoding: 66 66 35
Width: 695
Flags: W
HStem: 0 52<41 134 233 488.09> 369 52<311 543.411> 677 52<184 266 365 588.166>
VStem: 587.492 110.884<159.931 330.818> 620.625 113.087<502.325 646.207>
LayerCount: 2
Fore
SplineSet
233 52 m 1xf0
 379 52 l 2
 496 52 558 100 581 211 c 1
 585.310842713 230.578410656 587.492341532 248.221054136 587.492341532 263.991675345 c 0
 587.492341532 336.021731218 541.984641772 369 446 369 c 2
 300 369 l 1
 233 52 l 1xf0
311 421 m 1
 435 421 l 2
 542 421 597 460 616 549 c 0
 619.069325062 563.377364764 620.625066003 576.449915631 620.625066003 588.264025104 c 0xe8
 620.625066003 649.582632257 578.714853598 677 489 677 c 2
 365 677 l 1
 311 421 l 1
30 0 m 1
 41 52 l 1
 134 52 l 1
 266 677 l 1
 173 677 l 1
 184 729 l 1
 544 729 l 2
 669.439259819 729 733.712308155 685.309848941 733.712308155 597.929546823 c 0xe8
 733.712308155 582.910453171 731.81346425 566.60060423 728 549 c 0
 710 462 647 410 544 398 c 1
 646.116295669 384.497018754 698.376594556 336.807068287 698.376594556 257.93552623 c 0xf0
 698.376594556 243.350323441 696.58946446 227.698812921 693 211 c 0
 663 67 560 0 367 0 c 2
 30 0 l 1
EndSplineSet
Validated: 1
Position2: "sous-table 'cpsp' Chasses pour composition en capitales dans Latin lookup 1" dx=5 dy=0 dh=10 dv=0
EndChar

StartChar: C
Encoding: 67 67 36
Width: 721
Flags: W
HStem: -14 52<300.643 510.49> 690 52<429.649 649.582>
VStem: 108.371 108.707<145.909 391.696>
LayerCount: 2
Fore
SplineSet
733 193 m 1
 661 57 544 -14 389 -14 c 0
 293 -14 218 19 168 82 c 0
 127.917434614 132.448746089 108.371230126 191.971698156 108.371230126 262.54916902 c 0
 108.371230126 294.098228 112.276967839 327.856209485 120 364 c 0
 144 477 196 569 276 638 c 0
 356 707 450 742 557 742 c 0
 637 742 721 722 816 679 c 1
 780 511 l 1
 725 511 l 1
 725.033273365 513.046311917 725.049939977 515.074079628 725.049939977 517.083353785 c 0
 725.049939977 635.847808777 666.820594625 690 538 690 c 0
 382 690 277 577 232 364 c 0
 222.041117865 316.861291227 217.077935485 274.620327313 217.077935485 237.418016885 c 0
 217.077935485 106.518732523 278.524124735 38 400 38 c 0
 508 38 590 90 643 193 c 1
 733 193 l 1
EndSplineSet
Validated: 1
Position2: "sous-table 'cpsp' Chasses pour composition en capitales dans Latin lookup 1" dx=5 dy=0 dh=10 dv=0
EndChar

StartChar: D
Encoding: 68 68 37
Width: 767
Flags: W
HStem: 0 52<41 134 233 453.938> 677 52<184 266 365 577.177>
VStem: 695.187 112.054<325.725 569.752>
LayerCount: 2
Fore
SplineSet
233 52 m 1
 324 52 l 2
 513 52 641 164 684 365 c 0
 691.48993338 400.359452934 695.187336877 432.866923396 695.187336877 462.443139396 c 0
 695.187336877 602.665134334 612.079130027 677 456 677 c 2
 365 677 l 1
 233 52 l 1
30 0 m 1
 41 52 l 1
 134 52 l 1
 266 677 l 1
 173 677 l 1
 184 729 l 1
 474 729 l 2
 600 729 692 697 748 633 c 0
 787.152309953 588.254502911 807.241089418 531.288793969 807.241089418 461.761123518 c 0
 807.241089418 431.842565894 803.521290199 399.597934917 796 365 c 0
 772 250 718 161 633 96 c 0
 549 32 445 0 320 0 c 2
 30 0 l 1
EndSplineSet
Validated: 1
Position2: "sous-table 'cpsp' Chasses pour composition en capitales dans Latin lookup 1" dx=5 dy=0 dh=10 dv=0
EndChar

StartChar: E
Encoding: 69 69 38
Width: 675
Flags: W
HStem: 0 60<234 577> 0 52<41 134> 365 60<312 538> 669 60<364 699> 677 52<184 266>
LayerCount: 2
Fore
SplineSet
30 0 m 1x60
 41 52 l 1
 134 52 l 1
 266 677 l 1
 173 677 l 1
 184 729 l 1
 771 729 l 1x68
 737 567 l 1
 677 567 l 1
 699 669 l 1
 364 669 l 1
 312 425 l 1
 551 425 l 1
 570 516 l 1
 630 516 l 1
 579 274 l 1
 519 274 l 1
 538 365 l 1
 299 365 l 1
 234 60 l 1
 577 60 l 1xb0
 599 162 l 1
 659 162 l 1
 625 0 l 1
 30 0 l 1x60
EndSplineSet
Validated: 1
Position2: "sous-table 'cpsp' Chasses pour composition en capitales dans Latin lookup 1" dx=5 dy=0 dh=10 dv=0
EndChar

StartChar: F
Encoding: 70 70 39
Width: 659
Flags: W
HStem: 0 52<41 134 233 339> 365 60<312 548> 669 60<364 709> 677 52<184 266>
LayerCount: 2
Fore
SplineSet
30 0 m 1xe0
 41 52 l 1
 134 52 l 1
 266 677 l 1
 173 677 l 1
 184 729 l 1
 781 729 l 1xd0
 747 567 l 1
 687 567 l 1
 709 669 l 1
 364 669 l 1
 312 425 l 1
 561 425 l 1
 580 516 l 1
 640 516 l 1
 589 274 l 1
 529 274 l 1
 548 365 l 1
 299 365 l 1
 233 52 l 1
 350 52 l 1
 339 0 l 1
 30 0 l 1xe0
EndSplineSet
Validated: 1
Position2: "sous-table 'cpsp' Chasses pour composition en capitales dans Latin lookup 1" dx=5 dy=0 dh=10 dv=0
EndChar

StartChar: G
Encoding: 71 71 40
Width: 761
Flags: W
HStem: -14 52<308.419 546.503> 281 52<539 665> 690 52<433.293 659.543>
VStem: 105.914 109.575<143.56 394.898>
LayerCount: 2
Fore
SplineSet
733 511 m 1
 733.073622397 514.018518291 733.110507495 516.996685777 733.110507495 519.934665035 c 0
 733.110507495 636.714843455 674.834236914 690 549 690 c 0
 381 690 276 583 230 364 c 0
 220.29810867 318.654203567 215.489382034 277.934671935 215.489382034 241.907079148 c 0
 215.489382034 107.115476808 282.800262379 38 413 38 c 0
 486 38 557 56 625 93 c 1
 665 281 l 1
 528 281 l 1
 539 333 l 1
 775 333 l 1
 717 61 l 1
 620 10 515 -14 402 -14 c 0
 292 -14 211 20 158 89 c 1
 123.482745551 135.699814843 105.914092265 192.477176323 105.914092265 259.952136564 c 0
 105.914092265 292.172909 109.920222769 326.833024738 118 364 c 0
 142 479 195 571 275 639 c 0
 357 708 453 742 566 742 c 0
 649 742 733 723 825 684 c 1
 788 511 l 1
 733 511 l 1
EndSplineSet
Validated: 1
Position2: "sous-table 'cpsp' Chasses pour composition en capitales dans Latin lookup 1" dx=5 dy=0 dh=10 dv=0
EndChar

StartChar: H
Encoding: 72 72 41
Width: 826
Flags: W
HStem: 0 52<41 134 233 315 518 611 710 792> 365 60<312 677> 677 52<184 266 365 458 661 743 842 935>
LayerCount: 2
Fore
SplineSet
30 0 m 1
 41 52 l 1
 134 52 l 1
 266 677 l 1
 173 677 l 1
 184 729 l 1
 469 729 l 1
 458 677 l 1
 365 677 l 1
 312 425 l 1
 690 425 l 1
 743 677 l 1
 650 677 l 1
 661 729 l 1
 946 729 l 1
 935 677 l 1
 842 677 l 1
 710 52 l 1
 803 52 l 1
 792 0 l 1
 507 0 l 1
 518 52 l 1
 611 52 l 1
 677 365 l 1
 299 365 l 1
 233 52 l 1
 326 52 l 1
 315 0 l 1
 30 0 l 1
EndSplineSet
Validated: 1
Position2: "sous-table 'cpsp' Chasses pour composition en capitales dans Latin lookup 1" dx=5 dy=0 dh=10 dv=0
EndChar

StartChar: I
Encoding: 73 73 42
Width: 349
Flags: W
HStem: 0 52<41 134 233 315> 677 52<184 266 365 458>
LayerCount: 2
Fore
SplineSet
233 52 m 1
 326 52 l 1
 315 0 l 1
 30 0 l 1
 41 52 l 1
 134 52 l 1
 266 677 l 1
 173 677 l 1
 184 729 l 1
 469 729 l 1
 458 677 l 1
 365 677 l 1
 233 52 l 1
EndSplineSet
Validated: 1
Position2: "sous-table 'cpsp' Chasses pour composition en capitales dans Latin lookup 1" dx=5 dy=0 dh=10 dv=0
EndChar

StartChar: J
Encoding: 74 74 43
Width: 339
Flags: W
HStem: -208 52<-71.3165 59.0951> 677 52<165 267 366 459>
VStem: -136 56<-91.8916 -60>
LayerCount: 2
Fore
SplineSet
-161 -175 m 1
 -136 -60 l 1
 -80 -60 l 1
 -82.4142857143 -71.8857142857 -83.6214285714 -82.667755102 -83.6214285714 -92.346122449 c 0
 -83.6214285714 -134.782040816 -60.4142857143 -156 -14 -156 c 0
 25 -156 55 -144 75 -119 c 0
 95 -95 114 -47 129 24 c 2
 267 677 l 1
 154 677 l 1
 165 729 l 1
 470 729 l 1
 459 677 l 1
 366 677 l 1
 227 20 l 2
 193 -141 118 -208 -26 -208 c 0
 -73 -208 -117 -196 -161 -175 c 1
EndSplineSet
Validated: 1
Position2: "sous-table 'cpsp' Chasses pour composition en capitales dans Latin lookup 1" dx=5 dy=0 dh=10 dv=0
EndChar

StartChar: K
Encoding: 75 75 44
Width: 749
Flags: W
HStem: 0 52<41 134 233 315 665 737> 677 52<184 266 365 458 611 679 760 842>
LayerCount: 2
Fore
SplineSet
30 0 m 1
 41 52 l 1
 134 52 l 1
 266 677 l 1
 173 677 l 1
 184 729 l 1
 469 729 l 1
 458 677 l 1
 365 677 l 1
 307 401 l 1
 679 677 l 1
 600 677 l 1
 611 729 l 1
 853 729 l 1
 842 677 l 1
 760 677 l 1
 389 402 l 1
 665 52 l 1
 748 52 l 1
 737 0 l 1
 568 0 l 1
 295 346 l 1
 233 52 l 1
 326 52 l 1
 315 0 l 1
 30 0 l 1
EndSplineSet
Validated: 1
Position2: "sous-table 'cpsp' Chasses pour composition en capitales dans Latin lookup 1" dx=5 dy=0 dh=10 dv=0
EndChar

StartChar: L
Encoding: 76 76 45
Width: 646
Flags: W
HStem: 0 60<234 567> 0 52<41 134> 677 52<184 266 365 458>
LayerCount: 2
Fore
SplineSet
30 0 m 1x60
 41 52 l 1
 134 52 l 1x60
 266 677 l 1
 173 677 l 1
 184 729 l 1
 469 729 l 1
 458 677 l 1
 365 677 l 1
 234 60 l 1
 567 60 l 1xa0
 593 182 l 1
 653 182 l 1
 615 0 l 1
 30 0 l 1x60
EndSplineSet
Validated: 1
Position2: "sous-table 'cpsp' Chasses pour composition en capitales dans Latin lookup 1" dx=5 dy=0 dh=10 dv=0
EndChar

StartChar: M
Encoding: 77 77 46
Width: 982
Flags: W
HStem: 0 52<43 136 196 278 672 765 864 946> 677 52<181 268 996 1093>
LayerCount: 2
Fore
SplineSet
32 0 m 1
 43 52 l 1
 136 52 l 1
 268 677 l 1
 170 677 l 1
 181 729 l 1
 393 729 l 1
 539 210 l 1
 905 729 l 1
 1104 729 l 1
 1093 677 l 1
 996 677 l 1
 864 52 l 1
 957 52 l 1
 946 0 l 1
 661 0 l 1
 672 52 l 1
 765 52 l 1
 884 615 l 1
 526 107 l 1
 457 107 l 1
 315 615 l 1
 196 52 l 1
 289 52 l 1
 278 0 l 1
 32 0 l 1
EndSplineSet
Validated: 1
Position2: "sous-table 'cpsp' Chasses pour composition en capitales dans Latin lookup 1" dx=5 dy=0 dh=10 dv=0
EndChar

StartChar: N
Encoding: 78 78 47
Width: 833
Flags: W
HStem: -14 21G<640.023 714.226> 0 52<40 138 198 285> 677 52<183 270 709 796 856 954>
LayerCount: 2
Fore
SplineSet
29 0 m 1x60
 40 52 l 1
 138 52 l 1x60
 270 677 l 1
 172 677 l 1
 183 729 l 1
 370 729 l 1
 685 154 l 1
 796 677 l 1
 698 677 l 1
 709 729 l 1
 965 729 l 1
 954 677 l 1
 856 677 l 1
 710 -14 l 1
 651 -14 l 1xa0
 314 600 l 1
 198 52 l 1
 296 52 l 1
 285 0 l 1
 29 0 l 1x60
EndSplineSet
Validated: 1
Position2: "sous-table 'cpsp' Chasses pour composition en capitales dans Latin lookup 1" dx=5 dy=0 dh=10 dv=0
EndChar

StartChar: O
Encoding: 79 79 48
Width: 800
Flags: W
HStem: -14 52<302.945 514.465> 690 52<433.38 645.555>
VStem: 108.371 108.472<145.514 387.409> 731.157 108.276<340.582 582.617>
LayerCount: 2
Fore
SplineSet
405 38 m 0
 565 38 670 149 716 364 c 0
 726.118586247 411.293392244 731.156592295 453.554590765 731.156592295 490.709090799 c 0
 731.156592295 622.462278039 667.8049174 690 543 690 c 0
 383 690 278 579 232 364 c 0
 221.881413753 316.706607756 216.843407705 274.445409235 216.843407705 237.290909201 c 0
 216.843407705 105.537721961 280.1950826 38 405 38 c 0
394 -14 m 0
 295 -14 218 19 168 82 c 0
 127.917434614 132.448746089 108.371230126 191.016518579 108.371230126 261.663943109 c 0
 108.371230126 293.244272299 112.276967839 327.238366912 120 364 c 0
 145 481 199 573 288 646 c 0
 365 710 454 742 554 742 c 0
 660 742 738 707 788 638 c 0
 822.077084613 590.973623233 839.432202408 533.263767666 839.432202408 465.503584273 c 0
 839.432202408 433.841847978 835.642999386 399.985788774 828 364 c 0
 803 247 747 154 660 82 c 0
 582 18 494 -14 394 -14 c 0
EndSplineSet
Validated: 1
Position2: "sous-table 'cpsp' Chasses pour composition en capitales dans Latin lookup 1" dx=5 dy=0 dh=10 dv=0
EndChar

StartChar: P
Encoding: 80 80 49
Width: 645
Flags: W
HStem: 0 52<41 134 233 335> 319 52<300 519.462> 677 52<184 266 365 577.174>
VStem: 616.364 111.724<473.575 639.798>
LayerCount: 2
Fore
SplineSet
300 371 m 1
 429 371 l 2
 526 371 590 425 611 524 c 0
 614.586082928 541.076585372 616.364185295 556.782604834 616.364185295 571.088180192 c 0
 616.364185295 640.555648724 574.43571219 677 494 677 c 2
 365 677 l 1
 300 371 l 1
30 0 m 1
 41 52 l 1
 134 52 l 1
 266 677 l 1
 173 677 l 1
 184 729 l 1
 529 729 l 2
 654.952651199 729 728.087945723 668.637306658 728.087945723 570.851527223 c 0
 728.087945723 556.063749189 726.415386682 540.420128277 723 524 c 0
 696 399 587 319 442 319 c 2
 289 319 l 1
 233 52 l 1
 346 52 l 1
 335 0 l 1
 30 0 l 1
EndSplineSet
Validated: 1
Position2: "sous-table 'cpsp' Chasses pour composition en capitales dans Latin lookup 1" dx=5 dy=0 dh=10 dv=0
EndChar

StartChar: Q
Encoding: 81 81 50
Width: 799
Flags: W
HStem: -160 90<516.016 609> -14 52<303.44 411.528> 690 52<431.38 643.555>
VStem: 105.914 108.929<141.933 387.409> 729.157 108.276<340.644 582.617>
LayerCount: 2
Fore
SplineSet
404 -14 m 1
 292 -14 210 20 158 88 c 1
 123.482745551 134.699814843 105.914092265 191.935246624 105.914092265 259.706295345 c 0
 105.914092265 292.06845652 109.920222769 326.833024738 118 364 c 0
 143 481 197 573 286 646 c 0
 363 710 452 742 552 742 c 0
 658 742 736 707 786 638 c 0
 820.077084613 590.973623233 837.432202408 533.263767666 837.432202408 465.503584273 c 0
 837.432202408 433.841847978 833.642999386 399.985788774 826 364 c 0
 805 267 764 186 701 120 c 0
 638 55 562 13 472 -6 c 1
 498 -50 543 -70 614 -70 c 2
 629 -70 l 1
 609 -160 l 1
 502 -155 433 -106 404 -14 c 1
403 38 m 0
 563 38 668 149 714 364 c 0
 724.118586247 411.293392244 729.156592295 453.554590765 729.156592295 490.709090799 c 0
 729.156592295 622.462278039 665.8049174 690 541 690 c 0
 381 690 276 579 230 364 c 0
 219.881413753 316.706607756 214.843407705 274.445409235 214.843407705 237.290909201 c 0
 214.843407705 105.537721961 278.1950826 38 403 38 c 0
EndSplineSet
Validated: 1
Position2: "sous-table 'cpsp' Chasses pour composition en capitales dans Latin lookup 1" dx=5 dy=0 dh=10 dv=0
EndChar

StartChar: R
Encoding: 82 82 51
Width: 762
Flags: W
HStem: 0 52<41 134 233 325 674 752> 339 52<305 471.385> 677 52<184 266 365 596.702>
VStem: 628.766 111.794<486.243 645.644>
LayerCount: 2
Fore
SplineSet
530 362 m 1
 573 350 600 321 613 268 c 1
 674 52 l 1
 763 52 l 1
 752 0 l 1
 580 0 l 1
 515 232 l 2
 502 277 489 306 473 319 c 0
 458 332 435 339 403 339 c 2
 294 339 l 1
 233 52 l 1
 336 52 l 1
 325 0 l 1
 30 0 l 1
 41 52 l 1
 134 52 l 1
 266 677 l 1
 173 677 l 1
 184 729 l 1
 554 729 l 2
 674.808952641 729 740.559798151 676.87832525 740.559798151 583.95669874 c 0
 740.559798151 568.426517238 738.723171853 551.756665763 735 534 c 0
 714 434 646 377 530 362 c 1
305 391 m 1
 449 391 l 2
 548 391 602 437 623 534 c 0
 626.831625676 551.698461455 628.765661208 567.699079098 628.765661208 582.032224086 c 0
 628.765661208 646.254781091 589.936621814 677 509 677 c 2
 365 677 l 1
 305 391 l 1
EndSplineSet
Validated: 1
Position2: "sous-table 'cpsp' Chasses pour composition en capitales dans Latin lookup 1" dx=5 dy=0 dh=10 dv=0
EndChar

StartChar: S
Encoding: 83 83 52
Width: 620
Flags: W
HStem: -14 52<202.12 423.358> 690 52<341.081 553.869>
VStem: 99 56<167.8 201> 157.602 102.088<479.997 590.98> 518.038 105.7<149.351 261.978> 599 55<544 571.438>
LayerCount: 2
Fore
SplineSet
64 35 m 1xf8
 99 201 l 1
 155 201 l 1
 152.119487004 185.013152872 150.670267766 170.250165623 150.670267766 156.690125196 c 0
 150.670267766 76.0999885859 201.859180576 38 308 38 c 0
 424 38 496 85 514 173 c 0
 516.704769682 184.833367361 518.037830796 195.752262342 518.037830796 205.756684944 c 0xf8
 518.037830796 225.342722977 512.928556845 241.423827996 503 254 c 1
 490 273 454 291 399 309 c 2
 309 338 l 2
 244 359 201 386 178 417 c 1
 164.490343481 436.94282629 157.60239469 462.265790109 157.60239469 492.436409332 c 0
 157.60239469 509.164318047 159.719803725 527.38243374 164 547 c 0
 190 671 297 742 456 742 c 0
 524 742 602 727 687 699 c 1
 654 544 l 1
 599 544 l 1xf4
 600.049115622 553.823537186 600.579746248 563.101300692 600.579746248 571.848038783 c 0
 600.579746248 654.811038876 552.84122475 690 447 690 c 0
 344 690 280 647 263 567 c 0
 260.804040507 556.020202536 259.69062426 545.82770925 259.69062426 536.391647141 c 0
 259.69062426 515.748632211 265.019335984 498.72583002 276 485 c 0
 292 465 331 445 392 426 c 2
 476 399 l 2
 578.652065232 365.88643057 623.737435245 321.807776337 623.737435245 248.609382451 c 0
 623.737435245 233.386751185 621.787536814 216.904719482 618 199 c 0
 588 58 482 -14 303 -14 c 0
 223 -14 142 2 64 35 c 1xf8
EndSplineSet
Validated: 1
Position2: "sous-table 'cpsp' Chasses pour composition en capitales dans Latin lookup 1" dx=5 dy=0 dh=10 dv=0
EndChar

StartChar: T
Encoding: 84 84 53
Width: 705
Flags: W
HStem: 0 52<218 311 410 492> 671 58<228 442 541 755>
LayerCount: 2
Fore
SplineSet
207 0 m 1
 218 52 l 1
 311 52 l 1
 442 671 l 1
 228 671 l 1
 204 557 l 1
 144 557 l 1
 180 729 l 1
 827 729 l 1
 791 557 l 1
 731 557 l 1
 755 671 l 1
 541 671 l 1
 410 52 l 1
 503 52 l 1
 492 0 l 1
 207 0 l 1
EndSplineSet
Validated: 1
Position2: "sous-table 'cpsp' Chasses pour composition en capitales dans Latin lookup 1" dx=5 dy=0 dh=10 dv=0
EndChar

StartChar: U
Encoding: 85 85 54
Width: 785
Flags: W
HStem: -14 64<308.67 534.574> 677 52<167 249 348 441 672 754 814 907>
VStem: 152.83 101.339<99.6109 324.922>
LayerCount: 2
Fore
SplineSet
249 677 m 1
 156 677 l 1
 167 729 l 1
 452 729 l 1
 441 677 l 1
 348 677 l 1
 268 300 l 2
 258.713075057 256.815799015 254.169733733 219.668886273 254.169733733 188.559261774 c 0
 254.169733733 152.672276114 260.215617437 124.819188856 272 105 c 0
 295 68 343 50 418 50 c 0
 493 50 549 68 587 105 c 0
 626 142 654 207 674 300 c 2
 754 677 l 1
 661 677 l 1
 672 729 l 1
 918 729 l 1
 907 677 l 1
 814 677 l 1
 732 290 l 2
 709 179 671 101 618 55 c 0
 565 9 489 -14 387 -14 c 0
 285 -14 216 9 182 55 c 1
 162.553571429 82.6964285714 152.830357143 121.157844388 152.830357143 170.588881423 c 0
 152.830357143 205.040816327 157.553571429 244.821428571 167 290 c 2
 249 677 l 1
EndSplineSet
Validated: 1
Position2: "sous-table 'cpsp' Chasses pour composition en capitales dans Latin lookup 1" dx=5 dy=0 dh=10 dv=0
EndChar

StartChar: V
Encoding: 86 86 55
Width: 769
Flags: W
HStem: 0 21G<336.573 435.905> 677 52<162 224 336 417 695 766 827 898>
LayerCount: 2
Fore
SplineSet
336 677 m 1
 432 117 l 1
 766 677 l 1
 684 677 l 1
 695 729 l 1
 909 729 l 1
 898 677 l 1
 827 677 l 1
 424 0 l 1
 340 0 l 1
 224 677 l 1
 151 677 l 1
 162 729 l 1
 428 729 l 1
 417 677 l 1
 336 677 l 1
EndSplineSet
Validated: 1
Position2: "sous-table 'cpsp' Chasses pour composition en capitales dans Latin lookup 1" dx=5 dy=0 dh=10 dv=0
EndChar

StartChar: W
Encoding: 87 87 56
Width: 1041
Flags: W
HStem: 0 21G<267.582 358.882 681.617 772.867> 677 52<160 221 324 415 970 1043 1097 1169>
LayerCount: 2
Fore
SplineSet
763 0 m 1
 683 0 l 1
 642 593 l 1
 349 0 l 1
 269 0 l 1
 221 677 l 1
 149 677 l 1
 160 729 l 1
 426 729 l 1
 415 677 l 1
 324 677 l 1
 362 138 l 1
 653 729 l 1
 732 729 l 1
 775 132 l 1
 1043 677 l 1
 959 677 l 1
 970 729 l 1
 1180 729 l 1
 1169 677 l 1
 1097 677 l 1
 763 0 l 1
EndSplineSet
Validated: 1
Position2: "sous-table 'cpsp' Chasses pour composition en capitales dans Latin lookup 1" dx=5 dy=0 dh=10 dv=0
EndChar

StartChar: X
Encoding: 88 88 57
Width: 735
Flags: W
HStem: 0 52<31 115 178 261 443 530 654 721> 677 52<177 244 369 455 603 686 749 831>
LayerCount: 2
Fore
SplineSet
411 312 m 1
 178 52 l 1
 272 52 l 1
 261 0 l 1
 20 0 l 1
 31 52 l 1
 115 52 l 1
 390 358 l 1
 244 677 l 1
 166 677 l 1
 177 729 l 1
 466 729 l 1
 455 677 l 1
 369 677 l 1
 475 442 l 1
 686 677 l 1
 592 677 l 1
 603 729 l 1
 842 729 l 1
 831 677 l 1
 749 677 l 1
 497 396 l 1
 654 52 l 1
 732 52 l 1
 721 0 l 1
 432 0 l 1
 443 52 l 1
 530 52 l 1
 411 312 l 1
EndSplineSet
Validated: 1
Position2: "sous-table 'cpsp' Chasses pour composition en capitales dans Latin lookup 1" dx=5 dy=0 dh=10 dv=0
EndChar

StartChar: Y
Encoding: 89 89 58
Width: 697
Flags: W
HStem: 0 52<216 309 408 490> 677 52<159 216 334 419 627 698 759 828>
LayerCount: 2
Fore
SplineSet
205 0 m 1
 216 52 l 1
 309 52 l 1
 364 314 l 1
 216 677 l 1
 148 677 l 1
 159 729 l 1
 430 729 l 1
 419 677 l 1
 334 677 l 1
 454 382 l 1
 698 677 l 1
 616 677 l 1
 627 729 l 1
 839 729 l 1
 828 677 l 1
 759 677 l 1
 465 323 l 1
 408 52 l 1
 501 52 l 1
 490 0 l 1
 205 0 l 1
EndSplineSet
Validated: 1
Position2: "sous-table 'cpsp' Chasses pour composition en capitales dans Latin lookup 1" dx=5 dy=0 dh=10 dv=0
EndChar

StartChar: Z
Encoding: 90 90 59
Width: 679
Flags: W
HStem: 0 60<181 593> 669 60<249 626>
LayerCount: 2
Fore
SplineSet
30 0 m 1
 37 35 l 1
 626 669 l 1
 249 669 l 1
 226 560 l 1
 166 560 l 1
 201 729 l 1
 777 729 l 1
 770 694 l 1
 181 60 l 1
 593 60 l 1
 615 162 l 1
 675 162 l 1
 641 0 l 1
 30 0 l 1
EndSplineSet
Validated: 1
Position2: "sous-table 'cpsp' Chasses pour composition en capitales dans Latin lookup 1" dx=5 dy=0 dh=10 dv=0
EndChar

StartChar: bracketleft
Encoding: 91 91 60
Width: 325
Flags: W
HStem: -132 52<153 276> 708 52<321 455>
LayerCount: 2
Fore
SplineSet
239 760 m 1
 466 760 l 1
 455 708 l 1
 321 708 l 1
 153 -80 l 1
 287 -80 l 1
 276 -132 l 1
 49 -132 l 1
 239 760 l 1
EndSplineSet
Validated: 1
EndChar

StartChar: backslash
Encoding: 92 92 61
Width: 356
Flags: W
HStem: 709 20G<159 239.068>
VStem: 159 163
LayerCount: 2
Fore
SplineSet
237 729 m 1
 322 -93 l 1
 244 -93 l 1
 159 729 l 1
 237 729 l 1
EndSplineSet
Validated: 1
EndChar

StartChar: bracketright
Encoding: 93 93 62
Width: 325
Flags: W
HStem: -132 52<-1 133> 708 52<178 301>
LayerCount: 2
Fore
SplineSet
405 760 m 1
 215 -132 l 1
 -12 -132 l 1
 -1 -80 l 1
 133 -80 l 1
 301 708 l 1
 167 708 l 1
 178 760 l 1
 405 760 l 1
EndSplineSet
Validated: 1
EndChar

StartChar: asciicircum
Encoding: 94 94 63
Width: 672
Flags: W
HStem: 457 272
LayerCount: 2
Fore
SplineSet
537 729 m 1
 745 457 l 1
 670 457 l 1
 471 643 l 1
 194 457 l 1
 119 457 l 1
 441 729 l 1
 537 729 l 1
EndSplineSet
Validated: 1
EndChar

StartChar: underscore
Encoding: 95 95 64
Width: 656
Flags: W
HStem: -236 39<35 526>
LayerCount: 2
Fore
SplineSet
535 -197 m 1
 526 -236 l 1
 26 -236 l 1
 35 -197 l 1
 535 -197 l 1
EndSplineSet
Validated: 1
EndChar

StartChar: grave
Encoding: 96 96 65
Width: 260
Flags: W
HStem: 615 184
VStem: 152 184
LayerCount: 2
Fore
SplineSet
248 799 m 1
 336 615 l 1
 279 615 l 1
 152 799 l 1
 248 799 l 1
EndSplineSet
Validated: 1
EndChar

StartChar: a
Encoding: 97 97 66
Width: 595
Flags: W
HStem: -14 48<235.962 381.185> 0 52<498 566> 485 48<323.135 473.315> 499 20G<502.789 597>
VStem: 94.9626 98.9183<83.8731 300.519>
LayerCount: 2
Fore
SplineSet
307 34 m 0xa8
 403 34 415 87 447 236 c 1
 490 445 l 1
 472 472 443 485 403 485 c 0
 307 485 236 408 205 260 c 0
 197.536507908 225.248114948 193.880886905 194.412897302 193.880886905 167.557784595 c 0
 193.880886905 79.2706025059 233.390476275 34 307 34 c 0xa8
297 -14 m 0
 222 -14 166 11 130 61 c 0
 106.739586182 94.2291625973 94.9626157317 134.525059575 94.9626157317 182.181218015 c 0
 94.9626157317 206.233394536 97.962498535 232.160409912 104 260 c 0
 121 343 158 409 214 458 c 0
 270 508 337 533 413 533 c 0xa8
 449 533 490 516 499 481 c 1
 507 519 l 1
 597 519 l 1
 498 52 l 1
 577 52 l 1
 566 0 l 1
 397 0 l 1x58
 365 -11 332 -14 297 -14 c 0
EndSplineSet
Validated: 1
Substitution2: "sous-table Substitution simple lookups10" ordfeminine
Substitution2: "sous-table 'aalt' Activer toutes les variantes dans Latin lookup 0" ordfeminine
EndChar

StartChar: b
Encoding: 98 98 67
Width: 612
Flags: W
HStem: -14 56<245.504 393.834> 0 21G<78 171.444> 477 56<345.951 477.247> 708 52<153 228>
VStem: 513.916 103.458<220.456 439.851>
LayerCount: 2
Fore
SplineSet
78 0 m 1x78
 228 708 l 1
 142 708 l 1
 153 760 l 1
 329 760 l 1
 261 438 l 1
 309 503 369 533 449 533 c 0
 513 533 559 508 589 457 c 0
 608.000713267 425.332144555 617.374037077 387.246029471 617.374037077 342.995720397 c 0
 617.374037077 317.379743214 614.232929149 289.698074179 608 260 c 0
 591 179 557 113 505 62 c 0
 454 11 397 -14 333 -14 c 0xb8
 253 -14 206 16 185 81 c 1
 167 0 l 1
 78 0 l 1x78
217 234 m 2
 211.335817665 206.76835416 208.519235465 182.28938845 208.519235465 160.656156677 c 0
 208.519235465 82.98749581 244.824638172 42 316 42 c 0
 408 42 472 116 503 260 c 0
 510.286610046 294.975728222 513.91558617 325.762875662 513.91558617 352.332784522 c 0
 513.91558617 435.154933252 478.654395858 477 409 477 c 0
 318 477 254 409 228 285 c 2
 217 234 l 2
EndSplineSet
Validated: 1
EndChar

StartChar: c
Encoding: 99 99 68
Width: 553
Flags: W
HStem: -14 48<237.387 392.403> 485 48<324.137 484.475>
VStem: 94.9626 102.358<84.0962 300.635> 519 52<354 372.339>
LayerCount: 2
Fore
SplineSet
546 156 m 1
 497 45 412 -14 297 -14 c 0
 222 -14 166 11 130 61 c 0
 106.739586182 94.2291625973 94.9626157317 134.525059575 94.9626157317 182.181218015 c 0
 94.9626157317 206.233394536 97.962498535 232.160409912 104 260 c 0
 121 343 158 409 215 458 c 1
 271 508 338 533 413 533 c 0
 478 533 541 518 599 487 c 1
 571 354 l 1
 519 354 l 1
 519.426050333 360.461763383 519.640328632 366.66637501 519.640328632 372.617773299 c 0
 519.640328632 450.478983454 482.96428695 485 404 485 c 0
 307 485 240 409 209 260 c 0
 201.199205209 223.189999579 197.320537721 190.896388174 197.320537721 163.10467918 c 0
 197.320537721 76.890737261 234.646159211 34 308 34 c 0
 385 34 439 75 474 156 c 1
 546 156 l 1
EndSplineSet
Validated: 1
EndChar

StartChar: d
Encoding: 100 100 69
Width: 637
Flags: W
HStem: -14 56<234.389 365.367> 0 52<535 610> 477 56<317.555 465.835> 708 52<510 584>
VStem: 94.5761 102.938<79.2125 299.529>
LayerCount: 2
Fore
SplineSet
499 708 m 1xb8
 510 760 l 1
 685 760 l 1
 535 52 l 1
 621 52 l 1
 610 0 l 1
 434 0 l 1x78
 451 81 l 1
 402 16 343 -14 263 -14 c 0
 199 -14 152 11 122 62 c 0
 103.717391304 94.152173913 94.5760869565 132.266068053 94.5760869565 176.34168242 c 0
 94.5760869565 202.179111531 97.7173913043 230.065217391 104 260 c 0
 121 341 155 407 206 457 c 0
 257 508 315 533 379 533 c 0
 459 533 505 503 527 438 c 1
 584 708 l 1
 499 708 l 1xb8
483 234 m 2
 494 285 l 2
 499.664182335 312.013792674 502.480764535 336.369825221 502.480764535 357.944025901 c 0
 502.480764535 435.400750521 466.175361828 477 395 477 c 0
 303 477 239 404 209 260 c 0
 201.327806539 224.361423924 197.514448466 193.010442724 197.514448466 166.007692818 c 0
 197.514448466 83.9040637744 232.76909027 42 302 42 c 0xb8
 393 42 457 109 483 234 c 2
EndSplineSet
Validated: 1
EndChar

StartChar: e
Encoding: 101 101 70
Width: 573
Flags: W
HStem: -14 48<242.959 402.224> 485.15 48.2424<320.765 457.711>
VStem: 92.9626 100.55<83.8844 306.504> 493.284 101.172<323.672 449.38>
LayerCount: 2
Fore
SplineSet
593 374 m 2
 592 368 l 1
 561 224 319 172 194 146 c 1
 193.677089389 143.933372089 193.512671097 141.666543353 193.512671097 139.233992178 c 0
 193.512671097 104.000528486 228.006137367 34 315 34 c 0
 394 34 454 76 491 157 c 1
 563 157 l 1
 511 44 421 -14 296 -14 c 0
 220 -14 164 11 128 61 c 0
 104.739586182 94.2291625973 92.9626157317 134.525059575 92.9626157317 182.181218015 c 0
 92.9626157317 206.233394536 95.962498535 232.160409912 102 260 c 0
 119 342 156 408 212 458 c 0
 267 508 333 533 406 533 c 1
 410.703051047 533.263370859 415.335322288 533.392260087 419.894789808 533.392260087 c 0
 527.420521773 533.392260087 594.456032915 461.709752855 594.456032915 391.693566909 c 0
 594.456032915 385.768966824 593.976049637 379.856297823 593 374 c 2
190 200 m 1
 352 238 465 272 491 356 c 1
 492.556475327 365.338851962 493.283877813 374.160879296 493.283877813 382.469433772 c 0
 493.283877813 451.56566911 442.976392475 485.149889074 400.837882563 485.149889074 c 0
 399.211973407 485.149889074 397.598226162 485.099889135 396 485 c 1
 318 483 263 427 229 361 c 1
 203.697505292 309.457881151 189.811761064 251.768281275 189.811761064 208.506148276 c 0
 189.811761064 205.603758588 189.874258867 202.766304921 190 200 c 1
EndSplineSet
Validated: 1
EndChar

StartChar: f
Encoding: 102 102 71
Width: 361
Flags: W
HStem: -208 52<-11 75> 467 52<133 208 309 443> 637 99<508.103 552> 712 48<372.276 497.066>
VStem: 505 47<637 657.145>
LayerCount: 2
Fore
SplineSet
552 637 m 1xe8
 505 637 l 1xe8
 506.34664177 644.331716305 507.021637593 651.14850405 507.021637593 657.440313608 c 0
 507.021637593 693.198503741 485.219403105 712 441 712 c 0
 374 712 343 681 323 586 c 2
 309 519 l 1
 454 519 l 1
 443 467 l 1
 298 467 l 1
 154 -208 l 1
 -22 -208 l 1
 -11 -156 l 1
 75 -156 l 1
 208 467 l 1
 122 467 l 1
 133 519 l 1
 219 519 l 1
 233 584 l 2
 257 700 331 760 448 760 c 0xd8
 492 760 533 752 573 736 c 1
 552 637 l 1xe8
EndSplineSet
Validated: 1
EndChar

StartChar: g
Encoding: 103 103 72
Width: 638
Flags: W
HStem: -222 48<158.947 338.167> -14 56<235.389 366.367> 467 52<624 710> 477 56<318.555 466.835>
VStem: 95.5761 102.938<79.2125 299.529>
LayerCount: 2
Fore
SplineSet
624 467 m 1xe8
 527 11 l 2
 495 -138 392 -222 240 -222 c 0
 172 -222 112 -210 60 -185 c 1
 83 -76 l 1
 130 -76 l 1
 129.947495376 -77.7851572167 129.92117974 -79.5441254458 129.92117974 -81.2770494285 c 0
 129.92117974 -145.554463204 166.126437273 -174 245 -174 c 0
 350 -174 410 -116 437 11 c 2
 452 81 l 1
 403 16 344 -14 264 -14 c 0
 200 -14 153 11 123 62 c 0
 104.717391304 94.152173913 95.5760869565 132.266068053 95.5760869565 176.34168242 c 0
 95.5760869565 202.179111531 98.7173913043 230.065217391 105 260 c 0
 122 341 156 407 207 457 c 0
 258 508 316 533 380 533 c 0xd8
 460 533 506 503 528 438 c 1
 545 519 l 1
 721 519 l 1
 710 467 l 1
 624 467 l 1xe8
495 285 m 2
 500.664182335 312.013792674 503.480764535 336.369825221 503.480764535 357.944025901 c 0
 503.480764535 435.400750521 467.175361828 477 396 477 c 0
 304 477 240 404 210 260 c 0
 202.327806539 224.361423924 198.514448466 193.010442724 198.514448466 166.007692818 c 0
 198.514448466 83.9040637744 233.76909027 42 303 42 c 0
 394 42 458 109 484 234 c 2
 495 285 l 2
EndSplineSet
Validated: 1
EndChar

StartChar: h
Encoding: 104 104 73
Width: 627
Flags: W
HStem: 0 52<35 119 207 274 363 441 531 600> 467 66<378.718 487.318> 708 52<181 256>
VStem: 504.562 94.7527<272.141 449.581>
LayerCount: 2
Fore
SplineSet
24 0 m 1
 35 52 l 1
 119 52 l 1
 256 708 l 1
 170 708 l 1
 181 760 l 1
 357 760 l 1
 286 427 l 1
 334 496 395 533 466 533 c 0
 556.501415096 533 599.315195232 493.982844124 599.315195232 409.125135619 c 0
 599.315195232 386.154292849 596.177904019 359.824364231 590 330 c 2
 531 52 l 1
 611 52 l 1
 600 0 l 1
 352 0 l 1
 363 52 l 1
 441 52 l 1
 494 302 l 2
 501.041666667 336.125 504.5625 364.675347222 504.5625 387.333188657 c 0
 504.5625 406.505208333 502.041666667 421.458333333 497 432 c 0
 487 455 462 467 423 467 c 0
 339 467 282 405 257 289 c 2
 207 52 l 1
 285 52 l 1
 274 0 l 1
 24 0 l 1
EndSplineSet
Validated: 1
EndChar

StartChar: i
Encoding: 105 105 74
Width: 322
Flags: W
HStem: 0 52<45 131 221 295> 467 52<144 219> 625 111<258.686 331.217>
VStem: 237.602 113.753<645.09 715.139>
LayerCount: 2
Fore
SplineSet
239 680 m 0
 246 711 276 736 307 736 c 0
 332.196874867 736 351.35443936 717.127155081 351.35443936 691.843806656 c 0
 351.35443936 688.027629517 350.917995722 684.065409625 350 680 c 0
 343 649 314 625 283 625 c 0
 256.1859984 625 237.601858923 642.956062813 237.601858923 667.866768749 c 0
 237.601858923 671.755639077 238.054774555 675.8140016 239 680 c 0
221 52 m 1
 306 52 l 1
 295 0 l 1
 34 0 l 1
 45 52 l 1
 131 52 l 1
 219 467 l 1
 133 467 l 1
 144 519 l 1
 320 519 l 1
 221 52 l 1
EndSplineSet
Validated: 1
EndChar

StartChar: j
Encoding: 106 106 75
Width: 267
Flags: W
HStem: -222 48<-83.3678 33.7418> 467 52<121 195> 625 111<237.686 310.217>
VStem: -140 46<-107.883 -83> 216.602 113.753<645.09 715.139>
LayerCount: 2
Fore
SplineSet
218 680 m 0
 225 711 255 736 286 736 c 0
 311.196874867 736 330.35443936 717.127155081 330.35443936 691.843806656 c 0
 330.35443936 688.027629517 329.917995722 684.065409625 329 680 c 0
 322 649 293 625 262 625 c 0
 235.1859984 625 216.601858923 642.956062813 216.601858923 667.866768749 c 0
 216.601858923 671.755639077 217.054774555 675.8140016 218 680 c 0
195 467 m 1
 110 467 l 1
 121 519 l 1
 296 519 l 1
 175 -51 l 2
 152 -158 71 -222 -41 -222 c 0
 -88 -222 -127 -211 -163 -190 c 1
 -140 -83 l 1
 -94 -83 l 1
 -95.3064516129 -92.1451612903 -95.9596774194 -100.552809573 -95.9596774194 -108.244356517 c 0
 -95.9596774194 -153.539021852 -73.3064516129 -174 -28 -174 c 0
 32 -174 67 -135 85 -51 c 2
 195 467 l 1
EndSplineSet
Validated: 1
EndChar

StartChar: k
Encoding: 107 107 76
Width: 626
Flags: W
HStem: 0 52<36 117 207 277 359 433 540 604> 467 52<450 514 585 674> 708 52<181 256>
LayerCount: 2
Fore
SplineSet
277 0 m 1
 25 0 l 1
 36 52 l 1
 117 52 l 1
 256 708 l 1
 170 708 l 1
 181 760 l 1
 357 760 l 1
 252 265 l 1
 514 467 l 1
 439 467 l 1
 450 519 l 1
 685 519 l 1
 674 467 l 1
 585 467 l 1
 400 324 l 1
 540 52 l 1
 615 52 l 1
 604 0 l 1
 348 0 l 1
 359 52 l 1
 433 52 l 1
 323 265 l 1
 238 199 l 1
 207 52 l 1
 288 52 l 1
 277 0 l 1
EndSplineSet
Validated: 1
EndChar

StartChar: l
Encoding: 108 108 77
Width: 311
Flags: W
HStem: 0 52<34 120 210 284> 708 52<184 259>
LayerCount: 2
Fore
SplineSet
210 52 m 1
 295 52 l 1
 284 0 l 1
 23 0 l 1
 34 52 l 1
 120 52 l 1
 259 708 l 1
 173 708 l 1
 184 760 l 1
 360 760 l 1
 210 52 l 1
EndSplineSet
Validated: 1
EndChar

StartChar: m
Encoding: 109 109 78
Width: 944
Flags: W
HStem: 0 52<48 129 219 286 365 443 533 600 679 757 847 917> 467 66<388.658 491.483 701.799 806.018> 468 51<142 217>
VStem: 822.471 92.7853<273.734 450.453>
LayerCount: 2
Fore
SplineSet
602 418 m 1xd0
 654 494 716 533 787 533 c 0
 872.829783987 533 915.256434622 491.457000935 915.256434622 407.39452009 c 0
 915.256434622 384.701397152 912.164552884 358.909627319 906 330 c 2
 847 52 l 1
 928 52 l 1
 917 0 l 1
 668 0 l 1
 679 52 l 1
 757 52 l 1
 814 320 l 2
 819.592652786 346.692206478 822.471119337 369.313133603 822.471119337 388.20777004 c 0
 822.471119337 443.639578947 797.696772701 467 744 467 c 0
 664 467 608 405 583 289 c 2
 533 52 l 1
 611 52 l 1
 600 0 l 1
 354 0 l 1
 365 52 l 1
 443 52 l 1
 500 323 l 2
 505.592652786 349.437994987 508.471119337 371.740087141 508.471119337 390.300549219 c 0
 508.471119337 444.75197995 483.696772701 467 430 467 c 0xd0
 350 467 294 405 269 289 c 2
 219 52 l 1
 297 52 l 1
 286 0 l 1
 37 0 l 1
 48 52 l 1
 129 52 l 1
 217 468 l 1
 131 468 l 1
 142 519 l 1
 318 519 l 1xb0
 298 427 l 1
 346 496 407 533 472 533 c 0
 552 533 599 491 602 418 c 1xd0
EndSplineSet
Validated: 1
EndChar

StartChar: n
Encoding: 110 110 79
Width: 640
Flags: W
HStem: 0 52<49 130 220 287 376 454 544 613> 467 52<143 218> 468 65<391.718 500.764>
VStem: 518.554 93.7614<272.141 451.914>
LayerCount: 2
Fore
SplineSet
38 0 m 1xb0
 49 52 l 1
 130 52 l 1
 218 467 l 1
 132 467 l 1
 143 519 l 1
 319 519 l 1xd0
 299 427 l 1
 347 496 408 533 479 533 c 0
 569.501415096 533 612.315195232 493.982844124 612.315195232 409.125135619 c 0
 612.315195232 386.154292849 609.177904019 359.824364231 603 330 c 2
 544 52 l 1
 624 52 l 1
 613 0 l 1
 365 0 l 1
 376 52 l 1
 454 52 l 1
 507 302 l 2
 514.598501917 337.741101608 518.553776613 366.512551142 518.553776613 389.406514773 c 0
 518.553776613 447.862404681 492.767346244 468 436 468 c 0
 352 468 295 405 270 289 c 2
 220 52 l 1
 298 52 l 1
 287 0 l 1
 38 0 l 1xb0
EndSplineSet
Validated: 1
EndChar

StartChar: o
Encoding: 111 111 80
Width: 608
Flags: W
HStem: -14 48<237.237 384.535> 485 48<325.158 472.927>
VStem: 94.9626 102.343<84.4189 300.519> 512.276 102.061<219.35 434.565>
LayerCount: 2
Fore
SplineSet
307 34 m 0
 403 34 469 111 501 260 c 0
 508.522071967 295.911827457 512.275964676 327.643331049 512.275964676 355.108791475 c 0
 512.275964676 440.834121683 475.705841649 485 403 485 c 0
 307 485 240 408 209 260 c 0
 201.184582624 223.609462844 197.306010383 191.513665836 197.306010383 163.785450091 c 0
 197.306010383 77.9812898699 234.446252127 34 307 34 c 0
297 -14 m 0
 222 -14 166 11 130 61 c 0
 106.739586182 94.2291625973 94.9626157317 134.525059575 94.9626157317 182.181218015 c 0
 94.9626157317 206.233394536 97.962498535 232.160409912 104 260 c 0
 121 343 158 409 214 458 c 0
 270 508 337 533 413 533 c 0
 489 533 544 508 579 458 c 0
 602.557692308 425.019230769 614.336538462 384.336908284 614.336538462 335.953032544 c 0
 614.336538462 312.452292899 611.557692308 287.134615385 606 260 c 0
 588 177 551 111 494 61 c 1
 439 11 373 -14 297 -14 c 0
EndSplineSet
Validated: 1
Substitution2: "sous-table Substitution simple lookups10" ordmasculine
Substitution2: "sous-table 'aalt' Activer toutes les variantes dans Latin lookup 0" ordmasculine
EndChar

StartChar: p
Encoding: 112 112 81
Width: 643
Flags: W
HStem: -208 52<-11 75 165 239> -14 56<276.504 424.834> 467 52<133 208> 477 56<376.951 508.247>
VStem: 544.916 103.458<220.456 439.851>
LayerCount: 2
Fore
SplineSet
259 285 m 2xd8
 248 234 l 2
 242.335817665 206.76835416 239.519235465 182.28938845 239.519235465 160.656156677 c 0
 239.519235465 82.98749581 275.824638172 42 347 42 c 0
 439 42 503 116 534 260 c 0
 541.286610046 294.975728222 544.91558617 325.762875662 544.91558617 352.332784522 c 0
 544.91558617 435.154933252 509.654395858 477 440 477 c 0
 349 477 285 409 259 285 c 2xd8
208 467 m 1xe8
 122 467 l 1
 133 519 l 1
 309 519 l 1xe8
 292 438 l 1
 340 503 400 533 480 533 c 0xd8
 544 533 590 508 620 457 c 0
 639.000713267 425.332144555 648.374037077 387.246029471 648.374037077 342.995720397 c 0
 648.374037077 317.379743214 645.232929149 289.698074179 639 260 c 0
 622 179 588 113 536 62 c 0
 485 11 428 -14 364 -14 c 0
 284 -14 237 16 216 81 c 1
 165 -156 l 1
 250 -156 l 1
 239 -208 l 1
 -22 -208 l 1
 -11 -156 l 1
 75 -156 l 1
 208 467 l 1xe8
EndSplineSet
Validated: 1
EndChar

StartChar: q
Encoding: 113 113 82
Width: 637
Flags: W
HStem: -208 52<315 400 490 565> -14 56<234.389 365.367> 467 52<623 709> 477 56<317.555 465.835>
VStem: 94.5761 102.938<79.2125 299.529>
LayerCount: 2
Fore
SplineSet
623 467 m 1xe8
 490 -156 l 1
 576 -156 l 1
 565 -208 l 1
 304 -208 l 1
 315 -156 l 1
 400 -156 l 1
 451 81 l 1
 402 16 343 -14 263 -14 c 0
 199 -14 152 11 122 62 c 0
 103.717391304 94.152173913 94.5760869565 132.266068053 94.5760869565 176.34168242 c 0
 94.5760869565 202.179111531 97.7173913043 230.065217391 104 260 c 0
 121 341 155 407 206 457 c 0
 257 508 315 533 379 533 c 0xd8
 459 533 505 503 527 438 c 1
 544 519 l 1
 720 519 l 1
 709 467 l 1
 623 467 l 1xe8
494 285 m 2
 499.664182335 312.013792674 502.480764535 336.369825221 502.480764535 357.944025901 c 0
 502.480764535 435.400750521 466.175361828 477 395 477 c 0
 303 477 239 404 209 260 c 0
 201.327806539 224.361423924 197.514448466 193.010442724 197.514448466 166.007692818 c 0
 197.514448466 83.9040637744 232.76909027 42 302 42 c 0
 393 42 457 109 483 234 c 2
 494 285 l 2
EndSplineSet
Validated: 1
EndChar

StartChar: r
Encoding: 114 114 83
Width: 506
Flags: W
HStem: 0 52<48 129 219 312> 467 66<392.851 497.04> 468 51<142 217>
VStem: 504 52<390 410.877>
LayerCount: 2
Fore
SplineSet
584 520 m 1xd0
 556 390 l 1
 504 390 l 1
 505.175587915 397.641321446 505.768141649 404.699608711 505.768141649 411.181208167 c 0
 505.768141649 448.807578004 485.799524022 467 444 467 c 0xd0
 356 467 293 404 269 289 c 2
 219 52 l 1
 323 52 l 1
 312 0 l 1
 37 0 l 1
 48 52 l 1
 129 52 l 1
 217 468 l 1
 131 468 l 1
 142 519 l 1
 318 519 l 1xb0
 298 427 l 1
 349 499 410 533 490 533 c 0
 519 533 550 528 584 520 c 1xd0
EndSplineSet
Validated: 1
EndChar

StartChar: s
Encoding: 115 115 84
Width: 513
Flags: W
HStem: -14 48<166.979 347.141> 485 48<266.772 434.397>
VStem: 86 52<122.815 150> 132.694 91.8031<344.652 430.019> 396.925 97.7458<96.2275 180.754> 461 52<378 399.848>
LayerCount: 2
Fore
SplineSet
61 29 m 1xd8
 86 150 l 1
 138 150 l 1
 136.343137255 140.18627451 135.514705882 130.989811611 135.514705882 122.412681586 c 0
 135.514705882 63.6923298731 174.343137255 34 252 34 c 0
 333 34 383 66 395 123 c 0
 396.300759238 128.983492494 396.924728638 134.628590069 396.924728638 139.952899538 c 0xe8
 396.924728638 155.094750577 391.878177829 167.642125866 383 178 c 0
 371 192 341 207 295 223 c 2
 235 245 l 1
 164.996418133 269.459082821 132.694473388 301.743033724 132.694473388 351.451305824 c 0
 132.694473388 360.679826303 133.807833086 370.508915483 136 381 c 0
 157 476 243 533 366 533 c 0
 421 533 479 519 537 491 c 1
 513 378 l 1
 461 378 l 1xd4
 462.274255244 385.761372851 462.904387608 393.160426582 462.904387608 400.176952669 c 0
 462.904387608 453.7305418 426.196054677 485 359 485 c 0
 283 485 238 458 227 405 c 0
 225.382480819 397.882915605 224.497544763 391.367595919 224.497544763 385.327080164 c 0
 224.497544763 354.02327366 248.263657282 335.470946294 317 312 c 2
 383 290 l 2
 460.984848949 264.00505035 494.670575464 229.572172618 494.670575464 176.677603991 c 0
 494.670575464 166.493318859 493.421798557 155.624633072 491 144 c 0
 470 45 378 -14 246 -14 c 0
 179 -14 119 0 61 29 c 1xd8
EndSplineSet
Validated: 1
EndChar

StartChar: t
Encoding: 116 116 85
Width: 413
Flags: W
HStem: -14 48<211.043 309.517> 467 52<128 196 297 455>
VStem: 118.207 88.6489<45.7891 193.719> 340 68<67.3496 122>
LayerCount: 2
Fore
SplineSet
196 467 m 1
 117 467 l 1
 128 519 l 1
 207 519 l 1
 241 680 l 1
 331 680 l 1
 297 519 l 1
 466 519 l 1
 455 467 l 1
 286 467 l 1
 216 137 l 2
 209.97674733 110.49768825 206.855860478 89.8001081373 206.855860478 74.6887386283 c 0
 206.855860478 64.7117209554 208.216276869 57.1697715284 211 52 c 0
 217 40 231 34 254 34 c 0
 301 34 326 61 340 122 c 1
 408 122 l 1
 383 27 331 -14 236 -14 c 0
 154.231087514 -14 118.206948848 11.9632500058 118.206948848 76.0405439597 c 0
 118.206948848 93.4616871087 120.869749035 113.700110202 126 137 c 2
 196 467 l 1
EndSplineSet
Validated: 1
EndChar

StartChar: u
Encoding: 117 117 86
Width: 618
Flags: W
HStem: -14 66<232.49 342.96> 0 52<517 591> 467 52<121 191 448 515>
VStem: 122.298 94.0608<69.235 245.391>
LayerCount: 2
Fore
SplineSet
448 519 m 1xb0
 616 519 l 1
 517 52 l 1
 602 52 l 1
 591 0 l 1
 416 0 l 1x70
 435 92 l 1
 387 23 326 -14 257 -14 c 0
 165.907358078 -14 122.298065201 24.8500128552 122.298065201 109.32963686 c 0
 122.298065201 132.428804926 125.558441876 158.939395423 132 189 c 2
 191 467 l 1
 110 467 l 1
 121 519 l 1
 292 519 l 1
 228 217 l 2
 220.120394609 181.541775742 216.358882864 152.102303734 216.358882864 129.038165877 c 0
 216.358882864 111.123356949 218.628289565 97.0549340009 223 87 c 0
 234 64 260 52 299 52 c 0
 383 52 440 115 465 231 c 2
 515 467 l 1
 437 467 l 1
 448 519 l 1xb0
EndSplineSet
Validated: 1
EndChar

StartChar: v
Encoding: 118 118 87
Width: 595
Flags: W
HStem: 0 21G<258.06 340.42> 467 52<122 170 267 350 492 559 618 676>
LayerCount: 2
Fore
SplineSet
262 0 m 1
 170 467 l 1
 111 467 l 1
 122 519 l 1
 361 519 l 1
 350 467 l 1
 267 467 l 1
 337 110 l 1
 559 467 l 1
 481 467 l 1
 492 519 l 1
 687 519 l 1
 676 467 l 1
 618 467 l 1
 328 0 l 1
 262 0 l 1
EndSplineSet
Validated: 1
EndChar

StartChar: w
Encoding: 119 119 88
Width: 861
Flags: W
HStem: 0 21G<223.645 308.825 551.629 639.835> 467 52<124 171 264 348 763 827 882 940>
LayerCount: 2
Fore
SplineSet
588 519 m 1
 635 114 l 1
 827 467 l 1
 752 467 l 1
 763 519 l 1
 951 519 l 1
 940 467 l 1
 882 467 l 1
 629 0 l 1
 554 0 l 1
 508 388 l 1
 298 0 l 1
 226 0 l 1
 171 467 l 1
 113 467 l 1
 124 519 l 1
 359 519 l 1
 348 467 l 1
 264 467 l 1
 305 114 l 1
 525 519 l 1
 588 519 l 1
EndSplineSet
Validated: 1
EndChar

StartChar: x
Encoding: 120 120 89
Width: 582
Flags: W
HStem: 0 52<172 228 332 398 504 561> 467 52<131 184 290 352 449 508>
LayerCount: 2
Fore
SplineSet
367 317 m 1
 508 467 l 1
 438 467 l 1
 449 519 l 1
 649 519 l 1
 611 502 588 486 569 467 c 2
 389 275 l 1
 504 52 l 1
 572 52 l 1
 561 0 l 1
 321 0 l 1
 332 52 l 1
 398 52 l 1
 317 207 l 1
 172 52 l 1
 239 52 l 1
 228 0 l 1
 31 0 l 1
 61 14 84 26 111 52 c 1
 295 249 l 1
 184 467 l 1
 120 467 l 1
 131 519 l 1
 363 519 l 1
 352 467 l 1
 290 467 l 1
 367 317 l 1
EndSplineSet
Validated: 1
EndChar

StartChar: y
Encoding: 121 121 90
Width: 598
Flags: W
HStem: -222 52<75.7276 172.586> -207 99<27 70.6027> 467 52<125 173 270 353 495 562 621 679>
VStem: 27 46<-126.198 -108>
LayerCount: 2
Fore
SplineSet
213 -95 m 2xb0
 266 -9 l 1
 173 467 l 1
 114 467 l 1
 125 519 l 1
 364 519 l 1
 353 467 l 1
 270 467 l 1
 340 110 l 1
 562 467 l 1
 484 467 l 1
 495 519 l 1
 690 519 l 1
 679 467 l 1
 621 467 l 1
 259 -117 l 2
 209 -198 170 -222 98 -222 c 0xb0
 67 -222 37 -216 6 -207 c 1
 27 -108 l 1
 73 -108 l 1x70
 72.0786915144 -114.756262228 71.6053657284 -120.899495498 71.6053657284 -126.458663338 c 0
 71.6053657284 -157.103446251 85.9885051565 -170 119 -170 c 0
 155 -170 177 -155 213 -95 c 2xb0
EndSplineSet
Validated: 1
EndChar

StartChar: z
Encoding: 122 122 91
Width: 543
Flags: W
HStem: 0 52<169 451> 467 52<209 466>
LayerCount: 2
Fore
SplineSet
42 0 m 1
 50 42 l 1
 466 467 l 1
 209 467 l 1
 190 377 l 1
 138 377 l 1
 168 519 l 1
 593 519 l 1
 584 477 l 1
 169 52 l 1
 451 52 l 1
 471 146 l 1
 523 146 l 1
 492 0 l 1
 42 0 l 1
EndSplineSet
Validated: 1
EndChar

StartChar: braceleft
Encoding: 123 123 92
Width: 407
Flags: W
HStem: -163 51<246.706 353> 273 51<70 171.327> 709 51<412.459 538>
VStem: 148.056 88.5646<-100.357 70.0781> 191.208 89.9213<74.2344 254.042>
CounterMasks: 1 e0
LayerCount: 2
Fore
SplineSet
364 -112 m 1xf0
 353 -163 l 1
 323 -163 l 2
 242 -163 189 -151 168 -127 c 0
 154.77634477 -112.574194294 148.055935485 -89.4773939944 148.055935485 -57.7095991005 c 0xf0
 148.055935485 -36.625782583 151.016128566 -11.7225828828 157 17 c 2
 184 143 l 2
 188.711112296 164.760852035 191.20779947 183.300722073 191.20779947 198.96961506 c 0
 191.20779947 253.145534089 161.360841369 273 90 273 c 2
 60 273 l 1
 70 324 l 1
 100 324 l 2
 192 324 229 357 250 454 c 2
 277 580 l 2
 292 652 316 700 348 724 c 0
 380 748 438 760 519 760 c 2
 549 760 l 1
 538 709 l 1
 505 709 l 2
 459 709 428 702 411 687 c 0
 394 673 380 643 370 597 c 2
 341 457 l 2
 319 354 283 318 195 299 c 1
 236 288 261 271 272 249 c 1
 278.130496483 238.271631155 281.129077372 223.36737485 281.129077372 204.553900498 c 0xe8
 281.129077372 186.541370161 278.380378224 164.945389947 273 140 c 2
 244 0 l 2
 239.119115183 -22.4520701583 236.620534026 -41.092454461 236.620534026 -55.9211529083 c 0
 236.620534026 -71.4736230466 239.368973299 -82.8332387438 245 -90 c 0
 256 -105 285 -112 331 -112 c 2
 364 -112 l 1xf0
EndSplineSet
Validated: 1
EndChar

StartChar: bar
Encoding: 124 124 93
Width: 238
Flags: W
HStem: 744 20G<235.74 319>
VStem: 27 292
LayerCount: 2
Fore
SplineSet
319 764 m 1
 106 -236 l 1
 27 -236 l 1
 240 764 l 1
 319 764 l 1
EndSplineSet
Validated: 1
EndChar

StartChar: braceright
Encoding: 125 125 94
Width: 400
Flags: W
HStem: -163 51<-20 105.631> 273 51<346.673 448> 709 51<165 271.751>
VStem: 236.75 90.0422<342.963 522.766> 281.379 88.5646<526.922 698.075>
CounterMasks: 1 e0
LayerCount: 2
Fore
SplineSet
-20 -112 m 1xf0
 14 -112 l 2
 60 -112 91 -105 107 -90 c 1
 124 -76 138 -46 148 0 c 2
 177 140 l 2
 188 191 204 228 224 249 c 0
 245 271 278 288 323 299 c 1
 282 308 256 324 245 346 c 0
 239.5 357.5 236.75 372.5 236.75 391 c 0xf0
 236.75 409.5 239.5 431.5 245 457 c 2
 274 597 l 2
 278.880884817 619.94015864 281.379465974 638.830401058 281.379465974 653.787004753 c 0
 281.379465974 669.473623047 278.631026701 680.833238744 273 688 c 0
 263 702 234 709 188 709 c 2
 154 709 l 1
 165 760 l 1
 196 760 l 2
 277 760 328 748 350 724 c 0
 363.22365523 709.574194294 369.944064515 686.477393994 369.944064515 654.7095991 c 0xe8
 369.944064515 633.625782583 366.983871434 608.722582883 361 580 c 2
 334 454 l 2
 329.288887704 432.239147965 326.79220053 413.699277927 326.79220053 398.03038494 c 0
 326.79220053 343.854465911 356.639158631 324 428 324 c 2
 458 324 l 1
 448 273 l 1
 418 273 l 2
 326 273 289 240 268 143 c 2
 241 17 l 2
 226 -55 202 -103 170 -127 c 0
 137 -151 81 -163 0 -163 c 2
 -31 -163 l 1
 -20 -112 l 1xf0
EndSplineSet
Validated: 1
EndChar

StartChar: asciitilde
Encoding: 126 126 95
Width: 740
Flags: W
HStem: 238 83<474.558 640.608> 306 83<218.16 385.299>
LayerCount: 2
Fore
SplineSet
760 394 m 1x80
 745 322 l 1
 668 265 605 238 545 238 c 0x80
 514 238 472 249 420 270 c 2
 415 272 l 2
 413 273 407 275 401 278 c 0
 357 297 320 306 289 306 c 0
 229 306 168 284 100 233 c 1
 116 307 l 1
 193 364 254 389 315 389 c 0x40
 346 389 388 378 440 357 c 2
 445 355 l 2
 448 354 452 352 459 349 c 0
 502 330 540 321 571 321 c 0
 631 321 693 345 760 394 c 1x80
EndSplineSet
Validated: 1
EndChar

StartChar: Euro
Encoding: 8364 8364 96
Width: 608
Flags: W
HStem: -14 48<305.86 444.313> 263 51<99 159 267 416> 415 51<132 187 304 516> 694 48<434.918 573.577>
VStem: 158.756 97.6149<114.146 263> 203 101<466 512.367> 614 52<511 543.472>
LayerCount: 2
Fore
SplineSet
611 193 m 1xfa
 554 60 461 -14 349 -14 c 0
 230.015640352 -14 158.75559625 84.255943769 158.75559625 246.369458799 c 0xfa
 158.75559625 251.8406785 158.836762587 257.384633003 159 263 c 1
 66 263 l 1
 99 314 l 1
 165 314 l 1
 165 319 167 325 168 333 c 0
 171 349 173 359 174 364 c 0
 178 385 183 400 187 415 c 1
 99 415 l 1
 132 466 l 1
 203 466 l 1
 270 638 385 742 509 742 c 0
 573 742 630 723 702 678 c 1
 666 511 l 1
 614 511 l 1
 615.480571904 525.435576063 616.215223218 539.094785797 616.215223218 551.949456013 c 0
 616.215223218 643.281581577 579.129520641 694 509 694 c 0
 421 694 348 615 304 466 c 1xf6
 550 466 l 1
 516 415 l 1
 290 415 l 1
 289 410 287 404 285 397 c 0
 280 380 278 369 277 364 c 0
 275 357 271 330 267 314 c 1
 450 314 l 1
 416 263 l 1
 260 263 l 1
 257.57798804 240.445013624 256.370450778 219.471135816 256.370450778 200.116522466 c 0
 256.370450778 91.613049756 294.321065779 34 369 34 c 0
 445 34 508 90 546 193 c 1
 611 193 l 1xfa
EndSplineSet
Validated: 1
EndChar

StartChar: quotesinglbase
Encoding: 8218 8218 97
Width: 279
Flags: W
HStem: -136 247
VStem: 145 100<47.0468 111>
LayerCount: 2
Fore
SplineSet
16 -97 m 1
 86 -52 127 6 145 93 c 1
 149 111 l 1
 245 111 l 1
 216 -1 154 -77 47 -136 c 1
 16 -97 l 1
EndSplineSet
Validated: 1
EndChar

StartChar: florin
Encoding: 402 402 98
Width: 617
Flags: W
HStem: -211 48<45.2974 150.846> -189 108<-10 35.6409> 349 52<229 341 452 590> 612 108<683.36 729> 694 48<567.224 673.452>
VStem: -10 48<-104.206 -81> 681 48<612 633.856>
LayerCount: 2
Fore
SplineSet
409 554 m 2xa6
 450 675 531 742 639 742 c 0xae
 672 742 710 735 752 720 c 1
 729 612 l 1
 681 612 l 1x36
 682 620 682.510204082 627.387755102 682.510204082 634.174927114 c 0
 682.510204082 674.897959184 664.142857143 694 623 694 c 0
 571 694 536 654 499 543 c 2
 452 401 l 1
 601 401 l 1
 590 349 l 1
 434 349 l 1
 310 -23 l 2
 269 -144 187 -211 79 -211 c 0xae
 46 -211 11 -204 -33 -189 c 1
 -10 -81 l 1
 38 -81 l 1x66
 36.7799650383 -89.5402447321 36.1646272329 -97.3827619761 36.1646272329 -104.541739264 c 0
 36.1646272329 -144.325530095 55.1677054001 -163 95 -163 c 0
 147 -163 182 -123 219 -12 c 2
 341 349 l 1
 218 349 l 1
 229 401 l 1
 358 401 l 1
 409 554 l 2xa6
EndSplineSet
Validated: 1
EndChar

StartChar: quotedblbase
Encoding: 8222 8222 99
Width: 472
Flags: W
HStem: -136 247
VStem: 145 100<47.0468 111> 338 100<47.0468 111>
LayerCount: 2
Fore
SplineSet
16 -97 m 1
 86 -52 127 6 145 93 c 1
 149 111 l 1
 245 111 l 1
 216 -1 154 -77 47 -136 c 1
 16 -97 l 1
209 -97 m 1
 279 -52 320 6 338 93 c 1
 342 111 l 1
 438 111 l 1
 409 -1 348 -77 240 -136 c 1
 209 -97 l 1
EndSplineSet
Validated: 1
EndChar

StartChar: ellipsis
Encoding: 8230 8230 100
Width: 928
Flags: W
HStem: -14 130<96.5263 174.48 429.526 507.48 762.526 840.48>
VStem: 68.413 133.176<13.3281 88.6719> 401.413 133.176<13.3281 88.6719> 734.413 133.176<13.3281 88.6719>
LayerCount: 2
Fore
SplineSet
736 51 m 0
 744 87 779 116 815 116 c 0
 846.166423712 116 867.58940794 94.264634998 867.58940794 65.0689041263 c 0
 867.58940794 60.54096105 867.074128064 55.8335762882 866 51 c 0
 859 15 824 -14 788 -14 c 0
 755.956230023 -14 734.413004035 7.00108797775 734.413004035 36.6614428752 c 0
 734.413004035 41.2490285913 734.928382698 46.043769977 736 51 c 0
403 51 m 0
 411 87 446 116 482 116 c 0
 513.166423712 116 534.58940794 94.264634998 534.58940794 65.0689041263 c 0
 534.58940794 60.54096105 534.074128064 55.8335762882 533 51 c 0
 526 15 491 -14 455 -14 c 0
 422.956230023 -14 401.413004035 7.00108797775 401.413004035 36.6614428752 c 0
 401.413004035 41.2490285913 401.928382698 46.043769977 403 51 c 0
70 51 m 0
 78 87 113 116 149 116 c 0
 180.166423712 116 201.58940794 94.264634998 201.58940794 65.0689041263 c 0
 201.58940794 60.54096105 201.074128064 55.8335762882 200 51 c 0
 193 15 158 -14 122 -14 c 0
 89.956230023 -14 68.4130040348 7.00108797775 68.4130040348 36.6614428752 c 0
 68.4130040348 41.2490285913 68.9283826977 46.043769977 70 51 c 0
EndSplineSet
Validated: 1
EndChar

StartChar: dagger
Encoding: 8224 8224 101
Width: 468
Flags: W
HStem: 446 81<120.444 203 467 549.556> 709 20G<339.407 430>
LayerCount: 2
Fore
SplineSet
342 729 m 1
 430 729 l 1
 368 513 l 1
 566 527 l 1
 548 446 l 1
 356 460 l 1
 255 -96 l 1
 167 -96 l 1
 302 460 l 1
 104 446 l 1
 122 527 l 1
 314 513 l 1
 342 729 l 1
EndSplineSet
Validated: 1
EndChar

StartChar: daggerdbl
Encoding: 8225 8225 102
Width: 499
Flags: W
HStem: 106 81<62.5309 146 409 492.469> 446 81<135.444 218 482 564.556> 709 20G<354.407 445>
LayerCount: 2
Fore
SplineSet
357 729 m 1
 445 729 l 1
 383 513 l 1
 581 527 l 1
 563 446 l 1
 371 460 l 1
 358 316 l 1
 310 173 l 1
 508 187 l 1
 491 106 l 1
 299 120 l 1
 270 -96 l 1
 182 -96 l 1
 245 120 l 1
 47 106 l 1
 64 187 l 1
 256 173 l 1
 270 316 l 1
 317 460 l 1
 119 446 l 1
 137 527 l 1
 329 513 l 1
 357 729 l 1
EndSplineSet
Validated: 1
EndChar

StartChar: circumflex
Encoding: 710 710 103
Width: 424
Flags: W
HStem: 616 184
VStem: 185 312
LayerCount: 2
Fore
SplineSet
340 800 m 1
 422 800 l 1
 497 616 l 1
 440 616 l 1
 368 743 l 1
 242 616 l 1
 185 616 l 1
 340 800 l 1
EndSplineSet
Validated: 1
EndChar

StartChar: perthousand
Encoding: 8240 8240 104
Width: 1241
Flags: W
HStem: -14 45<606.033 708.447 998.033 1100.45> 339 44<663.727 764.892 1055.22 1156.97> 345 45<179.32 281.333> 697 45<235.684 337.501>
VStem: 83.1265 77.6189<408.991 592.788> 356.407 77.3843<494.105 679.888> 510.132 77.1943<49.9606 233.627> 783.407 77.108<134.944 320.555> 902.132 77.1943<49.9606 233.673> 1175.41 77.108<134.944 320.936>
LayerCount: 2
Fore
SplineSet
1120 383 m 0xdfc0
 1204.97407838 383 1252.51459377 329.91240157 1252.51459377 243.389612135 c 0
 1252.51459377 225.03515569 1250.37522369 205.176082678 1246 184 c 0
 1220 63 1139 -14 1036 -14 c 0
 950.4637299 -14 902.132058787 38.0864385822 902.132058787 123.899646739 c 0
 902.132058787 142.423156069 904.384067525 162.518160405 909 184 c 0
 935 307 1017 383 1120 383 c 0xdfc0
1111 339 m 0
 1055 339 1007 281 987 184 c 1
 981.829505321 160.363452894 979.326350029 139.091138428 979.326350029 120.451721486 c 0
 979.326350029 63.3870172463 1002.78798581 31 1045 31 c 0
 1101 31 1147 88 1168 184 c 0
 1172.96835823 207.848119516 1175.40654665 229.412915055 1175.40654665 248.35712152 c 0
 1175.40654665 305.672337501 1153.08859695 339 1111 339 c 0
292 697 m 0
 235 697 189 640 168 543 c 0
 163.124921973 519.843379369 160.745314451 498.885149423 160.745314451 480.429450496 c 0
 160.745314451 423.170673378 183.650218477 390 226 390 c 0xbfc0
 282 390 329 447 349 543 c 0
 353.968358232 566.848119516 356.406546653 588.351203596 356.406546653 607.202647607 c 0
 356.406546653 664.237213137 334.088596949 697 292 697 c 0
718 338 m 2
 661 338 615 281 595 184 c 1
 589.829505321 160.363452894 587.326350029 139.091138428 587.326350029 120.451721486 c 0
 587.326350029 63.3870172463 610.787985812 31 653 31 c 0
 709 31 755 88 776 184 c 0
 780.968358232 207.848119516 783.406546653 229.351203596 783.406546653 248.202647607 c 0
 783.406546653 305.237213137 761.088596949 338 719 338 c 2
 718 338 l 2
728 383 m 0xdfc0
 812.974078381 383 860.514593767 329.91240157 860.514593767 243.389612135 c 0
 860.514593767 225.03515569 858.375223694 205.176082678 854 184 c 0
 828 63 747 -14 644 -14 c 0
 558.4637299 -14 510.132058787 38.0864385822 510.132058787 123.899646739 c 0
 510.132058787 142.423156069 512.384067525 162.518160405 517 184 c 0
 543 307 624 383 728 383 c 0xdfc0
743 742 m 1
 817 742 l 1
 201 -14 l 1
 127 -14 l 1
 743 742 l 1
300 742 m 0
 384.900308296 742 433.790879154 689.683966363 433.790879154 603.533094864 c 0
 433.790879154 585.166798611 431.568854216 565.262744623 427 544 c 0
 401 421 320 345 216 345 c 0xbfc0
 131.308969968 345 83.1264525825 396.382351132 83.1264525825 483.025808756 c 0
 83.1264525825 501.756865196 85.3783182605 522.135890232 90 544 c 0
 116 665 197 742 300 742 c 0
EndSplineSet
Validated: 1
Ligature2: "sous-table Remplacement de ligature lookups11" zero fraction zero zero
Ligature2: "sous-table Remplacement de ligature lookups11" zero slash zero zero
EndChar

StartChar: Scaron
Encoding: 352 352 105
Width: 620
Flags: W
HStem: -14 52<202.12 423.358> 690 52<341.081 553.869>
VStem: 99 56<167.8 201> 157.602 102.088<479.997 590.98> 518.038 105.7<149.351 261.978> 599 55<544 571.438>
LayerCount: 2
Fore
SplineSet
64 35 m 1xf8
 99 201 l 1
 155 201 l 1
 152.119487004 185.013152872 150.670267766 170.250165623 150.670267766 156.690125196 c 0
 150.670267766 76.0999885859 201.859180576 38 308 38 c 0
 424 38 496 85 514 173 c 0
 516.704769682 184.833367361 518.037830796 195.752262342 518.037830796 205.756684944 c 0xf8
 518.037830796 225.342722977 512.928556845 241.423827996 503 254 c 1
 490 273 454 291 399 309 c 2
 309 338 l 2
 244 359 201 386 178 417 c 1
 164.490343481 436.94282629 157.60239469 462.265790109 157.60239469 492.436409332 c 0
 157.60239469 509.164318047 159.719803725 527.38243374 164 547 c 0
 190 671 297 742 456 742 c 0
 524 742 602 727 687 699 c 1
 654 544 l 1
 599 544 l 1xf4
 600.049115622 553.823537186 600.579746248 563.101300692 600.579746248 571.848038783 c 0
 600.579746248 654.811038876 552.84122475 690 447 690 c 0
 344 690 280 647 263 567 c 0
 260.804040507 556.020202536 259.69062426 545.82770925 259.69062426 536.391647141 c 0
 259.69062426 515.748632211 265.019335984 498.72583002 276 485 c 0
 292 465 331 445 392 426 c 2
 476 399 l 2
 578.652065232 365.88643057 623.737435245 321.807776337 623.737435245 248.609382451 c 0
 623.737435245 233.386751185 621.787536814 216.904719482 618 199 c 0
 588 58 482 -14 303 -14 c 0
 223 -14 142 2 64 35 c 1xf8
433 798 m 1
 348 927 l 1
 405 927 l 1
 487 848 l 1
 603 927 l 1
 660 927 l 1
 519 798 l 1
 433 798 l 1
EndSplineSet
Validated: 1
Position2: "sous-table 'cpsp' Chasses pour composition en capitales dans Latin lookup 1" dx=5 dy=0 dh=10 dv=0
EndChar

StartChar: guilsinglleft
Encoding: 8249 8249 106
Width: 311
Flags: W
VStem: 86 280
LayerCount: 2
Fore
SplineSet
366 517 m 1
 354 461 l 1
 174 293 l 1
 283 125 l 1
 271 69 l 1
 86 273 l 1
 94 313 l 1
 366 517 l 1
EndSplineSet
Validated: 1
EndChar

StartChar: OE
Encoding: 338 338 107
Width: 1090
Flags: W
HStem: 0 60<649 992> 0 52<337.45 549> 365 60<727 954> 669 60<779 1114> 677 52<459.219 681>
VStem: 107.2 111.613<160.34 405.261>
LayerCount: 2
Fore
SplineSet
549 52 m 1x6c
 681 677 l 1
 590 677 l 2
 399 677 273 567 230 366 c 0
 222.51006662 330.640547066 218.812663123 298.072396126 218.812663123 268.395958367 c 0
 218.812663123 127.698808155 301.920869973 52 458 52 c 2
 549 52 l 1x6c
1040 0 m 1
 440 0 l 2
 315 0 223 32 166 96 c 1
 126.8 141.5 107.2 199.25 107.2 269.25 c 0
 107.2 299.25 110.8 331.5 118 366 c 0
 143 481 197 570 280 633 c 0
 365 697 469 729 594 729 c 2
 1186 729 l 1x6c
 1152 567 l 1
 1092 567 l 1
 1114 669 l 1
 779 669 l 1
 727 425 l 1
 967 425 l 1
 986 516 l 1
 1045 516 l 1
 994 274 l 1
 935 274 l 1
 954 365 l 1
 714 365 l 1
 649 60 l 1
 992 60 l 1xb4
 1014 162 l 1
 1074 162 l 1
 1040 0 l 1
EndSplineSet
Validated: 1
Ligature2: "sous-table 'dpng' Dipthongs (Obsolete) dans Latin lookup 9" O e
Ligature2: "sous-table 'dpng' Dipthongs (Obsolete) dans Latin lookup 9" O E
Position2: "sous-table 'cpsp' Chasses pour composition en capitales dans Latin lookup 1" dx=5 dy=0 dh=10 dv=0
EndChar

StartChar: quoteleft
Encoding: 8216 8216 108
Width: 256
Flags: W
HStem: 495 247
VStem: 151 95<495 563.931>
LayerCount: 2
Fore
SplineSet
361 703 m 1
 301 662 270 610 252 526 c 1
 246 495 l 1
 151 495 l 1
 176 608 231 683 331 742 c 1
 361 703 l 1
EndSplineSet
Validated: 1
EndChar

StartChar: quoteright
Encoding: 8217 8217 109
Width: 251
Flags: W
HStem: 482 247
VStem: 243 101<660.469 729>
LayerCount: 2
Fore
SplineSet
133 521 m 1
 193 562 225 615 243 699 c 1
 249 729 l 1
 344 729 l 1
 320 617 264 541 163 482 c 1
 133 521 l 1
EndSplineSet
Validated: 1
EndChar

StartChar: quotedblleft
Encoding: 8220 8220 110
Width: 449
Flags: W
HStem: 495 247
VStem: 151 95<495 563.931> 344 95<495 564.733>
LayerCount: 2
Fore
SplineSet
554 703 m 1
 496 662 463 610 445 526 c 1
 439 495 l 1
 344 495 l 1
 369 610 423 683 524 742 c 1
 554 703 l 1
361 703 m 1
 301 662 270 610 252 526 c 1
 246 495 l 1
 151 495 l 1
 176 608 231 683 331 742 c 1
 361 703 l 1
EndSplineSet
Validated: 1
EndChar

StartChar: quotedblright
Encoding: 8221 8221 111
Width: 444
Flags: W
HStem: 482 247
VStem: 243 101<660.469 729> 436 101<660.069 729>
LayerCount: 2
Fore
SplineSet
133 521 m 1
 193 562 225 615 243 699 c 1
 249 729 l 1
 344 729 l 1
 320 617 264 541 163 482 c 1
 133 521 l 1
327 521 m 1
 385 562 418 614 436 698 c 1
 442 729 l 1
 537 729 l 1
 512 616 457 541 357 482 c 1
 327 521 l 1
EndSplineSet
Validated: 1
EndChar

StartChar: bullet
Encoding: 8226 8226 112
Width: 403
Flags: W
HStem: 226 290<223.735 324.091>
VStem: 126.157 297.204<323.697 420.153>
LayerCount: 2
Fore
SplineSet
130 372 m 0
 138 413 160 447 193 474 c 0
 227 502 265 516 306 516 c 0
 346 516 377 502 399 474 c 1
 415.618289865 454.491572768 423.361629849 431.328754409 423.361629849 404.511544922 c 0
 423.361629849 394.213273621 422.219725265 383.376091981 420 372 c 0
 411 331 390 297 354 268 c 1
 321 240 284 226 244 226 c 0
 203 226 172 240 149 268 c 1
 134.013889484 288.695104998 126.157414156 311.936508277 126.157414156 338.451049979 c 0
 126.157414156 349.091270692 127.422618792 360.258596721 130 372 c 0
EndSplineSet
Validated: 1
EndChar

StartChar: endash
Encoding: 8211 8211 113
Width: 500
Flags: W
HStem: 230 76<123 484>
LayerCount: 2
Fore
SplineSet
123 230 m 1
 123 306 l 1
 484 306 l 1
 484 230 l 1
 123 230 l 1
EndSplineSet
Validated: 1
EndChar

StartChar: emdash
Encoding: 8212 8212 114
Width: 1000
Flags: W
HStem: 230 76<123 984>
LayerCount: 2
Fore
SplineSet
123 230 m 1
 123 306 l 1
 984 306 l 1
 984 230 l 1
 123 230 l 1
EndSplineSet
Validated: 1
EndChar

StartChar: tilde
Encoding: 732 732 115
Width: 439
Flags: W
HStem: 639 62<398.536 472.313> 715 62<263.869 337.464>
VStem: 192 47<639 687.821> 497 47<728.179 777>
LayerCount: 2
Fore
SplineSet
358 669 m 2
 335 696 l 1
 323 712 313 715 301 715 c 0
 274 715 253 688 239 639 c 1
 192 639 l 1
 212 727 258 777 317 777 c 0
 342 777 359 768 378 747 c 2
 401 720 l 1
 412 705 422 701 435 701 c 0
 463 701 483 728 497 777 c 1
 544 777 l 1
 524 689 478 639 419 639 c 0
 394 639 377 648 358 669 c 2
EndSplineSet
Validated: 1
EndChar

StartChar: trademark
Encoding: 8482 8482 116
Width: 832
Flags: W
HStem: 447 32<345 387 443 480 593 635 670 706 848 890 945 982> 535 21G<770.316 817.5> 646 83<329 346 563 586> 697 32<356 432 488 563 643 680 990 1032>
LayerCount: 2
Fore
SplineSet
757 729 m 1xd0
 816 597 l 1
 930 729 l 1
 1037 729 l 1
 1032 697 l 1
 990 697 l 1
 945 479 l 1
 987 479 l 1
 982 447 l 1
 843 447 l 1
 848 479 l 1
 890 479 l 1
 933 687 l 1
 800 535 l 1
 779 535 l 1
 713 687 l 1
 670 479 l 1
 711 479 l 1
 706 447 l 1
 588 447 l 1
 593 479 l 1
 635 479 l 1
 680 697 l 1
 638 697 l 1
 643 729 l 1
 757 729 l 1xd0
329 729 m 1xe0
 601 729 l 1xd0
 586 646 l 1
 553 646 l 1xe0
 563 697 l 1
 488 697 l 1
 443 479 l 1
 485 479 l 1
 480 447 l 1
 340 447 l 1
 345 479 l 1
 387 479 l 1
 432 697 l 1
 356 697 l 1xd0
 346 646 l 1
 314 646 l 1
 329 729 l 1xe0
EndSplineSet
Validated: 1
EndChar

StartChar: scaron
Encoding: 353 353 117
Width: 513
Flags: W
HStem: -14 48<166.979 347.141> 485 48<266.772 434.397>
VStem: 86 52<122.815 150> 132.694 91.8031<344.652 430.019> 396.925 97.7458<96.2275 180.754> 461 52<378 399.848>
LayerCount: 2
Fore
SplineSet
61 29 m 1xd8
 86 150 l 1
 138 150 l 1
 136.343137255 140.18627451 135.514705882 130.989811611 135.514705882 122.412681586 c 0
 135.514705882 63.6923298731 174.343137255 34 252 34 c 0
 333 34 383 66 395 123 c 0
 396.300759238 128.983492494 396.924728638 134.628590069 396.924728638 139.952899538 c 0xe8
 396.924728638 155.094750577 391.878177829 167.642125866 383 178 c 0
 371 192 341 207 295 223 c 2
 235 245 l 1
 164.996418133 269.459082821 132.694473388 301.743033724 132.694473388 351.451305824 c 0
 132.694473388 360.679826303 133.807833086 370.508915483 136 381 c 0
 157 476 243 533 366 533 c 0
 421 533 479 519 537 491 c 1
 513 378 l 1
 461 378 l 1xd4
 462.274255244 385.761372851 462.904387608 393.160426582 462.904387608 400.176952669 c 0
 462.904387608 453.7305418 426.196054677 485 359 485 c 0
 283 485 238 458 227 405 c 0
 225.382480819 397.882915605 224.497544763 391.367595919 224.497544763 385.327080164 c 0
 224.497544763 354.02327366 248.263657282 335.470946294 317 312 c 2
 383 290 l 2
 460.984848949 264.00505035 494.670575464 229.572172618 494.670575464 176.677603991 c 0
 494.670575464 166.493318859 493.421798557 155.624633072 491 144 c 0
 470 45 378 -14 246 -14 c 0
 179 -14 119 0 61 29 c 1xd8
345 616 m 1
 270 800 l 1
 327 800 l 1
 399 673 l 1
 525 800 l 1
 582 800 l 1
 427 616 l 1
 345 616 l 1
EndSplineSet
Validated: 1
EndChar

StartChar: guilsinglright
Encoding: 8250 8250 118
Width: 310
Flags: W
VStem: 63 281
LayerCount: 2
Fore
SplineSet
158 517 m 1
 344 313 l 1
 336 273 l 1
 63 69 l 1
 75 125 l 1
 256 293 l 1
 146 461 l 1
 158 517 l 1
EndSplineSet
Validated: 1
EndChar

StartChar: oe
Encoding: 339 339 119
Width: 978
Flags: W
HStem: -14 48<237.237 385.899 648.538 806.606> 485.15 47.8649<325.158 473.009 727.612 859.185>
VStem: 94.9626 102.343<84.4189 300.519> 512.276 86.724<219.996 329.476> 898.284 101.312<323.693 447.599>
LayerCount: 2
Fore
SplineSet
307 34 m 0
 403 34 469 111 501 260 c 0
 508.522071967 295.911827457 512.275964676 327.643331049 512.275964676 355.108791475 c 0
 512.275964676 440.834121683 475.705841649 485 403 485 c 0
 307 485 240 408 209 260 c 0
 201.184582624 223.609462844 197.306010383 191.513665836 197.306010383 163.785450091 c 0
 197.306010383 77.9812898699 234.446252127 34 307 34 c 0
297 -14 m 0
 222 -14 166 11 130 61 c 0
 106.739586182 94.2291625973 94.9626157317 134.525059575 94.9626157317 182.181218015 c 0
 94.9626157317 206.233394536 97.962498535 232.160409912 104 260 c 0
 121 343 158 409 214 458 c 0
 270 508 337 533 413 533 c 0
 498 533 560 501 592 438 c 1
 624.674741948 483.546609988 706.368710771 533.014758125 807.960259404 533.014758125 c 0
 808.971544184 533.014758125 809.984800625 533.009856305 811 533 c 1
 933.111459499 530.306364864 999.59611378 459.086955183 999.59611378 391.003574759 c 0
 999.59611378 383.260003514 998.736067563 375.556999978 997 368 c 0
 963 218 711 164 599 134 c 1
 602 97 638 34 720 34 c 0
 799 34 859 76 896 157 c 1
 968 157 l 1
 916 44 826 -14 701 -14 c 1
 697.274285599 -14.354829943 693.419169568 -14.527798136 689.458230175 -14.527798136 c 0
 626.441630518 -14.527798136 536.639818552 29.2526078104 515 81 c 1
 456 18 381 -14 297 -14 c 0
599 201 m 1
 759 238 871 273 896 356 c 1
 897.556475327 365.338851962 898.283877813 374.160879296 898.283877813 382.469433772 c 0
 898.283877813 451.56566911 847.976392475 485.149889074 805.837882563 485.149889074 c 0
 804.211973407 485.149889074 802.598226162 485.099889135 801 485 c 1
 723 483 668 427 634 361 c 1
 610 309 599 259 599 201 c 1
EndSplineSet
Validated: 1
Ligature2: "sous-table 'dpng' Dipthongs (Obsolete) dans Latin lookup 9" o e
EndChar

StartChar: Ydieresis
Encoding: 376 376 120
Width: 697
Flags: W
HStem: 0 52<216 309 408 490> 677 52<159 216 334 419 627 698 759 828> 806 114<397.959 471.437 587.959 661.437>
VStem: 375.604 116.746<826.89 897.988> 565.604 116.746<826.89 897.988>
LayerCount: 2
Fore
SplineSet
205 0 m 1
 216 52 l 1
 309 52 l 1
 364 314 l 1
 216 677 l 1
 148 677 l 1
 159 729 l 1
 430 729 l 1
 419 677 l 1
 334 677 l 1
 454 382 l 1
 698 677 l 1
 616 677 l 1
 627 729 l 1
 839 729 l 1
 828 677 l 1
 759 677 l 1
 465 323 l 1
 408 52 l 1
 501 52 l 1
 490 0 l 1
 205 0 l 1
446 920 m 0
 472.955379499 920 492.349963119 900.341930716 492.349963119 874.831877846 c 0
 492.349963119 871.004126772 491.913301403 867.044620501 491 863 c 0
 484 831 454 806 422 806 c 0
 394.309350414 806 375.604311076 824.72002135 375.604311076 850.496749143 c 0
 375.604311076 854.508245957 376.057329597 858.690649586 377 863 c 0
 384 894 415 920 446 920 c 0
636 920 m 0
 662.955379499 920 682.349963119 900.341930716 682.349963119 874.831877846 c 0
 682.349963119 871.004126772 681.913301403 867.044620501 681 863 c 0
 674 831 644 806 612 806 c 0
 584.309350414 806 565.604311076 824.72002135 565.604311076 850.496749143 c 0
 565.604311076 854.508245957 566.057329597 858.690649586 567 863 c 0
 574 894 605 920 636 920 c 0
EndSplineSet
Validated: 1
Position2: "sous-table 'cpsp' Chasses pour composition en capitales dans Latin lookup 1" dx=5 dy=0 dh=10 dv=0
EndChar

StartChar: exclamdown
Encoding: 161 161 121
Width: 251
Flags: W
HStem: 0 21G<61 189.594> 504 20G<200.772 265> 613 130<228.17 306.63>
VStem: 201.363 132.891<640.328 717.177>
LayerCount: 2
Fore
SplineSet
203 678 m 1
 210 715 244 743 281 743 c 0
 312.651151771 743 334.253429846 720.583281756 334.253429846 690.701309761 c 0
 334.253429846 686.595545713 333.845609378 682.348848229 333 678 c 0
 325 642 290 613 254 613 c 0
 222.109749117 613 201.36253806 634.543210328 201.36253806 663.543513177 c 0
 201.36253806 668.190208257 201.89518938 673.02835221 203 678 c 1
61 0 m 1
 179 401 l 1
 205 524 l 1
 265 524 l 1
 239 401 l 1
 187 0 l 1
 61 0 l 1
EndSplineSet
Validated: 1
Position2: "sous-table 'cpsp' Chasses pour composition en capitales dans Latin lookup 1" dx=5 dy=0 dh=10 dv=0
EndChar

StartChar: cent
Encoding: 162 162 122
Width: 520
Flags: W
HStem: -13 48<214.904 258 317 377.404> 484 48<300.414 363 423 465.656>
VStem: 75.2083 102.738<84.4673 298.378> 499 52<354 371.209>
LayerCount: 2
Fore
SplineSet
363 484 m 1
 277 475 219 399 190 260 c 0
 181.964285714 222.5 177.946428571 189.591836735 177.946428571 161.333164404 c 0
 177.946428571 84.0927933673 207.964285714 41.5892857143 268 35 c 1
 363 484 l 1
526 156 m 1
 481 56 408 -1 307 -13 c 1
 279 -145 l 1
 230 -145 l 1
 258 -13 l 1
 188 -7 137 20 105 69 c 1
 85.4170289858 100.985519323 75.2083252853 139.362584542 75.2083252853 183.853050195 c 0
 75.2083252853 207.519452497 78.0970169081 232.915724637 84 260 c 0
 101 339 135 402 186 451 c 1
 239 500 302 527 374 532 c 1
 401 662 l 1
 450 662 l 1
 423 532 l 1
 482 527 532 512 579 487 c 1
 551 354 l 1
 499 354 l 1
 499.377492419 360.039878711 499.566884144 365.863156622 499.566884144 371.471555104 c 0
 499.566884144 440.14807193 471.168097031 476.603987871 412 484 c 1
 317 35 l 1
 378 43 426 85 454 156 c 1
 526 156 l 1
EndSplineSet
Validated: 1
EndChar

StartChar: sterling
Encoding: 163 163 123
Width: 552
Flags: W
HStem: 0 59<230 463> 0 52<37 131> 342 52<109 192 301 491> 694 48<408.538 552.689>
VStem: 573 51<598 612.947>
LayerCount: 2
Fore
SplineSet
624 598 m 1x78
 573 598 l 1
 573.501748273 603.268356868 573.751745217 608.326920961 573.751745217 613.173937893 c 0
 573.751745217 666.288458952 543.731643132 694 486 694 c 0
 403 694 355 645 332 538 c 2
 301 394 l 1
 502 394 l 1
 491 342 l 1
 290 342 l 1
 230 59 l 1
 463 59 l 1xb8
 487 170 l 1
 544 170 l 1
 508 0 l 1
 26 0 l 1
 37 52 l 1
 131 52 l 1
 192 342 l 1
 98 342 l 1
 109 394 l 1
 203 394 l 1
 234 538 l 2
 262 671 353 742 497 742 c 0
 552 742 604 734 649 718 c 1
 624 598 l 1x78
EndSplineSet
Validated: 1
EndChar

StartChar: currency
Encoding: 164 164 124
Width: 614
Flags: W
HStem: 105 77<273.713 419.227> 444 77<321.337 466.661>
VStem: 157.627 78.1138<220.005 360.988> 504.259 78.08<267.213 405.995>
LayerCount: 2
Fore
SplineSet
527 481 m 1
 650 582 l 1
 686 536 l 1
 563 434 l 1
 575.892857143 407.535714286 582.339285714 381.071428571 582.339285714 353.357325073 c 0
 582.339285714 340.229591837 580.892857143 326.821428571 578 313 c 0
 568 268 548 231 511 194 c 1
 590 93 l 1
 533 47 l 1
 454 147 l 1
 412 118 371 105 326 105 c 0
 285 105 247 118 212 145 c 1
 91 45 l 1
 55 91 l 1
 176 192 l 1
 163.853702039 218.991773247 157.62692014 245.983546494 157.62692014 273.282585578 c 0
 157.62692014 286.438893884 159.073148981 299.666567578 162 313 c 0
 172 358 193 396 230 433 c 1
 150 534 l 1
 206 580 l 1
 285 479 l 1
 328 507 369 521 414 521 c 0
 457 521 493 508 527 481 c 1
501 314 m 0
 503.19347499 324.144821829 504.259293918 333.763404162 504.259293918 342.896971755 c 0
 504.259293918 367.075177071 496.790496899 387.854609344 483 406 c 0
 463 431 435 444 398 444 c 0
 361 444 327 431 297 406 c 0
 266 381 247 351 239 314 c 0
 236.80652501 303.855178171 235.740706082 294.086241697 235.740706082 284.734415332 c 0
 235.740706082 259.978439576 243.209503101 238.145390656 257 220 c 0
 277 195 305 182 342 182 c 0
 379 182 413 195 443 220 c 0
 474 246 493 277 501 314 c 0
EndSplineSet
Validated: 1
EndChar

StartChar: yen
Encoding: 165 165 125
Width: 672
Flags: W
HStem: 0 52<204 297 395 477> 231 51<148 335 443 630> 383 51<181 309 540 662> 677 52<163 220 337 422 599 670 730 799>
LayerCount: 2
Fore
SplineSet
193 0 m 1
 204 52 l 1
 297 52 l 1
 335 231 l 1
 138 231 l 1
 148 282 l 1
 345 282 l 1
 352 314 l 1
 327 383 l 1
 170 383 l 1
 181 434 l 1
 309 434 l 1
 220 677 l 1
 152 677 l 1
 163 729 l 1
 433 729 l 1
 422 677 l 1
 337 677 l 1
 442 382 l 1
 670 677 l 1
 588 677 l 1
 599 729 l 1
 810 729 l 1
 799 677 l 1
 730 677 l 1
 540 434 l 1
 673 434 l 1
 662 383 l 1
 500 383 l 1
 452 323 l 1
 443 282 l 1
 640 282 l 1
 630 231 l 1
 433 231 l 1
 395 52 l 1
 488 52 l 1
 477 0 l 1
 193 0 l 1
EndSplineSet
Validated: 1
EndChar

StartChar: brokenbar
Encoding: 166 166 126
Width: 238
Flags: W
VStem: 41 264
LayerCount: 2
Fore
SplineSet
199 199 m 1
 120 -171 l 1
 41 -171 l 1
 120 199 l 1
 199 199 l 1
305 699 m 1
 226 329 l 1
 147 329 l 1
 226 699 l 1
 305 699 l 1
EndSplineSet
Validated: 1
EndChar

StartChar: section
Encoding: 167 167 127
Width: 481
Flags: W
HStem: -95 50<131.114 286.929> -68 102<72 113.099> 616 99<478.591 522> 692 50<319.564 463.218>
VStem: 72 45<15.9174 34> 102.659 86.2566<304.935 396.474> 187.864 86.1939<550.413 647.179> 336.299 86.2158<1.42407 106.256> 424.693 84.6164<256.592 359.199> 477 45<616 631.57>
LayerCount: 2
Fore
SplineSet
269 457 m 1x0580
 218 428 197 403 190 368 c 0
 189.277303859 364.547118437 188.915696902 361.023308641 188.915696902 357.428052839 c 0
 188.915696902 316.250270052 236.351155409 265.700228298 332 205 c 2
 346 196 l 1
 388 220 415 252 423 289 c 0
 424.124860802 294.624304008 424.692984401 300.14738307 424.692984401 305.569237187 c 0
 424.692984401 324.247494429 417.950501114 341.724415367 404 358 c 0
 385 380 340 413 269 457 c 1x0580
543 715 m 1x23
 522 616 l 1
 477 616 l 1x2340
 478.057580806 621.522921988 478.576635572 626.797293495 478.576635572 631.805265853 c 0
 478.576635572 669.41507831 449.301988228 692 399 692 c 0
 334 692 287 659 275 604 c 0
 274.371794872 601.217948718 274.057692308 598.379520053 274.057692308 595.484714004 c 0
 274.057692308 566.123109796 306.371794872 530.961538462 371 490 c 0
 379 485 384 481 387 479 c 0
 443 444 478 414 493 389 c 1
 503.980664016 372.529003976 509.30937574 354.174023854 509.30937574 333.611819066 c 0
 509.30937574 324.212695821 508.195959493 314.352380466 506 304 c 0
 493 243 453 203 372 175 c 1
 405.827709213 151.166841237 422.514352616 122.605112595 422.514352616 83.861745205 c 0
 422.514352616 72.2112726089 421.005449551 59.6401171922 418 46 c 0
 400 -39 316 -95 204 -95 c 0x9380
 145 -95 97 -87 50 -68 c 1
 72 34 l 1
 117 34 l 1x4b80
 115.748040748 27.4898118872 115.123042283 21.3714742668 115.123042283 15.6489117858 c 0
 115.123042283 -24.3373814314 145.638518842 -45 206 -45 c 0
 274 -45 323 -11 335 44 c 0
 335.866132069 48.0058608184 336.298563573 52.0351649107 336.298563573 56.0879122766 c 0
 336.298563573 89.4682309451 306.962676941 124.438926853 249 161 c 0
 243 165 237 168 235 170 c 0
 172 209 134 241 118 266 c 0
 107.772727273 283.045454545 102.659090909 301.48553719 102.659090909 321.637208866 c 0x85
 102.659090909 331.041322314 103.772727273 340.818181818 106 351 c 0
 119 412 169 457 244 477 c 1
 206.752853238 502.911058617 187.863834252 534.722944019 187.863834252 572.966547416 c 0
 187.863834252 581.953561911 188.9069264 591.295749671 191 601 c 0
 209 686 292 742 400 742 c 0x93
 451 742 499 734 543 715 c 1x23
EndSplineSet
Validated: 1
EndChar

StartChar: dieresis
Encoding: 168 168 128
Width: 444
Flags: W
HStem: 652 114<236.959 310.746 426.959 500.746>
VStem: 214.556 116.794<672.277 743.988> 404.556 116.794<672.277 743.988>
LayerCount: 2
Fore
SplineSet
285 766 m 0
 311.955379499 766 331.349963119 746.341930716 331.349963119 720.831877846 c 0
 331.349963119 717.004126772 330.913301403 713.044620501 330 709 c 0
 323 676 294 652 261 652 c 0
 232.589612167 652 214.555810115 669.788432768 214.555810115 695.793777965 c 0
 214.555810115 699.994862773 215.026445904 704.410387833 216 709 c 0
 223 740 254 766 285 766 c 0
475 766 m 0
 501.955379499 766 521.349963119 746.341930716 521.349963119 720.831877846 c 0
 521.349963119 717.004126772 520.913301403 713.044620501 520 709 c 0
 513 676 484 652 451 652 c 0
 422.589612167 652 404.555810115 669.788432768 404.555810115 695.793777965 c 0
 404.555810115 699.994862773 405.026445904 704.410387833 406 709 c 0
 413 740 444 766 475 766 c 0
EndSplineSet
Validated: 1
EndChar

StartChar: copyright
Encoding: 169 169 129
Width: 819
Flags: W
HStem: 0 50<366.241 596.111> 147 38<419.481 551.078> 437 104<594.625 640> 540 38<421.638 554.284> 675 50<367.946 597.816>
VStem: 119 50<249.101 473.629> 282 84<254.188 467.052> 596 58<227.144 280> 599 41<437 496.678> 793.024 49.9972<245.137 481.9>
LayerCount: 2
Fore
SplineSet
654 280 m 1xdf40
 637 195 575 147 483 147 c 0
 422 147 374 166 336 205 c 1
 300 244 283 297 282 362 c 1
 283 427 302 480 339 519 c 0
 375 558 423 578 483 578 c 0xdf40
 535 578 585 566 640 541 c 1
 640 437 l 1
 599 437 l 1xeec0
 588 508 552 540 484 540 c 0
 407 540 367 481 366 362 c 0
 366 243 406 185 483 185 c 0
 546 185 582 215 596 280 c 1
 654 280 l 1xdf40
483 725 m 0
 582 725 668 689 739 618 c 0
 808.986127942 548.013872058 843.021422744 464.42472617 843.021422744 366.274793169 c 0
 843.021422744 263.980979355 809.415986455 179.415986455 737 107 c 0
 666 36 580 0 481 0 c 0
 382 0 296 36 225 107 c 0
 154 178 119 263 119 362 c 0
 120 462 156 547 227 618 c 0
 298 689 384 725 483 725 c 0
483 675 m 0
 398 675 323 644 262 583 c 0
 202 523 171 447 169 362 c 1
 169 277 201 203 262 142 c 0
 322 81 396 50 481 50 c 0
 566 50 641 81 703 142 c 0
 765.365012295 204.365012295 793.024193548 278.017888601 793.024193548 366.199527542 c 0
 793.024193548 451.383454735 763.016129032 523.967741935 703 583 c 0
 642 644 568 675 483 675 c 0
EndSplineSet
Validated: 1
EndChar

StartChar: ordfeminine
Encoding: 170 170 130
Width: 481
Flags: W
HStem: 261 51<131 461> 360 41<240.363 365.28> 369 41<480 510> 559 37<271.016 439> 705 37<290.161 431.755>
VStem: 143.247 81.3614<415.713 522.458> 212 37<637 666.609> 454.375 68.9252<596.317 685.465>
LayerCount: 2
Fore
SplineSet
519 595 m 2xdb
 480 410 l 1
 519 410 l 1
 510 369 l 1
 399 369 l 1xbb
 407 408 l 1
 368 375 326 360 270 360 c 0
 189.319987372 360 143.247358923 394.607384179 143.247358923 452.356908269 c 0xdd
 143.247358923 460.459582799 144.154349885 469.017836107 146 478 c 0
 162 553 236 596 347 596 c 2
 447 596 l 1
 452 618 l 2
 453.592793378 625.300302981 454.375159157 632.195392162 454.375159157 638.66422118 c 0
 454.375159157 680.931122293 420.97417086 705 362 705 c 0
 306 705 267 682 249 637 c 1
 212 637 l 1
 228 714 l 1
 281 733 331 742 374 742 c 0
 472.486742963 742 523.300404258 704.594966691 523.300404258 633.553595623 c 0
 523.300404258 621.642099868 521.871870789 608.784979787 519 595 c 2xdb
424 487 m 2
 439 559 l 1
 347 559 l 2
 279 559 238 533 227 482 c 0
 225.404851076 474.314282459 224.608801354 467.154288077 224.608801354 460.529165291 c 0
 224.608801354 421.468051782 252.280866464 401 307 401 c 0xdd
 367 401 413 435 424 487 c 2
131 312 m 1
 472 312 l 1
 461 261 l 1
 120 261 l 1
 131 312 l 1
EndSplineSet
Validated: 1
EndChar

StartChar: guillemotleft
Encoding: 171 171 131
Width: 523
Flags: W
LayerCount: 2
Fore
SplineSet
578 517 m 1
 566 461 l 1
 386 293 l 1
 495 125 l 1
 483 69 l 1
 298 273 l 1
 306 313 l 1
 578 517 l 1
366 517 m 1
 354 461 l 1
 174 293 l 1
 283 125 l 1
 271 69 l 1
 86 273 l 1
 94 313 l 1
 366 517 l 1
EndSplineSet
Validated: 1
EndChar

StartChar: logicalnot
Encoding: 172 172 132
Width: 738
Flags: W
HStem: 342 79<120 651>
LayerCount: 2
Fore
SplineSet
120 421 m 1
 746 421 l 1
 686 140 l 1
 608 140 l 1
 651 342 l 1
 103 342 l 1
 120 421 l 1
EndSplineSet
Validated: 1
EndChar

StartChar: minus
Encoding: 8722 8722 133
Width: 782
Flags: W
HStem: 274 79<150 759>
LayerCount: 2
Fore
SplineSet
150 353 m 1
 776 353 l 1
 759 274 l 1
 133 274 l 1
 150 353 l 1
EndSplineSet
Validated: 1
EndChar

StartChar: registered
Encoding: 174 174 134
Width: 776
Flags: W
HStem: 0 50<323.241 553.111> 172 33<261 302 375 416 611 648> 353 33<376 464.708> 533 33<263 304 377 495.201> 675 50<324.946 554.816>
VStem: 76 50<249.101 473.629> 302 74<205 353 386 533> 518 73<403.709 515.07> 750.024 49.9972<245.137 481.9>
LayerCount: 2
Fore
SplineSet
376 386 m 1
 437 386 l 2
 492 386 518 411 518 460 c 0
 518 508 491 533 438 533 c 2
 377 533 l 1
 376 386 l 1
496 368 m 1
 524 359 542 342 555 317 c 2
 611 205 l 1
 648 205 l 1
 648 172 l 1
 555 172 l 1
 491 296 l 1
 469 341 453 353 421 353 c 2
 376 353 l 1
 375 205 l 1
 416 205 l 1
 416 172 l 1
 261 172 l 1
 261 205 l 1
 302 205 l 1
 304 533 l 1
 263 533 l 1
 263 566 l 1
 466 566 l 2
 549 566 591 529 591 458 c 0
 591 403 560 375 496 368 c 1
440 675 m 0
 355 675 280 644 219 583 c 0
 159 523 128 447 126 362 c 1
 126 277 158 203 219 142 c 0
 279 81 353 50 438 50 c 0
 523 50 598 81 660 142 c 0
 722.365012295 204.365012295 750.024193548 278.017888601 750.024193548 366.199527542 c 0
 750.024193548 451.383454735 720.016129032 523.967741935 660 583 c 0
 599 644 525 675 440 675 c 0
440 725 m 0
 539 725 625 689 696 618 c 0
 765.986127942 548.013872058 800.021422744 464.42472617 800.021422744 366.274793169 c 0
 800.021422744 263.980979355 766.415986455 179.415986455 694 107 c 0
 623 36 537 0 438 0 c 0
 339 0 253 36 182 107 c 0
 111 178 76 263 76 362 c 0
 77 462 113 547 184 618 c 0
 255 689 341 725 440 725 c 0
EndSplineSet
Validated: 1
EndChar

StartChar: macron
Encoding: 175 175 135
Width: 447
Flags: W
HStem: 673 72<232 509>
VStem: 217 307
LayerCount: 2
Fore
SplineSet
232 745 m 1
 524 745 l 1
 509 673 l 1
 217 673 l 1
 232 745 l 1
EndSplineSet
Validated: 1
EndChar

StartChar: degree
Encoding: 176 176 136
Width: 382
Flags: W
HStem: 432 67<217.546 334.755> 675 67<246.338 360.722>
VStem: 131.203 68.8364<516.138 628.709> 379.875 68.7362<543.966 655.905>
LayerCount: 2
Fore
SplineSet
309 675 m 0
 260 675 213 637 202 586 c 0
 200.679971705 579.531861356 200.039508543 573.255394929 200.039508543 567.232703848 c 0
 200.039508543 527.629925346 227.732144303 499 272 499 c 0
 321 499 368 537 378 586 c 0
 379.26645592 592.205634008 379.875308495 598.266916061 379.875308495 604.120876417 c 0
 379.875308495 644.49008312 350.921011584 675 309 675 c 0
323 742 m 0
 364 742 402 725 423 696 c 1
 439.813892781 674.799874319 448.611519292 648.789988876 448.611519292 619.533064154 c 0
 448.611519292 608.768961183 447.420650651 597.565330887 445 586 c 0
 436 543 413 506 376 476 c 0
 340 447 299 432 256 432 c 0
 212 432 179 447 156 476 c 0
 139.46875 496.84375 131.203125 521.8203125 131.203125 550.558380127 c 0
 131.203125 561.803710938 132.46875 573.625 135 586 c 0
 144 629 167 666 203 696 c 0
 240 727 280 742 323 742 c 0
EndSplineSet
Validated: 1
EndChar

StartChar: plusminus
Encoding: 177 177 137
Width: 696
Flags: W
HStem: 0 78<49 659> 357 79<125 382 477 734>
LayerCount: 2
Fore
SplineSet
518 627 m 1
 477 436 l 1
 751 436 l 1
 734 357 l 1
 460 357 l 1
 420 166 l 1
 342 166 l 1
 382 357 l 1
 108 357 l 1
 125 436 l 1
 399 436 l 1
 440 627 l 1
 518 627 l 1
49 78 m 1
 675 78 l 1
 659 0 l 1
 33 0 l 1
 49 78 l 1
EndSplineSet
Validated: 1
EndChar

StartChar: twosuperior
Encoding: 178 178 138
Width: 390
Flags: W
HStem: 326 43<182 370> 706 36<249.419 365.882>
VStem: 173 34<633 664.656> 383.949 75.3137<586.523 690.965>
LayerCount: 2
Fore
SplineSet
207 633 m 1
 173 633 l 1
 189 710 l 1
 237 731 285 742 330 742 c 0
 409.32976776 742 459.263140373 704.658633192 459.263140373 648.388362133 c 0
 459.263140373 641.529063226 458.521160128 634.388492049 457 627 c 0
 448 587 406 539 331 482 c 1
 320 474 l 1
 182 369 l 1
 370 369 l 1
 381 422 l 1
 417 422 l 1
 397 326 l 1
 103 326 l 1
 111 363 l 1
 276 487 l 2
 342 536 372 573 381 616 c 0
 382.976748587 625.224826737 383.94947777 633.852668964 383.94947777 641.829886305 c 0
 383.94947777 682.278962899 358.939902312 706 313 706 c 0
 262 706 225 681 207 633 c 1
EndSplineSet
Validated: 1
EndChar

StartChar: threesuperior
Encoding: 179 179 139
Width: 390
Flags: W
HStem: 319 36<172.882 304.633> 346 83<123 155.302> 530 36<252 333.081> 706 36<246.391 366.172>
VStem: 123 34<413.593 429> 180 34<643 673.89> 352.773 75.4334<398.455 512.93> 377.972 74.3072<601.596 696.253>
LayerCount: 2
Fore
SplineSet
196 717 m 1xbd
 247 733 292 742 331 742 c 0
 409.560305763 742 452.279278927 713.171102041 452.279278927 662.390946688 c 0xbd
 452.279278927 655.642891292 451.524899158 648.507195856 450 641 c 0
 440 594 396 560 332 549 c 1
 395.529753674 539.682302795 428.20630328 510.274147127 428.20630328 461.991096689 c 0
 428.20630328 453.273630464 427.141112648 443.94088015 425 434 c 0
 409 359 342 319 235 319 c 0xbe
 188 319 145 329 105 346 c 1
 123 429 l 1
 157 429 l 1x7e
 156.082709206 423.496255234 155.625571287 418.281749419 155.625571287 413.362512468 c 0
 155.625571287 375.379437688 182.879680957 355 236 355 c 0
 297 355 338 385 350 438 c 1
 351.849809611 447.249048053 352.772882914 455.832746963 352.772882914 463.736444715 c 0xbe
 352.772882914 507.105252236 324.980197942 530 270 530 c 2
 244 530 l 1
 252 566 l 1
 265 566 l 2
 328 566 366 590 376 638 c 0
 377.318921534 644.448060834 377.972087829 650.466602158 377.972087829 656.043035027 c 0
 377.972087829 688.518824771 355.819204981 706 314 706 c 0
 261 706 228 686 214 643 c 1
 180 643 l 1
 196 717 l 1xbd
EndSplineSet
Validated: 1
EndChar

StartChar: acute
Encoding: 180 180 140
Width: 265
Flags: W
HStem: 616 184
VStem: 183 263
LayerCount: 2
Fore
SplineSet
349 800 m 1
 446 800 l 1
 240 616 l 1
 183 616 l 1
 349 800 l 1
EndSplineSet
Validated: 1
EndChar

StartChar: mu
Encoding: 181 181 141
Width: 629
Flags: W
HStem: -208 52<-6 80 170 244> -14 66<254.357 369.05> 0 51<538 613> 467 52<143 213 470 537>
LayerCount: 2
Fore
SplineSet
470 519 m 1xd0
 638 519 l 1
 538 51 l 1
 623 51 l 1
 613 0 l 1
 438 0 l 1xb0
 457 92 l 1
 409 23 353 -14 294 -14 c 0
 257 -14 228 -3 208 21 c 1
 170 -156 l 1
 255 -156 l 1
 244 -208 l 1
 -17 -208 l 1
 -6 -156 l 1
 80 -156 l 1
 213 467 l 1
 132 467 l 1
 143 519 l 1
 314 519 l 1
 250 217 l 2
 242.120394609 181.541775742 238.358882864 152.102303734 238.358882864 129.038165877 c 0
 238.358882864 111.123356949 240.628289565 97.0549340009 245 87 c 0
 256 64 282 52 321 52 c 0
 405 52 462 115 487 231 c 2
 537 467 l 1
 459 467 l 1
 470 519 l 1xd0
EndSplineSet
Validated: 1
EndChar

StartChar: paragraph
Encoding: 182 182 142
Width: 551
Flags: W
HStem: 677 52<435 548 600 658>
LayerCount: 2
Fore
SplineSet
406 729 m 2
 669 729 l 1
 658 677 l 1
 600 677 l 1
 436 -96 l 1
 384 -96 l 1
 548 677 l 1
 435 677 l 1
 271 -96 l 1
 219 -96 l 1
 307 317 l 1
 189.196058472 326.390169252 125.31749393 382.418502384 125.31749393 473.265589174 c 0
 125.31749393 488.840221509 127.194945505 505.438210024 131 523 c 0
 144 585 175 635 225 672 c 0
 276 710 336 729 406 729 c 2
EndSplineSet
Validated: 1
EndChar

StartChar: periodcentered
Encoding: 183 183 143
Width: 263
Flags: W
HStem: 282 130<161.02 238.876>
VStem: 133.363 133.227<309.719 384.725>
LayerCount: 2
Fore
SplineSet
135 347 m 0
 143 384 177 412 214 412 c 0
 245.166423712 412 266.58940794 390.264634998 266.58940794 361.068904126 c 0
 266.58940794 356.54096105 266.074128064 351.833576288 265 347 c 0
 258 311 222 282 186 282 c 0
 154.109749117 282 133.36253806 302.800341007 133.36253806 332.235739458 c 0
 133.36253806 336.952149555 133.89518938 341.890250883 135 347 c 0
EndSplineSet
Validated: 1
EndChar

StartChar: cedilla
Encoding: 184 184 144
Width: 308
Flags: W
HStem: -193 59<14.9435 145.711> -20 20G<136 196.188>
VStem: 160.934 61.9086<-117.173 -26.3434>
LayerCount: 2
Fore
SplineSet
183 0 m 1
 209.375283251 -33.7933316656 222.842894857 -64.8692587742 222.842894857 -92.6678413657 c 0
 222.842894857 -98.5960868221 222.230406789 -104.375283251 221 -110 c 0
 210 -162 160 -193 87 -193 c 0
 60 -193 33 -189 4 -181 c 1
 18 -117 l 1
 42 -128 67 -134 90 -134 c 0
 127 -134 154 -115 160 -86 c 0
 160.626714552 -83.0231058789 160.934302561 -79.8252779975 160.934302561 -76.398824 c 0
 160.934302561 -57.9559661231 152.023105879 -32.8895331198 136 0 c 1
 183 0 l 1
EndSplineSet
Validated: 1
EndChar

StartChar: onesuperior
Encoding: 185 185 145
Width: 308
Flags: W
HStem: 326 41<119 203 272 347> 714 20G<258.413 350>
VStem: 110 246
LayerCount: 2
Fore
SplineSet
110 326 m 1
 119 367 l 1
 203 367 l 1
 268 677 l 1
 159 625 l 1
 169 671 l 1
 300 734 l 1
 350 734 l 1
 272 367 l 1
 356 367 l 1
 347 326 l 1
 110 326 l 1
EndSplineSet
Validated: 1
EndChar

StartChar: ordmasculine
Encoding: 186 186 146
Width: 445
Flags: W
HStem: 261 51<94 419> 360 37<225.972 339.553> 705 37<285.691 399.291>
VStem: 118.26 82.9642<420.466 597.772> 424.226 83.3964<501.479 679.222>
LayerCount: 2
Fore
SplineSet
280 397 m 0
 349 397 395 450 417 551 c 0
 421.829698742 574.228551093 424.226301028 594.918218928 424.226301028 613.008179886 c 0
 424.226301028 673.5751291 397.360975502 705 345 705 c 0
 277 705 230 651 209 551 c 0
 203.798736673 527.121472907 201.224534481 505.925901866 201.224534481 487.479360557 c 0
 201.224534481 427.901798247 228.076632102 397 280 397 c 0
272 360 m 0
 174.748300494 360 118.260298851 414.351597151 118.260298851 500.677897611 c 0
 118.260298851 516.432327908 120.141673806 533.251699506 124 551 c 0
 148 666 238 742 353 742 c 0
 410 742 451 724 479 689 c 0
 498.300163815 664.874795231 507.622747542 635.523238987 507.622747542 600.945331269 c 0
 507.622747542 585.358824561 505.728501222 568.710380805 502 551 c 0
 477 435 387 360 272 360 c 0
94 312 m 1
 430 312 l 1
 419 261 l 1
 83 261 l 1
 94 312 l 1
EndSplineSet
Validated: 1
EndChar

StartChar: guillemotright
Encoding: 187 187 147
Width: 522
Flags: W
LayerCount: 2
Fore
SplineSet
370 517 m 1
 556 313 l 1
 548 273 l 1
 275 69 l 1
 287 125 l 1
 468 293 l 1
 358 461 l 1
 370 517 l 1
158 517 m 1
 344 313 l 1
 336 273 l 1
 63 69 l 1
 75 125 l 1
 256 293 l 1
 146 461 l 1
 158 517 l 1
EndSplineSet
Validated: 1
EndChar

StartChar: onequarter
Encoding: 188 188 148
Width: 901
Flags: W
HStem: -14 21G<157 246.402> 0 41<667 738 808 871> 108 40<611 752 831 902> 326 41<106 190 259 334> 714 28G<245.413 337 760.598 850>
LayerCount: 2
Fore
SplineSet
97 326 m 1x38
 106 367 l 1
 190 367 l 1
 255 677 l 1
 146 625 l 1
 156 671 l 1
 287 734 l 1
 337 734 l 1
 259 367 l 1
 343 367 l 1
 334 326 l 1
 97 326 l 1x38
777 742 m 1
 850 742 l 1
 230 -14 l 1
 157 -14 l 1xb8
 777 742 l 1
761 148 m 1
 803 347 l 1
 611 148 l 1
 761 148 l 1
871 0 m 1x78
 659 0 l 1
 667 41 l 1
 738 41 l 1
 752 108 l 1
 558 108 l 1
 567 149 l 1
 817 408 l 1
 886 408 l 1
 831 148 l 1
 911 148 l 1
 902 108 l 1
 822 108 l 1
 808 41 l 1
 879 41 l 1
 871 0 l 1x78
EndSplineSet
Validated: 1
Ligature2: "sous-table Remplacement de ligature lookups11" one fraction four
Ligature2: "sous-table Remplacement de ligature lookups11" one slash four
EndChar

StartChar: onehalf
Encoding: 189 189 149
Width: 885
Flags: W
HStem: -14 21G<157 246.402> 0 43<633 821> 326 41<106 190 259 334> 380 36<700.157 815.984> 714 28G<245.413 337 760.598 850>
VStem: 624 34<307 338.656> 834.879 74.6838<259.006 364.952>
LayerCount: 2
Fore
SplineSet
97 326 m 1x3e
 106 367 l 1
 190 367 l 1
 255 677 l 1
 146 625 l 1
 156 671 l 1
 287 734 l 1
 337 734 l 1
 259 367 l 1
 343 367 l 1
 334 326 l 1
 97 326 l 1x3e
777 742 m 1
 850 742 l 1
 230 -14 l 1
 157 -14 l 1xbe
 777 742 l 1
658 307 m 1
 624 307 l 1
 640 384 l 1
 688 405 736 416 781 416 c 0
 859.774277899 416 909.562403322 379.17975226 909.562403322 323.567633332 c 0
 909.562403322 316.348600816 908.723436309 308.812911268 907 301 c 0
 899 261 857 213 782 156 c 1
 771 148 l 1
 633 43 l 1
 821 43 l 1
 832 96 l 1
 868 96 l 1
 848 0 l 1
 554 0 l 1x7e
 561 37 l 1
 727 161 l 2
 793 210 823 247 832 290 c 0
 833.93155498 299.01392324 834.87856568 307.45784716 834.87856568 315.281726986 c 0
 834.87856568 356.06457018 809.147039675 380 763 380 c 0
 712 380 676 355 658 307 c 1
EndSplineSet
Validated: 1
Ligature2: "sous-table Remplacement de ligature lookups11" one fraction two
Ligature2: "sous-table Remplacement de ligature lookups11" one slash two
EndChar

StartChar: threequarters
Encoding: 190 190 150
Width: 923
Flags: W
HStem: -14 21G<179 268.402> 0 41<689 760 830 893> 108 40<633 774 853 924> 319 36<153.882 285.633> 346 83<104 136.302> 530 36<233 314.081> 706 36<227.391 347.172>
VStem: 104 34<413.593 429> 161 34<643 673.89> 333.773 75.4334<398.455 512.93> 358.972 74.3072<601.596 696.253>
LayerCount: 2
Fore
SplineSet
177 717 m 1x37a0
 228 733 273 742 312 742 c 0
 390.560305763 742 433.279278927 713.171102041 433.279278927 662.390946688 c 0x37a0
 433.279278927 655.642891292 432.524899158 648.507195856 431 641 c 0
 421 594 377 560 313 549 c 1
 376.529753674 539.682302795 409.20630328 510.274147127 409.20630328 461.991096689 c 0
 409.20630328 453.273630464 408.141112648 443.94088015 406 434 c 0
 390 359 323 319 216 319 c 0x37c0
 169 319 126 329 86 346 c 1
 104 429 l 1
 138 429 l 1x2fc0
 137.082709206 423.496255234 136.625571287 418.281749419 136.625571287 413.362512468 c 0
 136.625571287 375.379437688 163.879680957 355 217 355 c 0
 278 355 319 385 331 438 c 1
 332.849809611 447.249048053 333.772882914 455.832746963 333.772882914 463.736444715 c 0x37c0
 333.772882914 507.105252236 305.980197942 530 251 530 c 2
 225 530 l 1
 233 566 l 1
 246 566 l 2
 309 566 347 590 357 638 c 0
 358.318921534 644.448060834 358.972087829 650.466602158 358.972087829 656.043035027 c 0
 358.972087829 688.518824771 336.819204981 706 295 706 c 0
 242 706 209 686 195 643 c 1
 161 643 l 1
 177 717 l 1x37a0
799 742 m 1
 872 742 l 1
 252 -14 l 1
 179 -14 l 1xa780
 799 742 l 1
783 148 m 1
 825 347 l 1
 633 148 l 1
 783 148 l 1
893 0 m 1x6780
 681 0 l 1
 689 41 l 1
 760 41 l 1
 774 108 l 1
 580 108 l 1
 589 149 l 1
 839 408 l 1
 908 408 l 1
 853 148 l 1
 933 148 l 1
 924 108 l 1
 844 108 l 1
 830 41 l 1
 901 41 l 1
 893 0 l 1x6780
EndSplineSet
Validated: 1
Ligature2: "sous-table Remplacement de ligature lookups11" three fraction four
Ligature2: "sous-table Remplacement de ligature lookups11" three slash four
EndChar

StartChar: questiondown
Encoding: 191 191 151
Width: 478
Flags: W
HStem: -13 48<201.381 354.223> 515 20G<355.806 420> 613 130<381.52 459.566>
VStem: 62.9098 103.423<69.7933 228.437> 354.411 132.882<640.328 715.672> 436 47<126.074 159>
LayerCount: 2
Fore
SplineSet
486 678 m 1xf8
 478 642 443 613 407 613 c 0
 375.833576288 613 354.41059206 634.735365002 354.41059206 663.931095874 c 0
 354.41059206 668.45903895 354.925871936 673.166423712 356 678 c 0
 363 714 398 743 434 743 c 0
 466.396212472 743 487.292995625 721.534398604 487.292995625 691.356747442 c 0
 487.292995625 687.068237045 486.87098683 682.603787528 486 678 c 1xf8
456 32 m 1
 381 1 316 -13 261 -13 c 0
 135.928823268 -13 62.9097852407 42.8240328145 62.9097852407 135.470845933 c 0
 62.9097852407 149.492423068 64.5822957989 164.357430772 68 180 c 1
 93 301 182 378 334 411 c 1
 360 535 l 1
 420 535 l 1
 386 375 l 1
 265 347 192 280 171 179 c 0
 167.861600384 164.299075484 166.332961369 150.525809619 166.332961369 137.774844254 c 0
 166.332961369 73.3309423022 205.379493099 35 273 35 c 0
 346 35 406 79 436 159 c 1
 483 159 l 1xf4
 456 32 l 1
EndSplineSet
Validated: 1
Position2: "sous-table 'cpsp' Chasses pour composition en capitales dans Latin lookup 1" dx=5 dy=0 dh=10 dv=0
EndChar

StartChar: Agrave
Encoding: 192 192 152
Width: 751
Flags: W
HStem: 0 52<15 79 140 209 488 569 681 742> 212 52<266 534> 709 20G<470.095 567.456>
LayerCount: 2
Fore
SplineSet
266 264 m 1
 534 264 l 1
 473 611 l 1
 266 264 l 1
4 0 m 1
 15 52 l 1
 79 52 l 1
 482 729 l 1
 564 729 l 1
 681 52 l 1
 753 52 l 1
 742 0 l 1
 477 0 l 1
 488 52 l 1
 569 52 l 1
 542 212 l 1
 235 212 l 1
 140 52 l 1
 220 52 l 1
 209 0 l 1
 4 0 l 1
534 927 m 1
 595 798 l 1
 538 798 l 1
 438 927 l 1
 534 927 l 1
EndSplineSet
Validated: 1
Position2: "sous-table 'cpsp' Chasses pour composition en capitales dans Latin lookup 1" dx=5 dy=0 dh=10 dv=0
EndChar

StartChar: Aacute
Encoding: 193 193 153
Width: 751
Flags: W
HStem: 0 52<15 79 140 209 488 569 681 742> 212 52<266 534> 709 20G<470.095 567.456>
LayerCount: 2
Fore
SplineSet
266 264 m 1
 534 264 l 1
 473 611 l 1
 266 264 l 1
4 0 m 1
 15 52 l 1
 79 52 l 1
 482 729 l 1
 564 729 l 1
 681 52 l 1
 753 52 l 1
 742 0 l 1
 477 0 l 1
 488 52 l 1
 569 52 l 1
 542 212 l 1
 235 212 l 1
 140 52 l 1
 220 52 l 1
 209 0 l 1
 4 0 l 1
599 927 m 1
 695 927 l 1
 539 798 l 1
 482 798 l 1
 599 927 l 1
EndSplineSet
Validated: 1
Position2: "sous-table 'cpsp' Chasses pour composition en capitales dans Latin lookup 1" dx=5 dy=0 dh=10 dv=0
EndChar

StartChar: Acircumflex
Encoding: 194 194 154
Width: 751
Flags: W
HStem: 0 52<15 79 140 209 488 569 681 742> 212 52<266 534> 709 20G<470.095 567.456>
LayerCount: 2
Fore
SplineSet
266 264 m 1
 534 264 l 1
 473 611 l 1
 266 264 l 1
4 0 m 1
 15 52 l 1
 79 52 l 1
 482 729 l 1
 564 729 l 1
 681 52 l 1
 753 52 l 1
 742 0 l 1
 477 0 l 1
 488 52 l 1
 569 52 l 1
 542 212 l 1
 235 212 l 1
 140 52 l 1
 220 52 l 1
 209 0 l 1
 4 0 l 1
525 927 m 1
 611 927 l 1
 696 798 l 1
 639 798 l 1
 557 877 l 1
 441 798 l 1
 384 798 l 1
 525 927 l 1
EndSplineSet
Validated: 1
Position2: "sous-table 'cpsp' Chasses pour composition en capitales dans Latin lookup 1" dx=5 dy=0 dh=10 dv=0
EndChar

StartChar: Atilde
Encoding: 195 195 155
Width: 751
Flags: W
HStem: 0 52<15 79 140 209 488 569 681 742> 212 52<266 534> 709 20G<470.095 567.456> 814 57<573.903 668.468> 864 57<444.881 534.231>
VStem: 383 47<814 848.011> 680 47<883.236 921>
LayerCount: 2
Fore
SplineSet
266 264 m 1xe6
 534 264 l 1
 473 611 l 1
 266 264 l 1xe6
4 0 m 1
 15 52 l 1
 79 52 l 1
 482 729 l 1
 564 729 l 1
 681 52 l 1
 753 52 l 1
 742 0 l 1
 477 0 l 1
 488 52 l 1
 569 52 l 1
 542 212 l 1
 235 212 l 1
 140 52 l 1
 220 52 l 1
 209 0 l 1
 4 0 l 1
542 837 m 1
 521 851 l 2
 510 859 497 864 486 864 c 0xee
 461 864 439 843 430 814 c 1
 383 814 l 1xf6
 397 879 442 921 497 921 c 0xee
 521 921 535 917 567 897 c 2
 588 884 l 2
 602 876 616 871 627 871 c 0xf6
 654 871 674 890 680 921 c 1
 727 921 l 1xee
 712 853 669 814 608 814 c 0xf6
 586 814 564 821 544 836 c 1
 542 837 l 1
EndSplineSet
Validated: 1
Position2: "sous-table 'cpsp' Chasses pour composition en capitales dans Latin lookup 1" dx=5 dy=0 dh=10 dv=0
EndChar

StartChar: Adieresis
Encoding: 196 196 156
Width: 751
Flags: W
HStem: 0 52<15 79 140 209 488 569 681 742> 212 52<266 534> 709 20G<470.095 567.456> 806 114<422.959 496.437 612.959 686.437>
VStem: 400.604 116.746<826.89 897.988> 590.604 116.746<826.89 897.988>
LayerCount: 2
Fore
SplineSet
266 264 m 1
 534 264 l 1
 473 611 l 1
 266 264 l 1
4 0 m 1
 15 52 l 1
 79 52 l 1
 482 729 l 1
 564 729 l 1
 681 52 l 1
 753 52 l 1
 742 0 l 1
 477 0 l 1
 488 52 l 1
 569 52 l 1
 542 212 l 1
 235 212 l 1
 140 52 l 1
 220 52 l 1
 209 0 l 1
 4 0 l 1
471 920 m 0
 497.955379499 920 517.349963119 900.341930716 517.349963119 874.831877846 c 0
 517.349963119 871.004126772 516.913301403 867.044620501 516 863 c 0
 509 831 479 806 447 806 c 0
 419.309350414 806 400.604311076 824.72002135 400.604311076 850.496749143 c 0
 400.604311076 854.508245957 401.057329597 858.690649586 402 863 c 0
 409 894 440 920 471 920 c 0
661 920 m 0
 687.955379499 920 707.349963119 900.341930716 707.349963119 874.831877846 c 0
 707.349963119 871.004126772 706.913301403 867.044620501 706 863 c 0
 699 831 669 806 637 806 c 0
 609.309350414 806 590.604311076 824.72002135 590.604311076 850.496749143 c 0
 590.604311076 854.508245957 591.057329597 858.690649586 592 863 c 0
 599 894 630 920 661 920 c 0
EndSplineSet
Validated: 1
Position2: "sous-table 'cpsp' Chasses pour composition en capitales dans Latin lookup 1" dx=5 dy=0 dh=10 dv=0
EndChar

StartChar: Aring
Encoding: 197 197 157
Width: 752
Flags: W
HStem: 0 52<15 79 140 209 488 569 681 742> 212 52<266 533> 868 60<496.011 600.303>
VStem: 399.63 61.9253<733.409 834.92> 612.781 61.6248<754.365 855.849>
LayerCount: 2
Fore
SplineSet
611 794 m 0
 612.203093112 799.480757511 612.780752196 804.818558674 612.780752196 809.953684806 c 0
 612.780752196 843.232987882 588.519242489 868 553 868 c 0
 512 868 472 837 463 794 c 0
 462.025666962 789.006543182 461.555662761 784.131751972 461.555662761 779.420790365 c 0
 461.555662761 745.451248074 485.993456818 720 522 720 c 0
 563 720 603 753 611 794 c 0
266 264 m 1
 533 264 l 1
 473 611 l 1
 266 264 l 1
4 0 m 1
 15 52 l 1
 79 52 l 1
 450 676 l 1
 416.588075414 695.092528335 399.63038797 723.67788579 399.63038797 762.259522667 c 0
 399.63038797 772.176401483 400.750742153 782.753710767 403 794 c 0
 411 831 431 863 462 889 c 0
 494 915 529 928 566 928 c 0
 603 928 632 915 652 889 c 0
 667.060006001 870.354278284 674.405597691 848.622790844 674.405597691 824.174360301 c 0
 674.405597691 814.531367416 673.262854857 804.465703712 671 794 c 0
 660 742 625 699 573 676 c 1
 681 52 l 1
 753 52 l 1
 742 0 l 1
 477 0 l 1
 488 52 l 1
 569 52 l 1
 542 212 l 1
 235 212 l 1
 140 52 l 1
 220 52 l 1
 209 0 l 1
 4 0 l 1
EndSplineSet
Validated: 1
Position2: "sous-table 'cpsp' Chasses pour composition en capitales dans Latin lookup 1" dx=5 dy=0 dh=10 dv=0
EndChar

StartChar: AE
Encoding: 198 198 158
Width: 1022
Flags: W
HStem: 0 60<580 924> 0 52<17 81 144 213 388 481> 212 52<287 515> 365 60<658 885> 669 60<710 1046> 677 52<407 501 564 613>
LayerCount: 2
Fore
SplineSet
287 264 m 1x34
 526 264 l 1
 613 677 l 1
 564 677 l 1
 287 264 l 1x34
377 0 m 1x70
 388 52 l 1
 481 52 l 1
 515 212 l 1
 252 212 l 1
 144 52 l 1
 224 52 l 1
 213 0 l 1
 6 0 l 1
 17 52 l 1
 81 52 l 1
 501 677 l 1
 396 677 l 1
 407 729 l 1
 1118 729 l 1x74
 1084 567 l 1
 1024 567 l 1
 1046 669 l 1
 710 669 l 1
 658 425 l 1
 898 425 l 1
 917 516 l 1
 977 516 l 1
 926 274 l 1
 866 274 l 1
 885 365 l 1
 645 365 l 1
 580 60 l 1
 924 60 l 1xb8
 946 162 l 1
 1006 162 l 1
 972 0 l 1
 377 0 l 1x70
EndSplineSet
Validated: 1
Ligature2: "sous-table 'dpng' Dipthongs (Obsolete) dans Latin lookup 9" A e
Ligature2: "sous-table 'dpng' Dipthongs (Obsolete) dans Latin lookup 9" A E
Position2: "sous-table 'cpsp' Chasses pour composition en capitales dans Latin lookup 1" dx=5 dy=0 dh=10 dv=0
EndChar

StartChar: Ccedilla
Encoding: 199 199 159
Width: 721
Flags: W
HStem: -193 59<262.943 393.711> -14 52<301.424 399.705> 690 52<429.649 649.582>
VStem: 108.371 108.707<145.909 391.696> 408.934 61.9086<-117.173 -26.3316>
LayerCount: 2
Fore
SplineSet
439.450211477 -11.3570515925 m 1
 460.248439707 -40.7783551441 470.842894879 -68.0121791735 470.842894857 -92.6678413657 c 0
 470.842894857 -98.5960868221 470.230406789 -104.375283251 469 -110 c 0
 458 -162 408 -193 335 -193 c 0
 308 -193 281 -189 252 -181 c 1
 266 -117 l 1
 290 -128 315 -134 338 -134 c 0
 375 -134 402 -115 408 -86 c 0
 408.626714552 -83.0231058789 408.934302561 -79.8252779975 408.934302561 -76.398824 c 0
 408.934302561 -60.6663703842 402.449862053 -40.1141175438 390.597857865 -13.9974809272 c 0
 390.065688222 -13.9974809272 389.533068839 -14 389 -14 c 0
 293 -14 218 19 168 82 c 0
 127.917434614 132.448746089 108.371230126 191.971698156 108.371230126 262.54916902 c 0
 108.371230126 294.098228 112.276967839 327.856209485 120 364 c 0
 144 477 196 569 276 638 c 0
 356 707 450 742 557 742 c 0
 637 742 721 722 816 679 c 1
 780 511 l 1
 725 511 l 1
 725.033273365 513.046311917 725.049939977 515.074079628 725.049939977 517.083353785 c 0
 725.049939977 635.847808777 666.820594625 690 538 690 c 0
 382 690 277 577 232 364 c 0
 222.041117865 316.861291227 217.077935485 274.620327313 217.077935485 237.418016885 c 0
 217.077935485 106.518732523 278.524124735 38 400 38 c 0
 508 38 590 90 643 193 c 1
 733 193 l 1
 669.032866229 72.1731917666 569.546685559 2.65167349918 439.450211477 -11.3570515925 c 1
EndSplineSet
Validated: 1
Position2: "sous-table 'cpsp' Chasses pour composition en capitales dans Latin lookup 1" dx=5 dy=0 dh=10 dv=0
EndChar

StartChar: Egrave
Encoding: 200 200 160
Width: 675
Flags: W
HStem: 0 60<234 577> 0 52<41 134> 365 60<312 538> 669 60<364 699> 677 52<184 266>
LayerCount: 2
Fore
SplineSet
30 0 m 1x60
 41 52 l 1
 134 52 l 1
 266 677 l 1
 173 677 l 1
 184 729 l 1
 771 729 l 1x68
 737 567 l 1
 677 567 l 1
 699 669 l 1
 364 669 l 1
 312 425 l 1
 551 425 l 1
 570 516 l 1
 630 516 l 1
 579 274 l 1
 519 274 l 1
 538 365 l 1
 299 365 l 1
 234 60 l 1
 577 60 l 1xb0
 599 162 l 1
 659 162 l 1
 625 0 l 1
 30 0 l 1x60
503 927 m 1
 564 798 l 1
 507 798 l 1
 407 927 l 1
 503 927 l 1
EndSplineSet
Validated: 1
Position2: "sous-table 'cpsp' Chasses pour composition en capitales dans Latin lookup 1" dx=5 dy=0 dh=10 dv=0
EndChar

StartChar: Eacute
Encoding: 201 201 161
Width: 675
Flags: W
HStem: 0 60<234 577> 0 52<41 134> 365 60<312 538> 669 60<364 699> 677 52<184 266>
LayerCount: 2
Fore
SplineSet
30 0 m 1x60
 41 52 l 1
 134 52 l 1
 266 677 l 1
 173 677 l 1
 184 729 l 1
 771 729 l 1x68
 737 567 l 1
 677 567 l 1
 699 669 l 1
 364 669 l 1
 312 425 l 1
 551 425 l 1
 570 516 l 1
 630 516 l 1
 579 274 l 1
 519 274 l 1
 538 365 l 1
 299 365 l 1
 234 60 l 1
 577 60 l 1xb0
 599 162 l 1
 659 162 l 1
 625 0 l 1
 30 0 l 1x60
568 927 m 1
 664 927 l 1
 508 798 l 1
 451 798 l 1
 568 927 l 1
EndSplineSet
Validated: 1
Position2: "sous-table 'cpsp' Chasses pour composition en capitales dans Latin lookup 1" dx=5 dy=0 dh=10 dv=0
EndChar

StartChar: Ecircumflex
Encoding: 202 202 162
Width: 675
Flags: W
HStem: 0 60<234 577> 0 52<41 134> 365 60<312 538> 669 60<364 699> 677 52<184 266>
LayerCount: 2
Fore
SplineSet
30 0 m 1x60
 41 52 l 1
 134 52 l 1
 266 677 l 1
 173 677 l 1
 184 729 l 1
 771 729 l 1x68
 737 567 l 1
 677 567 l 1
 699 669 l 1
 364 669 l 1
 312 425 l 1
 551 425 l 1
 570 516 l 1
 630 516 l 1
 579 274 l 1
 519 274 l 1
 538 365 l 1
 299 365 l 1
 234 60 l 1
 577 60 l 1xb0
 599 162 l 1
 659 162 l 1
 625 0 l 1
 30 0 l 1x60
494 927 m 1
 580 927 l 1
 665 798 l 1
 608 798 l 1
 526 877 l 1
 410 798 l 1
 353 798 l 1
 494 927 l 1
EndSplineSet
Validated: 1
Position2: "sous-table 'cpsp' Chasses pour composition en capitales dans Latin lookup 1" dx=5 dy=0 dh=10 dv=0
EndChar

StartChar: Edieresis
Encoding: 203 203 163
Width: 675
Flags: W
HStem: 0 60<234 577> 0 52<41 134> 365 60<312 538> 669 60<364 699> 677 52<184 266> 806 114<391.959 465.437 581.959 655.437>
VStem: 369.604 116.746<826.89 897.988> 559.604 116.746<826.89 897.988>
LayerCount: 2
Fore
SplineSet
30 0 m 1x67
 41 52 l 1
 134 52 l 1
 266 677 l 1
 173 677 l 1
 184 729 l 1
 771 729 l 1x6f
 737 567 l 1
 677 567 l 1
 699 669 l 1
 364 669 l 1
 312 425 l 1
 551 425 l 1
 570 516 l 1
 630 516 l 1
 579 274 l 1
 519 274 l 1
 538 365 l 1
 299 365 l 1
 234 60 l 1
 577 60 l 1xb7
 599 162 l 1
 659 162 l 1
 625 0 l 1
 30 0 l 1x67
440 920 m 0
 466.955379499 920 486.349963119 900.341930716 486.349963119 874.831877846 c 0
 486.349963119 871.004126772 485.913301403 867.044620501 485 863 c 0
 478 831 448 806 416 806 c 0
 388.309350414 806 369.604311076 824.72002135 369.604311076 850.496749143 c 0
 369.604311076 854.508245957 370.057329597 858.690649586 371 863 c 0
 378 894 409 920 440 920 c 0
630 920 m 0
 656.955379499 920 676.349963119 900.341930716 676.349963119 874.831877846 c 0
 676.349963119 871.004126772 675.913301403 867.044620501 675 863 c 0
 668 831 638 806 606 806 c 0
 578.309350414 806 559.604311076 824.72002135 559.604311076 850.496749143 c 0
 559.604311076 854.508245957 560.057329597 858.690649586 561 863 c 0
 568 894 599 920 630 920 c 0
EndSplineSet
Validated: 1
Position2: "sous-table 'cpsp' Chasses pour composition en capitales dans Latin lookup 1" dx=5 dy=0 dh=10 dv=0
EndChar

StartChar: Igrave
Encoding: 204 204 164
Width: 349
Flags: W
HStem: 0 52<41 134 233 315> 677 52<184 266 365 458>
LayerCount: 2
Fore
SplineSet
233 52 m 1
 326 52 l 1
 315 0 l 1
 30 0 l 1
 41 52 l 1
 134 52 l 1
 266 677 l 1
 173 677 l 1
 184 729 l 1
 469 729 l 1
 458 677 l 1
 365 677 l 1
 233 52 l 1
336 927 m 1
 397 798 l 1
 340 798 l 1
 240 927 l 1
 336 927 l 1
EndSplineSet
Validated: 1
Position2: "sous-table 'cpsp' Chasses pour composition en capitales dans Latin lookup 1" dx=5 dy=0 dh=10 dv=0
EndChar

StartChar: Iacute
Encoding: 205 205 165
Width: 349
Flags: W
HStem: 0 52<41 134 233 315> 677 52<184 266 365 458>
LayerCount: 2
Fore
SplineSet
233 52 m 1
 326 52 l 1
 315 0 l 1
 30 0 l 1
 41 52 l 1
 134 52 l 1
 266 677 l 1
 173 677 l 1
 184 729 l 1
 469 729 l 1
 458 677 l 1
 365 677 l 1
 233 52 l 1
401 927 m 1
 497 927 l 1
 341 798 l 1
 284 798 l 1
 401 927 l 1
EndSplineSet
Validated: 1
Position2: "sous-table 'cpsp' Chasses pour composition en capitales dans Latin lookup 1" dx=5 dy=0 dh=10 dv=0
EndChar

StartChar: Icircumflex
Encoding: 206 206 166
Width: 349
Flags: W
HStem: 0 52<41 134 233 315> 677 52<184 266 365 458>
LayerCount: 2
Fore
SplineSet
233 52 m 1
 326 52 l 1
 315 0 l 1
 30 0 l 1
 41 52 l 1
 134 52 l 1
 266 677 l 1
 173 677 l 1
 184 729 l 1
 469 729 l 1
 458 677 l 1
 365 677 l 1
 233 52 l 1
327 927 m 1
 413 927 l 1
 498 798 l 1
 441 798 l 1
 359 877 l 1
 243 798 l 1
 186 798 l 1
 327 927 l 1
EndSplineSet
Validated: 1
Position2: "sous-table 'cpsp' Chasses pour composition en capitales dans Latin lookup 1" dx=5 dy=0 dh=10 dv=0
EndChar

StartChar: Idieresis
Encoding: 207 207 167
Width: 349
Flags: W
HStem: 0 52<41 134 233 315> 677 52<184 266 365 458> 806 114<224.959 298.437 414.959 488.437>
VStem: 202.604 116.746<826.89 897.988> 392.604 116.746<826.89 897.988>
LayerCount: 2
Fore
SplineSet
233 52 m 1
 326 52 l 1
 315 0 l 1
 30 0 l 1
 41 52 l 1
 134 52 l 1
 266 677 l 1
 173 677 l 1
 184 729 l 1
 469 729 l 1
 458 677 l 1
 365 677 l 1
 233 52 l 1
273 920 m 0
 299.955379499 920 319.349963119 900.341930716 319.349963119 874.831877846 c 0
 319.349963119 871.004126772 318.913301403 867.044620501 318 863 c 0
 311 831 281 806 249 806 c 0
 221.309350414 806 202.604311076 824.72002135 202.604311076 850.496749143 c 0
 202.604311076 854.508245957 203.057329597 858.690649586 204 863 c 0
 211 894 242 920 273 920 c 0
463 920 m 0
 489.955379499 920 509.349963119 900.341930716 509.349963119 874.831877846 c 0
 509.349963119 871.004126772 508.913301403 867.044620501 508 863 c 0
 501 831 471 806 439 806 c 0
 411.309350414 806 392.604311076 824.72002135 392.604311076 850.496749143 c 0
 392.604311076 854.508245957 393.057329597 858.690649586 394 863 c 0
 401 894 432 920 463 920 c 0
EndSplineSet
Validated: 1
Position2: "sous-table 'cpsp' Chasses pour composition en capitales dans Latin lookup 1" dx=5 dy=0 dh=10 dv=0
EndChar

StartChar: Eth
Encoding: 208 208 168
Width: 778
Flags: W
HStem: 0 52<52 145 243 464.938> 351 61<123 208 319 470> 677 52<195 277 375 588.177>
VStem: 706.187 112.054<325.725 569.752>
LayerCount: 2
Fore
SplineSet
243 52 m 1
 335 52 l 2
 524 52 652 164 695 365 c 0
 702.48993338 400.359452934 706.187336877 432.866923396 706.187336877 462.443139396 c 0
 706.187336877 602.665134334 623.079130027 677 467 677 c 2
 375 677 l 1
 319 412 l 1
 483 412 l 1
 470 351 l 1
 306 351 l 1
 243 52 l 1
41 0 m 1
 52 52 l 1
 145 52 l 1
 208 351 l 1
 110 351 l 1
 123 412 l 1
 221 412 l 1
 277 677 l 1
 184 677 l 1
 195 729 l 1
 485 729 l 2
 611 729 703 697 759 633 c 0
 798.152309953 588.254502911 818.241089418 531.288793969 818.241089418 461.761123518 c 0
 818.241089418 431.842565894 814.521290199 399.597934917 807 365 c 0
 783 250 729 161 644 96 c 0
 560 32 456 0 331 0 c 2
 41 0 l 1
EndSplineSet
Validated: 1
Position2: "sous-table 'cpsp' Chasses pour composition en capitales dans Latin lookup 1" dx=5 dy=0 dh=10 dv=0
EndChar

StartChar: Ntilde
Encoding: 209 209 169
Width: 833
Flags: W
HStem: -14 21G<640.023 714.226> 0 52<40 138 198 285> 677 52<183 270 709 796 856 954> 814 57<620.903 715.468> 864 57<491.881 581.231>
VStem: 430 47<814 848.011> 727 47<883.236 921>
LayerCount: 2
Fore
SplineSet
29 0 m 1x66
 40 52 l 1
 138 52 l 1x66
 270 677 l 1
 172 677 l 1
 183 729 l 1
 370 729 l 1
 685 154 l 1
 796 677 l 1
 698 677 l 1
 709 729 l 1
 965 729 l 1
 954 677 l 1
 856 677 l 1
 710 -14 l 1
 651 -14 l 1xa6
 314 600 l 1
 198 52 l 1
 296 52 l 1
 285 0 l 1
 29 0 l 1x66
589 837 m 1
 568 851 l 2
 557 859 544 864 533 864 c 0x2e
 508 864 486 843 477 814 c 1
 430 814 l 1x36
 444 879 489 921 544 921 c 0x2e
 568 921 582 917 614 897 c 2
 635 884 l 2
 649 876 663 871 674 871 c 0x36
 701 871 721 890 727 921 c 1
 774 921 l 1x2e
 759 853 716 814 655 814 c 0x36
 633 814 611 821 591 836 c 1
 589 837 l 1
EndSplineSet
Validated: 1
Position2: "sous-table 'cpsp' Chasses pour composition en capitales dans Latin lookup 1" dx=5 dy=0 dh=10 dv=0
EndChar

StartChar: Ograve
Encoding: 210 210 170
Width: 800
Flags: W
HStem: -14 52<302.945 514.465> 690 52<433.38 645.555>
VStem: 108.371 108.472<145.514 387.409> 731.157 108.276<340.582 582.617>
LayerCount: 2
Fore
SplineSet
405 38 m 0
 565 38 670 149 716 364 c 0
 726.118586247 411.293392244 731.156592295 453.554590765 731.156592295 490.709090799 c 0
 731.156592295 622.462278039 667.8049174 690 543 690 c 0
 383 690 278 579 232 364 c 0
 221.881413753 316.706607756 216.843407705 274.445409235 216.843407705 237.290909201 c 0
 216.843407705 105.537721961 280.1950826 38 405 38 c 0
394 -14 m 0
 295 -14 218 19 168 82 c 0
 127.917434614 132.448746089 108.371230126 191.016518579 108.371230126 261.663943109 c 0
 108.371230126 293.244272299 112.276967839 327.238366912 120 364 c 0
 145 481 199 573 288 646 c 0
 365 710 454 742 554 742 c 0
 660 742 738 707 788 638 c 0
 822.077084613 590.973623233 839.432202408 533.263767666 839.432202408 465.503584273 c 0
 839.432202408 433.841847978 835.642999386 399.985788774 828 364 c 0
 803 247 747 154 660 82 c 0
 582 18 494 -14 394 -14 c 0
560 927 m 1
 621 798 l 1
 564 798 l 1
 464 927 l 1
 560 927 l 1
EndSplineSet
Validated: 1
Position2: "sous-table 'cpsp' Chasses pour composition en capitales dans Latin lookup 1" dx=5 dy=0 dh=10 dv=0
EndChar

StartChar: Oacute
Encoding: 211 211 171
Width: 800
Flags: W
HStem: -14 52<302.945 514.465> 690 52<433.38 645.555>
VStem: 108.371 108.472<145.514 387.409> 731.157 108.276<340.582 582.617>
LayerCount: 2
Fore
SplineSet
405 38 m 0
 565 38 670 149 716 364 c 0
 726.118586247 411.293392244 731.156592295 453.554590765 731.156592295 490.709090799 c 0
 731.156592295 622.462278039 667.8049174 690 543 690 c 0
 383 690 278 579 232 364 c 0
 221.881413753 316.706607756 216.843407705 274.445409235 216.843407705 237.290909201 c 0
 216.843407705 105.537721961 280.1950826 38 405 38 c 0
394 -14 m 0
 295 -14 218 19 168 82 c 0
 127.917434614 132.448746089 108.371230126 191.016518579 108.371230126 261.663943109 c 0
 108.371230126 293.244272299 112.276967839 327.238366912 120 364 c 0
 145 481 199 573 288 646 c 0
 365 710 454 742 554 742 c 0
 660 742 738 707 788 638 c 0
 822.077084613 590.973623233 839.432202408 533.263767666 839.432202408 465.503584273 c 0
 839.432202408 433.841847978 835.642999386 399.985788774 828 364 c 0
 803 247 747 154 660 82 c 0
 582 18 494 -14 394 -14 c 0
625 927 m 1
 721 927 l 1
 565 798 l 1
 508 798 l 1
 625 927 l 1
EndSplineSet
Validated: 1
Position2: "sous-table 'cpsp' Chasses pour composition en capitales dans Latin lookup 1" dx=5 dy=0 dh=10 dv=0
EndChar

StartChar: Ocircumflex
Encoding: 212 212 172
Width: 800
Flags: W
HStem: -14 52<302.945 514.465> 690 52<433.38 645.555>
VStem: 108.371 108.472<145.514 387.409> 731.157 108.276<340.582 582.617>
LayerCount: 2
Fore
SplineSet
405 38 m 0
 565 38 670 149 716 364 c 0
 726.118586247 411.293392244 731.156592295 453.554590765 731.156592295 490.709090799 c 0
 731.156592295 622.462278039 667.8049174 690 543 690 c 0
 383 690 278 579 232 364 c 0
 221.881413753 316.706607756 216.843407705 274.445409235 216.843407705 237.290909201 c 0
 216.843407705 105.537721961 280.1950826 38 405 38 c 0
394 -14 m 0
 295 -14 218 19 168 82 c 0
 127.917434614 132.448746089 108.371230126 191.016518579 108.371230126 261.663943109 c 0
 108.371230126 293.244272299 112.276967839 327.238366912 120 364 c 0
 145 481 199 573 288 646 c 0
 365 710 454 742 554 742 c 0
 660 742 738 707 788 638 c 0
 822.077084613 590.973623233 839.432202408 533.263767666 839.432202408 465.503584273 c 0
 839.432202408 433.841847978 835.642999386 399.985788774 828 364 c 0
 803 247 747 154 660 82 c 0
 582 18 494 -14 394 -14 c 0
551 927 m 1
 637 927 l 1
 722 798 l 1
 665 798 l 1
 583 877 l 1
 467 798 l 1
 410 798 l 1
 551 927 l 1
EndSplineSet
Validated: 1
Position2: "sous-table 'cpsp' Chasses pour composition en capitales dans Latin lookup 1" dx=5 dy=0 dh=10 dv=0
EndChar

StartChar: Otilde
Encoding: 213 213 173
Width: 800
Flags: W
HStem: -14 52<302.945 514.465> 690 52<433.38 645.555> 814 57<599.903 694.468> 864 57<470.881 560.231>
VStem: 108.371 108.472<145.514 387.409> 409 47<814 848.011> 706 47<883.236 921> 731.157 108.276<340.582 582.617>
LayerCount: 2
Fore
SplineSet
405 38 m 0xcd
 565 38 670 149 716 364 c 0
 726.118586247 411.293392244 731.156592295 453.554590765 731.156592295 490.709090799 c 0
 731.156592295 622.462278039 667.8049174 690 543 690 c 0
 383 690 278 579 232 364 c 0
 221.881413753 316.706607756 216.843407705 274.445409235 216.843407705 237.290909201 c 0
 216.843407705 105.537721961 280.1950826 38 405 38 c 0xcd
394 -14 m 0
 295 -14 218 19 168 82 c 0
 127.917434614 132.448746089 108.371230126 191.016518579 108.371230126 261.663943109 c 0
 108.371230126 293.244272299 112.276967839 327.238366912 120 364 c 0
 145 481 199 573 288 646 c 0
 365 710 454 742 554 742 c 0
 660 742 738 707 788 638 c 0
 822.077084613 590.973623233 839.432202408 533.263767666 839.432202408 465.503584273 c 0
 839.432202408 433.841847978 835.642999386 399.985788774 828 364 c 0
 803 247 747 154 660 82 c 0
 582 18 494 -14 394 -14 c 0
568 837 m 1
 547 851 l 2
 536 859 523 864 512 864 c 0xde
 487 864 465 843 456 814 c 1
 409 814 l 1xee
 423 879 468 921 523 921 c 0xde
 547 921 561 917 593 897 c 2
 614 884 l 2
 628 876 642 871 653 871 c 0xee
 680 871 700 890 706 921 c 1
 753 921 l 1xde
 738 853 695 814 634 814 c 0xee
 612 814 590 821 570 836 c 1
 568 837 l 1
EndSplineSet
Validated: 1
Position2: "sous-table 'cpsp' Chasses pour composition en capitales dans Latin lookup 1" dx=5 dy=0 dh=10 dv=0
EndChar

StartChar: Odieresis
Encoding: 214 214 174
Width: 800
Flags: W
HStem: -14 52<302.945 514.465> 690 52<433.38 645.555> 806 114<448.959 522.437 638.959 712.437>
VStem: 108.371 108.472<145.514 387.409> 426.604 116.746<826.89 897.988> 616.604 116.746<826.89 897.988> 731.157 108.276<340.582 582.617>
LayerCount: 2
Fore
SplineSet
405 38 m 0xfa
 565 38 670 149 716 364 c 0
 726.118586247 411.293392244 731.156592295 453.554590765 731.156592295 490.709090799 c 0
 731.156592295 622.462278039 667.8049174 690 543 690 c 0
 383 690 278 579 232 364 c 0
 221.881413753 316.706607756 216.843407705 274.445409235 216.843407705 237.290909201 c 0
 216.843407705 105.537721961 280.1950826 38 405 38 c 0xfa
394 -14 m 0
 295 -14 218 19 168 82 c 0
 127.917434614 132.448746089 108.371230126 191.016518579 108.371230126 261.663943109 c 0
 108.371230126 293.244272299 112.276967839 327.238366912 120 364 c 0
 145 481 199 573 288 646 c 0
 365 710 454 742 554 742 c 0
 660 742 738 707 788 638 c 0
 822.077084613 590.973623233 839.432202408 533.263767666 839.432202408 465.503584273 c 0
 839.432202408 433.841847978 835.642999386 399.985788774 828 364 c 0
 803 247 747 154 660 82 c 0
 582 18 494 -14 394 -14 c 0
497 920 m 0
 523.955379499 920 543.349963119 900.341930716 543.349963119 874.831877846 c 0
 543.349963119 871.004126772 542.913301403 867.044620501 542 863 c 0
 535 831 505 806 473 806 c 0
 445.309350414 806 426.604311076 824.72002135 426.604311076 850.496749143 c 0
 426.604311076 854.508245957 427.057329597 858.690649586 428 863 c 0
 435 894 466 920 497 920 c 0
687 920 m 0
 713.955379499 920 733.349963119 900.341930716 733.349963119 874.831877846 c 0
 733.349963119 871.004126772 732.913301403 867.044620501 732 863 c 0
 725 831 695 806 663 806 c 0
 635.309350414 806 616.604311076 824.72002135 616.604311076 850.496749143 c 0xfc
 616.604311076 854.508245957 617.057329597 858.690649586 618 863 c 0
 625 894 656 920 687 920 c 0
EndSplineSet
Validated: 1
Position2: "sous-table 'cpsp' Chasses pour composition en capitales dans Latin lookup 1" dx=5 dy=0 dh=10 dv=0
EndChar

StartChar: multiply
Encoding: 215 215 175
Width: 627
Flags: W
LayerCount: 2
Fore
SplineSet
707 539 m 1
 433 313 l 1
 611 88 l 1
 544 33 l 1
 366 258 l 1
 94 33 l 1
 49 88 l 1
 322 313 l 1
 145 539 l 1
 213 594 l 1
 390 369 l 1
 663 594 l 1
 707 539 l 1
EndSplineSet
Validated: 1
EndChar

StartChar: Oslash
Encoding: 216 216 176
Width: 815
Flags: W
HStem: -14 52<312.647 522.293> 690 52<439.707 651.844>
VStem: 115.615 108.615<172.482 391.815> 737.977 108.366<336.185 556.024>
LayerCount: 2
Fore
SplineSet
715 605 m 1
 684 662 631 690 550 690 c 0
 390 690 285 579 239 364 c 0
 229.153846154 316.615384615 224.230769231 274.532544379 224.230769231 237.052344106 c 0
 224.230769231 213.627218935 226.153846154 192 230 172 c 1
 715 605 l 1
246 125 m 1
 275 68 331 38 412 38 c 0
 572 38 677 149 723 364 c 0
 732.688820407 410.021896935 737.977332648 451.643485704 737.977332648 489.086817325 c 0
 737.977332648 513.47694744 735.733384694 536.0942176 731 557 c 1
 246 125 l 1
805 623 m 1
 832.5625 576.40625 846.34375 524.213867188 846.34375 464.444488525 c 0
 846.34375 433.13671875 842.5625 399.75 835 364 c 0
 811 251 759 160 679 90 c 0
 599 21 506 -14 401 -14 c 0
 309 -14 237 14 184 70 c 1
 75 -28 l 1
 44 6 l 1
 156 107 l 1
 129.17027311 151.498083623 115.615300292 203.275871092 115.615300292 262.893799899 c 0
 115.615300292 294.38134865 119.396438819 328.0558926 127 364 c 0
 151 477 203 568 283 637 c 0
 363 707 456 742 561 742 c 0
 653 742 725 715 777 660 c 1
 884 757 l 1
 916 722 l 1
 805 623 l 1
EndSplineSet
Validated: 1
Position2: "sous-table 'cpsp' Chasses pour composition en capitales dans Latin lookup 1" dx=5 dy=0 dh=10 dv=0
EndChar

StartChar: Ugrave
Encoding: 217 217 177
Width: 785
Flags: W
HStem: -14 64<308.67 534.574> 677 52<167 249 348 441 672 754 814 907>
VStem: 152.83 101.339<99.6109 324.922>
LayerCount: 2
Fore
SplineSet
249 677 m 1
 156 677 l 1
 167 729 l 1
 452 729 l 1
 441 677 l 1
 348 677 l 1
 268 300 l 2
 258.713075057 256.815799015 254.169733733 219.668886273 254.169733733 188.559261774 c 0
 254.169733733 152.672276114 260.215617437 124.819188856 272 105 c 0
 295 68 343 50 418 50 c 0
 493 50 549 68 587 105 c 0
 626 142 654 207 674 300 c 2
 754 677 l 1
 661 677 l 1
 672 729 l 1
 918 729 l 1
 907 677 l 1
 814 677 l 1
 732 290 l 2
 709 179 671 101 618 55 c 0
 565 9 489 -14 387 -14 c 0
 285 -14 216 9 182 55 c 1
 162.553571429 82.6964285714 152.830357143 121.157844388 152.830357143 170.588881423 c 0
 152.830357143 205.040816327 157.553571429 244.821428571 167 290 c 2
 249 677 l 1
570 927 m 1
 631 798 l 1
 574 798 l 1
 474 927 l 1
 570 927 l 1
EndSplineSet
Validated: 1
Position2: "sous-table 'cpsp' Chasses pour composition en capitales dans Latin lookup 1" dx=5 dy=0 dh=10 dv=0
EndChar

StartChar: Uacute
Encoding: 218 218 178
Width: 785
Flags: W
HStem: -14 64<308.67 534.574> 677 52<167 249 348 441 672 754 814 907>
VStem: 152.83 101.339<99.6109 324.922>
LayerCount: 2
Fore
SplineSet
249 677 m 1
 156 677 l 1
 167 729 l 1
 452 729 l 1
 441 677 l 1
 348 677 l 1
 268 300 l 2
 258.713075057 256.815799015 254.169733733 219.668886273 254.169733733 188.559261774 c 0
 254.169733733 152.672276114 260.215617437 124.819188856 272 105 c 0
 295 68 343 50 418 50 c 0
 493 50 549 68 587 105 c 0
 626 142 654 207 674 300 c 2
 754 677 l 1
 661 677 l 1
 672 729 l 1
 918 729 l 1
 907 677 l 1
 814 677 l 1
 732 290 l 2
 709 179 671 101 618 55 c 0
 565 9 489 -14 387 -14 c 0
 285 -14 216 9 182 55 c 1
 162.553571429 82.6964285714 152.830357143 121.157844388 152.830357143 170.588881423 c 0
 152.830357143 205.040816327 157.553571429 244.821428571 167 290 c 2
 249 677 l 1
635 927 m 1
 731 927 l 1
 575 798 l 1
 518 798 l 1
 635 927 l 1
EndSplineSet
Validated: 1
Position2: "sous-table 'cpsp' Chasses pour composition en capitales dans Latin lookup 1" dx=5 dy=0 dh=10 dv=0
EndChar

StartChar: Ucircumflex
Encoding: 219 219 179
Width: 785
Flags: W
HStem: -14 64<308.67 534.574> 677 52<167 249 348 441 672 754 814 907>
VStem: 152.83 101.339<99.6109 324.922>
LayerCount: 2
Fore
SplineSet
249 677 m 1
 156 677 l 1
 167 729 l 1
 452 729 l 1
 441 677 l 1
 348 677 l 1
 268 300 l 2
 258.713075057 256.815799015 254.169733733 219.668886273 254.169733733 188.559261774 c 0
 254.169733733 152.672276114 260.215617437 124.819188856 272 105 c 0
 295 68 343 50 418 50 c 0
 493 50 549 68 587 105 c 0
 626 142 654 207 674 300 c 2
 754 677 l 1
 661 677 l 1
 672 729 l 1
 918 729 l 1
 907 677 l 1
 814 677 l 1
 732 290 l 2
 709 179 671 101 618 55 c 0
 565 9 489 -14 387 -14 c 0
 285 -14 216 9 182 55 c 1
 162.553571429 82.6964285714 152.830357143 121.157844388 152.830357143 170.588881423 c 0
 152.830357143 205.040816327 157.553571429 244.821428571 167 290 c 2
 249 677 l 1
561 927 m 1
 647 927 l 1
 732 798 l 1
 675 798 l 1
 593 877 l 1
 477 798 l 1
 420 798 l 1
 561 927 l 1
EndSplineSet
Validated: 1
Position2: "sous-table 'cpsp' Chasses pour composition en capitales dans Latin lookup 1" dx=5 dy=0 dh=10 dv=0
EndChar

StartChar: Udieresis
Encoding: 220 220 180
Width: 785
Flags: W
HStem: -14 64<308.67 534.574> 677 52<167 249 348 441 672 754 814 907> 806 114<458.959 532.437 648.959 722.437>
VStem: 152.83 101.339<99.6109 324.922> 436.604 116.746<826.89 897.988> 626.604 116.746<826.89 897.988>
LayerCount: 2
Fore
SplineSet
249 677 m 1
 156 677 l 1
 167 729 l 1
 452 729 l 1
 441 677 l 1
 348 677 l 1
 268 300 l 2
 258.713075057 256.815799015 254.169733733 219.668886273 254.169733733 188.559261774 c 0
 254.169733733 152.672276114 260.215617437 124.819188856 272 105 c 0
 295 68 343 50 418 50 c 0
 493 50 549 68 587 105 c 0
 626 142 654 207 674 300 c 2
 754 677 l 1
 661 677 l 1
 672 729 l 1
 918 729 l 1
 907 677 l 1
 814 677 l 1
 732 290 l 2
 709 179 671 101 618 55 c 0
 565 9 489 -14 387 -14 c 0
 285 -14 216 9 182 55 c 1
 162.553571429 82.6964285714 152.830357143 121.157844388 152.830357143 170.588881423 c 0
 152.830357143 205.040816327 157.553571429 244.821428571 167 290 c 2
 249 677 l 1
507 920 m 0
 533.955379499 920 553.349963119 900.341930716 553.349963119 874.831877846 c 0
 553.349963119 871.004126772 552.913301403 867.044620501 552 863 c 0
 545 831 515 806 483 806 c 0
 455.309350414 806 436.604311076 824.72002135 436.604311076 850.496749143 c 0
 436.604311076 854.508245957 437.057329597 858.690649586 438 863 c 0
 445 894 476 920 507 920 c 0
697 920 m 0
 723.955379499 920 743.349963119 900.341930716 743.349963119 874.831877846 c 0
 743.349963119 871.004126772 742.913301403 867.044620501 742 863 c 0
 735 831 705 806 673 806 c 0
 645.309350414 806 626.604311076 824.72002135 626.604311076 850.496749143 c 0
 626.604311076 854.508245957 627.057329597 858.690649586 628 863 c 0
 635 894 666 920 697 920 c 0
EndSplineSet
Validated: 1
Position2: "sous-table 'cpsp' Chasses pour composition en capitales dans Latin lookup 1" dx=5 dy=0 dh=10 dv=0
EndChar

StartChar: Yacute
Encoding: 221 221 181
Width: 697
Flags: W
HStem: 0 52<216 309 408 490> 677 52<159 216 334 419 627 698 759 828>
LayerCount: 2
Fore
SplineSet
205 0 m 1
 216 52 l 1
 309 52 l 1
 364 314 l 1
 216 677 l 1
 148 677 l 1
 159 729 l 1
 430 729 l 1
 419 677 l 1
 334 677 l 1
 454 382 l 1
 698 677 l 1
 616 677 l 1
 627 729 l 1
 839 729 l 1
 828 677 l 1
 759 677 l 1
 465 323 l 1
 408 52 l 1
 501 52 l 1
 490 0 l 1
 205 0 l 1
574 927 m 1
 670 927 l 1
 514 798 l 1
 457 798 l 1
 574 927 l 1
EndSplineSet
Validated: 1
Position2: "sous-table 'cpsp' Chasses pour composition en capitales dans Latin lookup 1" dx=5 dy=0 dh=10 dv=0
EndChar

StartChar: Thorn
Encoding: 222 222 182
Width: 645
Flags: W
HStem: 0 52<41 134 233 335> 159 53<267 485.548> 518 52<343 540.528> 677 52<184 266 365 478>
VStem: 582.443 111.994<314.548 480.276>
LayerCount: 2
Fore
SplineSet
267 212 m 1
 396 212 l 2
 493 212 556 266 577 365 c 0
 580.63538805 382.138257952 582.442706208 397.927939753 582.442706208 412.322353998 c 0
 582.442706208 481.077990021 541.207969482 518 461 518 c 2
 332 518 l 1
 267 212 l 1
30 0 m 1
 41 52 l 1
 134 52 l 1
 266 677 l 1
 173 677 l 1
 184 729 l 1
 489 729 l 1
 478 677 l 1
 365 677 l 1
 343 570 l 1
 496 570 l 2
 621.392934956 570 694.43689633 510.172601619 694.43689633 413.152947752 c 0
 694.43689633 397.982470528 692.650970732 381.902642279 689 365 c 0
 663 240 553 159 408 159 c 2
 255 159 l 1
 233 52 l 1
 346 52 l 1
 335 0 l 1
 30 0 l 1
EndSplineSet
Validated: 1
Position2: "sous-table 'cpsp' Chasses pour composition en capitales dans Latin lookup 1" dx=5 dy=0 dh=10 dv=0
EndChar

StartChar: germandbls
Encoding: 223 223 183
Width: 661
Flags: W
HStem: -14 48<350.764 498.455> 0 52<34 120> 712 48<389.407 546.177>
VStem: 281 53<109.529 135> 385.858 87.99<392.219 488.106> 561.43 93.934<108.628 233.617> 579.866 83.6685<589.684 680.944>
LayerCount: 2
Fore
SplineSet
578 591 m 1xbc
 579.249169047 599.744183332 579.866431135 608.06279667 579.866431135 615.939730656 c 0
 579.866431135 677.425925721 542.255816668 712 474 712 c 0
 389 712 341 672 322 581 c 2
 199 0 l 1
 23 0 l 1
 34 52 l 1
 120 52 l 1
 232 579 l 2
 256 694 348 760 484 760 c 0
 603.903896635 760 663.534903736 709.400537181 663.534903736 607.55972911 c 0x7a
 663.534903736 591.340384683 662.022404849 573.821339288 659 555 c 1
 648 555 l 2
 553 555 488 517 476 457 c 0
 474.607294834 450.434389933 473.847937482 444.304206487 473.847937482 438.45193774 c 0
 473.847937482 414.889595098 486.157273114 395.832305694 519 371 c 1
 557 344 l 2
 601 312 629 282 642 254 c 1
 650.909090909 236.818181818 655.363636364 217.20661157 655.363636364 195.68069121 c 0
 655.363636364 183.380165289 653.909090909 170.454545455 651 157 c 0
 640 107 613 66 568 34 c 0
 524 2 472 -14 412 -14 c 0
 356 -14 303 -2 257 21 c 1
 281 135 l 1
 334 135 l 1
 332.482264726 125.755612425 331.726023787 117.139457675 331.726023787 109.154162448 c 0
 331.726023787 59.2649066748 361.244387575 34 419 34 c 0
 491 34 544 76 558 144 c 0
 560.305361365 154.374126142 561.42968028 164.157731059 561.42968028 173.350814751 c 0
 561.42968028 188.083915906 558.541957953 201.300310989 553 213 c 0
 544 232 523 254 491 278 c 1
 454 304 l 1
 406.070025291 338.932015466 385.857908662 371.224234924 385.857908662 410.526897383 c 0
 385.857908662 419.604337337 386.93609698 429.055739993 389 439 c 0
 406 519 475 575 578 591 c 1xbc
EndSplineSet
Validated: 1
EndChar

StartChar: agrave
Encoding: 224 224 184
Width: 595
Flags: W
HStem: -14 48<235.962 381.185> 0 52<498 566> 485 48<323.135 473.315> 499 20G<502.789 597>
VStem: 94.9626 98.9183<83.8731 300.519>
LayerCount: 2
Fore
SplineSet
375 799 m 1x08
 463 615 l 1
 406 615 l 1
 279 799 l 1
 375 799 l 1x08
307 34 m 0xa8
 403 34 415 87 447 236 c 1
 490 445 l 1
 472 472 443 485 403 485 c 0
 307 485 236 408 205 260 c 0
 197.536507908 225.248114948 193.880886905 194.412897302 193.880886905 167.557784595 c 0
 193.880886905 79.2706025059 233.390476275 34 307 34 c 0xa8
297 -14 m 0
 222 -14 166 11 130 61 c 0
 106.739586182 94.2291625973 94.9626157317 134.525059575 94.9626157317 182.181218015 c 0
 94.9626157317 206.233394536 97.962498535 232.160409912 104 260 c 0
 121 343 158 409 214 458 c 0
 270 508 337 533 413 533 c 0xa8
 449 533 490 516 499 481 c 1
 507 519 l 1
 597 519 l 1
 498 52 l 1
 577 52 l 1
 566 0 l 1
 397 0 l 1x58
 365 -11 332 -14 297 -14 c 0
EndSplineSet
Validated: 1
EndChar

StartChar: aacute
Encoding: 225 225 185
Width: 595
Flags: W
HStem: -14 48<235.962 381.185> 0 52<498 566> 485 48<323.135 473.315> 499 20G<502.789 597>
VStem: 94.9626 98.9183<83.8731 300.519>
LayerCount: 2
Fore
SplineSet
515 800 m 1x08
 612 800 l 1
 406 616 l 1
 349 616 l 1
 515 800 l 1x08
307 34 m 0xa8
 403 34 415 87 447 236 c 1
 490 445 l 1
 472 472 443 485 403 485 c 0
 307 485 236 408 205 260 c 0
 197.536507908 225.248114948 193.880886905 194.412897302 193.880886905 167.557784595 c 0
 193.880886905 79.2706025059 233.390476275 34 307 34 c 0xa8
297 -14 m 0
 222 -14 166 11 130 61 c 0
 106.739586182 94.2291625973 94.9626157317 134.525059575 94.9626157317 182.181218015 c 0
 94.9626157317 206.233394536 97.962498535 232.160409912 104 260 c 0
 121 343 158 409 214 458 c 0
 270 508 337 533 413 533 c 0xa8
 449 533 490 516 499 481 c 1
 507 519 l 1
 597 519 l 1
 498 52 l 1
 577 52 l 1
 566 0 l 1
 397 0 l 1x58
 365 -11 332 -14 297 -14 c 0
EndSplineSet
Validated: 1
EndChar

StartChar: acircumflex
Encoding: 226 226 186
Width: 595
Flags: W
HStem: -14 48<235.962 381.185> 0 52<498 566> 485 48<323.135 473.315> 499 20G<502.789 597>
VStem: 94.9626 98.9183<83.8731 300.519>
LayerCount: 2
Fore
SplineSet
406 800 m 1x08
 488 800 l 1
 563 616 l 1
 506 616 l 1
 434 743 l 1
 308 616 l 1
 251 616 l 1
 406 800 l 1x08
307 34 m 0xa8
 403 34 415 87 447 236 c 1
 490 445 l 1
 472 472 443 485 403 485 c 0
 307 485 236 408 205 260 c 0
 197.536507908 225.248114948 193.880886905 194.412897302 193.880886905 167.557784595 c 0
 193.880886905 79.2706025059 233.390476275 34 307 34 c 0xa8
297 -14 m 0
 222 -14 166 11 130 61 c 0
 106.739586182 94.2291625973 94.9626157317 134.525059575 94.9626157317 182.181218015 c 0
 94.9626157317 206.233394536 97.962498535 232.160409912 104 260 c 0
 121 343 158 409 214 458 c 0
 270 508 337 533 413 533 c 0xa8
 449 533 490 516 499 481 c 1
 507 519 l 1
 597 519 l 1
 498 52 l 1
 577 52 l 1
 566 0 l 1
 397 0 l 1x58
 365 -11 332 -14 297 -14 c 0
EndSplineSet
Validated: 1
EndChar

StartChar: atilde
Encoding: 227 227 187
Width: 595
Flags: W
HStem: -14 48<235.962 381.185> 0 52<498 566> 485 48<323.135 473.315> 499 20G<502.789 597> 639 62<457.536 531.313> 715 62<322.869 396.464>
VStem: 94.9626 98.9183<83.8731 300.519> 251 47<639 687.821> 556 47<728.179 777>
LayerCount: 2
Fore
SplineSet
417 669 m 2x0f80
 394 696 l 1
 382 712 372 715 360 715 c 0
 333 715 312 688 298 639 c 1
 251 639 l 1
 271 727 317 777 376 777 c 0
 401 777 418 768 437 747 c 2
 460 720 l 1
 471 705 481 701 494 701 c 0
 522 701 542 728 556 777 c 1
 603 777 l 1
 583 689 537 639 478 639 c 0
 453 639 436 648 417 669 c 2x0f80
307 34 m 0xaf80
 403 34 415 87 447 236 c 1
 490 445 l 1
 472 472 443 485 403 485 c 0
 307 485 236 408 205 260 c 0
 197.536507908 225.248114948 193.880886905 194.412897302 193.880886905 167.557784595 c 0
 193.880886905 79.2706025059 233.390476275 34 307 34 c 0xaf80
297 -14 m 0
 222 -14 166 11 130 61 c 0
 106.739586182 94.2291625973 94.9626157317 134.525059575 94.9626157317 182.181218015 c 0
 94.9626157317 206.233394536 97.962498535 232.160409912 104 260 c 0
 121 343 158 409 214 458 c 0
 270 508 337 533 413 533 c 0xaf80
 449 533 490 516 499 481 c 1
 507 519 l 1
 597 519 l 1
 498 52 l 1
 577 52 l 1
 566 0 l 1
 397 0 l 1x5f80
 365 -11 332 -14 297 -14 c 0
EndSplineSet
Validated: 1
EndChar

StartChar: adieresis
Encoding: 228 228 188
Width: 595
Flags: W
HStem: -14 48<235.962 381.185> 0 52<498 566> 485 48<323.135 473.315> 499 20G<502.789 597> 652 114<295.959 369.746 485.959 559.746>
VStem: 94.9626 98.9183<83.8731 300.519> 273.556 116.794<672.277 743.988> 463.556 116.794<672.277 743.988>
LayerCount: 2
Fore
SplineSet
344 766 m 0x0f
 370.955379499 766 390.349963119 746.341930716 390.349963119 720.831877846 c 0
 390.349963119 717.004126772 389.913301403 713.044620501 389 709 c 0
 382 676 353 652 320 652 c 0
 291.589612167 652 273.555810115 669.788432768 273.555810115 695.793777965 c 0
 273.555810115 699.994862773 274.026445904 704.410387833 275 709 c 0
 282 740 313 766 344 766 c 0x0f
534 766 m 0
 560.955379499 766 580.349963119 746.341930716 580.349963119 720.831877846 c 0
 580.349963119 717.004126772 579.913301403 713.044620501 579 709 c 0
 572 676 543 652 510 652 c 0
 481.589612167 652 463.555810115 669.788432768 463.555810115 695.793777965 c 0
 463.555810115 699.994862773 464.026445904 704.410387833 465 709 c 0
 472 740 503 766 534 766 c 0
307 34 m 0xaf
 403 34 415 87 447 236 c 1
 490 445 l 1
 472 472 443 485 403 485 c 0
 307 485 236 408 205 260 c 0
 197.536507908 225.248114948 193.880886905 194.412897302 193.880886905 167.557784595 c 0
 193.880886905 79.2706025059 233.390476275 34 307 34 c 0xaf
297 -14 m 0
 222 -14 166 11 130 61 c 0
 106.739586182 94.2291625973 94.9626157317 134.525059575 94.9626157317 182.181218015 c 0
 94.9626157317 206.233394536 97.962498535 232.160409912 104 260 c 0
 121 343 158 409 214 458 c 0
 270 508 337 533 413 533 c 0xaf
 449 533 490 516 499 481 c 1
 507 519 l 1
 597 519 l 1
 498 52 l 1
 577 52 l 1
 566 0 l 1
 397 0 l 1x5f
 365 -11 332 -14 297 -14 c 0
EndSplineSet
Validated: 1
EndChar

StartChar: aring
Encoding: 229 229 189
Width: 595
Flags: W
HStem: -14 48<235.962 381.185> 0 52<498 566> 485 48<323.135 473.315> 499 20G<502.789 597> 610 60<370.277 475.847> 818 60<392.84 497.164>
VStem: 94.9626 98.9183<83.8731 300.519> 297.571 61.5505<681.32 783.943> 510.444 61.7946<704.297 804.969>
LayerCount: 2
Fore
SplineSet
569 744 m 0x0f80
 561 707 541 675 509 649 c 0
 478 623 443 610 406 610 c 0
 369 610 340 623 319 649 c 0
 304.714285714 667.571428571 297.571428571 689.204081633 297.571428571 713.533527697 c 0
 297.571428571 723.265306122 298.714285714 733.428571429 301 744 c 0
 309 781 328 813 360 839 c 0
 391 865 426 878 463 878 c 0
 500 878 529 865 550 839 c 0
 564.568322948 820.061180168 572.238974807 797.938819832 572.238974807 773.019409379 c 0
 572.238974807 763.728416147 571.172670821 754.048602546 569 744 c 0x0f80
509 744 m 0
 509.974333038 748.993456818 510.444337239 753.868248028 510.444337239 758.579209635 c 0
 510.444337239 792.548751926 486.006543182 818 450 818 c 0
 407 818 369 785 361 744 c 0
 359.735012263 737.956169702 359.121955405 732.149405178 359.121955405 726.632464027 c 0
 359.121955405 692.898059952 382.043830298 670 419 670 c 0
 460 670 500 703 509 744 c 0
307 34 m 0xaf80
 403 34 415 87 447 236 c 1
 490 445 l 1
 472 472 443 485 403 485 c 0
 307 485 236 408 205 260 c 0
 197.536507908 225.248114948 193.880886905 194.412897302 193.880886905 167.557784595 c 0
 193.880886905 79.2706025059 233.390476275 34 307 34 c 0xaf80
297 -14 m 0
 222 -14 166 11 130 61 c 0
 106.739586182 94.2291625973 94.9626157317 134.525059575 94.9626157317 182.181218015 c 0
 94.9626157317 206.233394536 97.962498535 232.160409912 104 260 c 0
 121 343 158 409 214 458 c 0
 270 508 337 533 413 533 c 0xaf80
 449 533 490 516 499 481 c 1
 507 519 l 1
 597 519 l 1
 498 52 l 1
 577 52 l 1
 566 0 l 1
 397 0 l 1x5f80
 365 -11 332 -14 297 -14 c 0
EndSplineSet
Validated: 1
EndChar

StartChar: ae
Encoding: 230 230 190
Width: 931
Flags: W
HStem: -14 52<199.387 351.068 595.256 765.636> 273 52<238.04 447> 485.15 47.8501<270.417 436.888 678.725 814.752>
VStem: 69.1792 101.211<66.9282 203.812> 163 46<388 421.409> 851.284 101.365<323.965 448.584>
LayerCount: 2
Fore
SplineSet
423 163 m 2xf4
 447 273 l 1
 331 273 l 2
 242 273 190 235 174 156 c 1
 171.575187833 145.088345248 170.390627847 134.773848954 170.390627847 125.126126362 c 0
 170.390627847 71.1138411568 207.517857794 38 272 38 c 0
 347 38 407 88 423 163 c 2xf4
163 388 m 1xec
 185 493 l 1
 254 520 315 533 371 533 c 0
 463 533 519 506 543 447 c 1
 580.620236307 494.266450744 665.695693632 533.158450721 754.245198116 533.158450721 c 0
 757.492848937 533.158450721 760.745172826 533.106135669 764 533 c 1
 764.821880199 533.006043237 765.641130907 533.009055255 766.45775102 533.009055255 c 0
 889.332242197 533.009055255 952.649124053 464.815889525 952.649124053 393.840900187 c 0
 952.649124053 387.233784347 952.100426922 380.60256153 951 374 c 2
 950 368 l 1
 919 224 677 172 552 146 c 1
 551.677089389 143.933372089 551.512671097 141.666543353 551.512671097 139.233992178 c 0
 551.512671097 104.000528486 586.006137367 34 673 34 c 0
 752 34 812 76 849 157 c 1
 921 157 l 1
 869 44 779 -14 654 -14 c 1
 652.337181308 -14.0373667122 650.681343972 -14.0558837634 649.032637993 -14.0558837634 c 0
 562.436706775 -14.0558837634 495.514232742 37.0275845849 470 91 c 1
 420 28 366 -14 239 -14 c 0
 128.962720729 -14 69.1792129661 31.8196151994 69.1792129661 113.293793595 c 0xf4
 69.1792129661 126.593812668 70.7723236191 140.843954385 74 156 c 0
 96 263 192 325 332 325 c 2
 458 325 l 1
 465 361 l 1
 467.620015382 372.867128493 468.909889194 384.021681146 468.909889194 394.401425968 c 0
 468.909889194 451.370775058 430.054041644 485 359 485 c 0
 283 485 234 453 209 388 c 1
 163 388 l 1xec
548 200 m 1
 710 238 823 272 849 356 c 1
 850.556475327 365.338851962 851.283877813 374.160879296 851.283877813 382.469433772 c 0
 851.283877813 451.56566911 800.976392475 485.149889074 758.837882563 485.149889074 c 0
 757.211973407 485.149889074 755.598226162 485.099889135 754 485 c 1
 676 483 621 427 587 361 c 1
 561.697505292 309.457881151 547.811761064 251.768281275 547.811761064 208.506148276 c 0
 547.811761064 205.603758588 547.874258867 202.766304921 548 200 c 1
EndSplineSet
Validated: 1
Ligature2: "sous-table 'dpng' Dipthongs (Obsolete) dans Latin lookup 9" a e
EndChar

StartChar: ccedilla
Encoding: 231 231 191
Width: 553
Flags: W
HStem: -193 59<161.943 292.711> -13.9166 47.9166<236.547 298.686> 485 48<324.137 484.475>
VStem: 94.9626 102.358<84.0962 300.635> 307.934 61.9086<-117.173 -26.277> 519 52<354 372.339>
LayerCount: 2
Fore
SplineSet
289.561151663 -13.9166165066 m 1
 218.287778849 -12.3050373106 164.799638902 12.6671681916 130 61 c 0
 106.739586182 94.2291625973 94.9626157317 134.525059575 94.9626157317 182.181218015 c 0
 94.9626157317 206.233394536 97.962498535 232.160409912 104 260 c 0
 121 343 158 409 215 458 c 1
 271 508 338 533 413 533 c 0
 478 533 541 518 599 487 c 1
 571 354 l 1
 519 354 l 1
 519.426050333 360.461763383 519.640328632 366.66637501 519.640328632 372.617773299 c 0
 519.640328632 450.478983454 482.96428695 485 404 485 c 0
 307 485 240 409 209 260 c 0
 201.199205209 223.189999579 197.320537721 190.896388174 197.320537721 163.10467918 c 0
 197.320537721 76.890737261 234.646159211 34 308 34 c 0
 385 34 439 75 474 156 c 1
 546 156 l 1
 503.07868372 58.770079448 432.535285773 1.43872130394 338.402377942 -11.2894073695 c 1
 359.232195555 -40.7366126839 369.842894855 -67.9932843404 369.842894857 -92.6678413657 c 0
 369.842894857 -98.5960868221 369.230406789 -104.375283251 368 -110 c 0
 357 -162 307 -193 234 -193 c 0
 207 -193 180 -189 151 -181 c 1
 165 -117 l 1
 189 -128 214 -134 237 -134 c 0
 274 -134 301 -115 307 -86 c 0
 307.626714552 -83.0231058789 307.934302561 -79.8252779975 307.934302561 -76.398824 c 0
 307.934302561 -60.6501365926 301.436472995 -40.0716980504 289.561151663 -13.9166165066 c 1
EndSplineSet
Validated: 1
EndChar

StartChar: egrave
Encoding: 232 232 192
Width: 573
Flags: W
HStem: -14 48<242.959 402.224> 485.15 48.2424<320.765 457.711>
VStem: 92.9626 100.55<83.8844 306.504> 493.284 101.172<323.672 449.38>
LayerCount: 2
Fore
SplineSet
391 799 m 1
 479 615 l 1
 422 615 l 1
 295 799 l 1
 391 799 l 1
593 374 m 2
 592 368 l 1
 561 224 319 172 194 146 c 1
 193.677089389 143.933372089 193.512671097 141.666543353 193.512671097 139.233992178 c 0
 193.512671097 104.000528486 228.006137367 34 315 34 c 0
 394 34 454 76 491 157 c 1
 563 157 l 1
 511 44 421 -14 296 -14 c 0
 220 -14 164 11 128 61 c 0
 104.739586182 94.2291625973 92.9626157317 134.525059575 92.9626157317 182.181218015 c 0
 92.9626157317 206.233394536 95.962498535 232.160409912 102 260 c 0
 119 342 156 408 212 458 c 0
 267 508 333 533 406 533 c 1
 410.703051047 533.263370859 415.335322288 533.392260087 419.894789808 533.392260087 c 0
 527.420521773 533.392260087 594.456032915 461.709752855 594.456032915 391.693566909 c 0
 594.456032915 385.768966824 593.976049637 379.856297823 593 374 c 2
190 200 m 1
 352 238 465 272 491 356 c 1
 492.556475327 365.338851962 493.283877813 374.160879296 493.283877813 382.469433772 c 0
 493.283877813 451.56566911 442.976392475 485.149889074 400.837882563 485.149889074 c 0
 399.211973407 485.149889074 397.598226162 485.099889135 396 485 c 1
 318 483 263 427 229 361 c 1
 203.697505292 309.457881151 189.811761064 251.768281275 189.811761064 208.506148276 c 0
 189.811761064 205.603758588 189.874258867 202.766304921 190 200 c 1
EndSplineSet
Validated: 1
EndChar

StartChar: eacute
Encoding: 233 233 193
Width: 573
Flags: W
HStem: -14 48<242.959 402.224> 485.15 48.2424<320.765 457.711>
VStem: 92.9626 100.55<83.8844 306.504> 493.284 101.172<323.672 449.38>
LayerCount: 2
Fore
SplineSet
531 800 m 1
 628 800 l 1
 422 616 l 1
 365 616 l 1
 531 800 l 1
593 374 m 2
 592 368 l 1
 561 224 319 172 194 146 c 1
 193.677089389 143.933372089 193.512671097 141.666543353 193.512671097 139.233992178 c 0
 193.512671097 104.000528486 228.006137367 34 315 34 c 0
 394 34 454 76 491 157 c 1
 563 157 l 1
 511 44 421 -14 296 -14 c 0
 220 -14 164 11 128 61 c 0
 104.739586182 94.2291625973 92.9626157317 134.525059575 92.9626157317 182.181218015 c 0
 92.9626157317 206.233394536 95.962498535 232.160409912 102 260 c 0
 119 342 156 408 212 458 c 0
 267 508 333 533 406 533 c 1
 410.703051047 533.263370859 415.335322288 533.392260087 419.894789808 533.392260087 c 0
 527.420521773 533.392260087 594.456032915 461.709752855 594.456032915 391.693566909 c 0
 594.456032915 385.768966824 593.976049637 379.856297823 593 374 c 2
190 200 m 1
 352 238 465 272 491 356 c 1
 492.556475327 365.338851962 493.283877813 374.160879296 493.283877813 382.469433772 c 0
 493.283877813 451.56566911 442.976392475 485.149889074 400.837882563 485.149889074 c 0
 399.211973407 485.149889074 397.598226162 485.099889135 396 485 c 1
 318 483 263 427 229 361 c 1
 203.697505292 309.457881151 189.811761064 251.768281275 189.811761064 208.506148276 c 0
 189.811761064 205.603758588 189.874258867 202.766304921 190 200 c 1
EndSplineSet
Validated: 1
EndChar

StartChar: ecircumflex
Encoding: 234 234 194
Width: 573
Flags: W
HStem: -14 48<242.959 402.224> 485.15 48.2424<320.765 457.711>
VStem: 92.9626 100.55<83.8844 306.504> 493.284 101.172<323.672 449.38>
LayerCount: 2
Fore
SplineSet
422 800 m 1
 504 800 l 1
 579 616 l 1
 522 616 l 1
 450 743 l 1
 324 616 l 1
 267 616 l 1
 422 800 l 1
593 374 m 2
 592 368 l 1
 561 224 319 172 194 146 c 1
 193.677089389 143.933372089 193.512671097 141.666543353 193.512671097 139.233992178 c 0
 193.512671097 104.000528486 228.006137367 34 315 34 c 0
 394 34 454 76 491 157 c 1
 563 157 l 1
 511 44 421 -14 296 -14 c 0
 220 -14 164 11 128 61 c 0
 104.739586182 94.2291625973 92.9626157317 134.525059575 92.9626157317 182.181218015 c 0
 92.9626157317 206.233394536 95.962498535 232.160409912 102 260 c 0
 119 342 156 408 212 458 c 0
 267 508 333 533 406 533 c 1
 410.703051047 533.263370859 415.335322288 533.392260087 419.894789808 533.392260087 c 0
 527.420521773 533.392260087 594.456032915 461.709752855 594.456032915 391.693566909 c 0
 594.456032915 385.768966824 593.976049637 379.856297823 593 374 c 2
190 200 m 1
 352 238 465 272 491 356 c 1
 492.556475327 365.338851962 493.283877813 374.160879296 493.283877813 382.469433772 c 0
 493.283877813 451.56566911 442.976392475 485.149889074 400.837882563 485.149889074 c 0
 399.211973407 485.149889074 397.598226162 485.099889135 396 485 c 1
 318 483 263 427 229 361 c 1
 203.697505292 309.457881151 189.811761064 251.768281275 189.811761064 208.506148276 c 0
 189.811761064 205.603758588 189.874258867 202.766304921 190 200 c 1
EndSplineSet
Validated: 1
EndChar

StartChar: edieresis
Encoding: 235 235 195
Width: 573
Flags: W
HStem: -14 48<242.959 402.224> 485.15 48.2424<320.765 457.711> 652 114<311.959 385.746 501.959 575.746>
VStem: 92.9626 100.55<83.8844 306.504> 289.556 116.794<672.277 743.988> 479.556 116.794<672.277 743.988> 493.284 101.172<323.672 449.38>
LayerCount: 2
Fore
SplineSet
360 766 m 0xf8
 386.955379499 766 406.349963119 746.341930716 406.349963119 720.831877846 c 0
 406.349963119 717.004126772 405.913301403 713.044620501 405 709 c 0
 398 676 369 652 336 652 c 0
 307.589612167 652 289.555810115 669.788432768 289.555810115 695.793777965 c 0
 289.555810115 699.994862773 290.026445904 704.410387833 291 709 c 0
 298 740 329 766 360 766 c 0xf8
550 766 m 0
 576.955379499 766 596.349963119 746.341930716 596.349963119 720.831877846 c 0
 596.349963119 717.004126772 595.913301403 713.044620501 595 709 c 0
 588 676 559 652 526 652 c 0
 497.589612167 652 479.555810115 669.788432768 479.555810115 695.793777965 c 0xfc
 479.555810115 699.994862773 480.026445904 704.410387833 481 709 c 0
 488 740 519 766 550 766 c 0
593 374 m 2
 592 368 l 1
 561 224 319 172 194 146 c 1
 193.677089389 143.933372089 193.512671097 141.666543353 193.512671097 139.233992178 c 0
 193.512671097 104.000528486 228.006137367 34 315 34 c 0
 394 34 454 76 491 157 c 1
 563 157 l 1
 511 44 421 -14 296 -14 c 0
 220 -14 164 11 128 61 c 0
 104.739586182 94.2291625973 92.9626157317 134.525059575 92.9626157317 182.181218015 c 0
 92.9626157317 206.233394536 95.962498535 232.160409912 102 260 c 0
 119 342 156 408 212 458 c 0
 267 508 333 533 406 533 c 1
 410.703051047 533.263370859 415.335322288 533.392260087 419.894789808 533.392260087 c 0
 527.420521773 533.392260087 594.456032915 461.709752855 594.456032915 391.693566909 c 0xfa
 594.456032915 385.768966824 593.976049637 379.856297823 593 374 c 2
190 200 m 1
 352 238 465 272 491 356 c 1
 492.556475327 365.338851962 493.283877813 374.160879296 493.283877813 382.469433772 c 0
 493.283877813 451.56566911 442.976392475 485.149889074 400.837882563 485.149889074 c 0
 399.211973407 485.149889074 397.598226162 485.099889135 396 485 c 1
 318 483 263 427 229 361 c 1
 203.697505292 309.457881151 189.811761064 251.768281275 189.811761064 208.506148276 c 0
 189.811761064 205.603758588 189.874258867 202.766304921 190 200 c 1
EndSplineSet
Validated: 1
EndChar

StartChar: igrave
Encoding: 236 236 196
Width: 322
Flags: W
HStem: 0 52<45 131 221 295> 467 52<144 219>
VStem: 34 310
LayerCount: 2
Fore
SplineSet
221 52 m 1
 306 52 l 1
 295 0 l 1
 34 0 l 1
 45 52 l 1
 131 52 l 1
 219 467 l 1
 133 467 l 1
 144 519 l 1
 320 519 l 1
 221 52 l 1
256 799 m 1
 344 615 l 1
 287 615 l 1
 160 799 l 1
 256 799 l 1
EndSplineSet
Validated: 1
EndChar

StartChar: iacute
Encoding: 237 237 197
Width: 322
Flags: W
HStem: 0 52<45 131 221 295> 467 52<144 219>
LayerCount: 2
Fore
SplineSet
221 52 m 1
 306 52 l 1
 295 0 l 1
 34 0 l 1
 45 52 l 1
 131 52 l 1
 219 467 l 1
 133 467 l 1
 144 519 l 1
 320 519 l 1
 221 52 l 1
396 800 m 1
 493 800 l 1
 287 616 l 1
 230 616 l 1
 396 800 l 1
EndSplineSet
Validated: 1
EndChar

StartChar: icircumflex
Encoding: 238 238 198
Width: 322
Flags: W
HStem: 0 52<45 131 221 295> 467 52<144 219>
LayerCount: 2
Fore
SplineSet
221 52 m 1
 306 52 l 1
 295 0 l 1
 34 0 l 1
 45 52 l 1
 131 52 l 1
 219 467 l 1
 133 467 l 1
 144 519 l 1
 320 519 l 1
 221 52 l 1
287 800 m 1
 369 800 l 1
 444 616 l 1
 387 616 l 1
 315 743 l 1
 189 616 l 1
 132 616 l 1
 287 800 l 1
EndSplineSet
Validated: 1
EndChar

StartChar: idieresis
Encoding: 239 239 199
Width: 322
Flags: W
HStem: 0 52<45 131 221 295> 467 52<144 219> 652 114<176.959 250.746 366.959 440.746>
VStem: 154.556 116.794<672.277 743.988> 344.556 116.794<672.277 743.988>
LayerCount: 2
Fore
SplineSet
221 52 m 1
 306 52 l 1
 295 0 l 1
 34 0 l 1
 45 52 l 1
 131 52 l 1
 219 467 l 1
 133 467 l 1
 144 519 l 1
 320 519 l 1
 221 52 l 1
225 766 m 0
 251.955379499 766 271.349963119 746.341930716 271.349963119 720.831877846 c 0
 271.349963119 717.004126772 270.913301403 713.044620501 270 709 c 0
 263 676 234 652 201 652 c 0
 172.589612167 652 154.555810115 669.788432768 154.555810115 695.793777965 c 0
 154.555810115 699.994862773 155.026445904 704.410387833 156 709 c 0
 163 740 194 766 225 766 c 0
415 766 m 0
 441.955379499 766 461.349963119 746.341930716 461.349963119 720.831877846 c 0
 461.349963119 717.004126772 460.913301403 713.044620501 460 709 c 0
 453 676 424 652 391 652 c 0
 362.589612167 652 344.555810115 669.788432768 344.555810115 695.793777965 c 0
 344.555810115 699.994862773 345.026445904 704.410387833 346 709 c 0
 353 740 384 766 415 766 c 0
EndSplineSet
Validated: 1
EndChar

StartChar: eth
Encoding: 240 240 200
Width: 608
Flags: W
HStem: -14 48<235.264 380.848> 462 48<320.818 478.621> 558 38<256.158 365.678> 718 42<285 328.456>
VStem: 90.9087 102.426<84.4847 293.795> 506.901 107.731<223.501 453.004>
LayerCount: 2
Fore
SplineSet
493 453 m 1
 465 460 439 462 414 462 c 0
 301 462 234 393 203 248 c 0
 196.519063376 217.606642041 193.334402149 190.110010945 193.334402149 165.733335051 c 0
 193.334402149 81.032628772 231.78369331 34 304 34 c 0
 397 34 466 111 496 250 c 0
 503.158383626 284.837466979 506.900603509 318.991701209 506.900603509 351.701905028 c 0
 506.900603509 387.534138012 502.409939649 421.633534503 493 453 c 1
499 630 m 1
 510 624 l 1
 581.400374532 543.674578652 614.632028323 459.476968242 614.632028323 363.590146102 c 0
 614.632028323 330.554186173 610.687382959 296.130699906 603 260 c 0
 585 177 548 111 491 61 c 1
 436 11 370 -14 294 -14 c 0
 219 -14 164 11 127 60 c 1
 103.150078574 93.3898899967 90.9087031075 134.209249408 90.9087031075 181.825248727 c 0
 90.9087031075 204.086208178 93.5842475499 227.832679791 99 253 c 0
 116 330 152 392 208 439 c 0
 264 486 329 510 403 510 c 0
 426 510 448 508 480 503 c 1
 473 538 469 568 444 604 c 1
 395 574 322 568 258 558 c 1
 248 596 l 1
 303 602 370 608 418 635 c 1
 386 672 328 703 270 718 c 1
 288 760 l 1
 361 743 429 704 480 660 c 1
 526 678 549 702 607 750 c 1
 633 720 l 1
 599 684 549 650 499 630 c 1
EndSplineSet
Validated: 1
EndChar

StartChar: ntilde
Encoding: 241 241 201
Width: 640
Flags: W
HStem: 0 52<49 130 220 287 376 454 544 613> 467 52<143 218> 468 65<391.718 500.764> 639 62<499.536 573.313> 715 62<364.869 438.464>
VStem: 293 47<639 687.821> 518.554 93.7614<272.141 451.914> 598 47<728.179 777>
LayerCount: 2
Fore
SplineSet
38 0 m 1xbe
 49 52 l 1
 130 52 l 1
 218 467 l 1
 132 467 l 1
 143 519 l 1
 319 519 l 1xde
 299 427 l 1
 347 496 408 533 479 533 c 0
 569.501415096 533 612.315195232 493.982844124 612.315195232 409.125135619 c 0
 612.315195232 386.154292849 609.177904019 359.824364231 603 330 c 2
 544 52 l 1
 624 52 l 1
 613 0 l 1
 365 0 l 1
 376 52 l 1
 454 52 l 1
 507 302 l 2
 514.598501917 337.741101608 518.553776613 366.512551142 518.553776613 389.406514773 c 0
 518.553776613 447.862404681 492.767346244 468 436 468 c 0
 352 468 295 405 270 289 c 2
 220 52 l 1
 298 52 l 1
 287 0 l 1
 38 0 l 1xbe
459 669 m 2
 436 696 l 1
 424 712 414 715 402 715 c 0
 375 715 354 688 340 639 c 1
 293 639 l 1
 313 727 359 777 418 777 c 0
 443 777 460 768 479 747 c 2
 502 720 l 1
 513 705 523 701 536 701 c 0
 564 701 584 728 598 777 c 1
 645 777 l 1x9d
 625 689 579 639 520 639 c 0
 495 639 478 648 459 669 c 2
EndSplineSet
Validated: 1
EndChar

StartChar: ograve
Encoding: 242 242 202
Width: 608
Flags: W
HStem: -14 48<237.237 384.535> 485 48<325.158 472.927>
VStem: 94.9626 102.343<84.4189 300.519> 512.276 102.061<219.35 434.565>
LayerCount: 2
Fore
SplineSet
307 34 m 0
 403 34 469 111 501 260 c 0
 508.522071967 295.911827457 512.275964676 327.643331049 512.275964676 355.108791475 c 0
 512.275964676 440.834121683 475.705841649 485 403 485 c 0
 307 485 240 408 209 260 c 0
 201.184582624 223.609462844 197.306010383 191.513665836 197.306010383 163.785450091 c 0
 197.306010383 77.9812898699 234.446252127 34 307 34 c 0
297 -14 m 0
 222 -14 166 11 130 61 c 0
 106.739586182 94.2291625973 94.9626157317 134.525059575 94.9626157317 182.181218015 c 0
 94.9626157317 206.233394536 97.962498535 232.160409912 104 260 c 0
 121 343 158 409 214 458 c 0
 270 508 337 533 413 533 c 0
 489 533 544 508 579 458 c 0
 602.557692308 425.019230769 614.336538462 384.336908284 614.336538462 335.953032544 c 0
 614.336538462 312.452292899 611.557692308 287.134615385 606 260 c 0
 588 177 551 111 494 61 c 1
 439 11 373 -14 297 -14 c 0
398 799 m 1
 486 615 l 1
 429 615 l 1
 302 799 l 1
 398 799 l 1
EndSplineSet
Validated: 1
EndChar

StartChar: oacute
Encoding: 243 243 203
Width: 608
Flags: W
HStem: -14 48<237.237 384.535> 485 48<325.158 472.927>
VStem: 94.9626 102.343<84.4189 300.519> 512.276 102.061<219.35 434.565>
LayerCount: 2
Fore
SplineSet
307 34 m 0
 403 34 469 111 501 260 c 0
 508.522071967 295.911827457 512.275964676 327.643331049 512.275964676 355.108791475 c 0
 512.275964676 440.834121683 475.705841649 485 403 485 c 0
 307 485 240 408 209 260 c 0
 201.184582624 223.609462844 197.306010383 191.513665836 197.306010383 163.785450091 c 0
 197.306010383 77.9812898699 234.446252127 34 307 34 c 0
297 -14 m 0
 222 -14 166 11 130 61 c 0
 106.739586182 94.2291625973 94.9626157317 134.525059575 94.9626157317 182.181218015 c 0
 94.9626157317 206.233394536 97.962498535 232.160409912 104 260 c 0
 121 343 158 409 214 458 c 0
 270 508 337 533 413 533 c 0
 489 533 544 508 579 458 c 0
 602.557692308 425.019230769 614.336538462 384.336908284 614.336538462 335.953032544 c 0
 614.336538462 312.452292899 611.557692308 287.134615385 606 260 c 0
 588 177 551 111 494 61 c 1
 439 11 373 -14 297 -14 c 0
538 800 m 1
 635 800 l 1
 429 616 l 1
 372 616 l 1
 538 800 l 1
EndSplineSet
Validated: 1
EndChar

StartChar: ocircumflex
Encoding: 244 244 204
Width: 608
Flags: W
HStem: -14 48<237.237 384.535> 485 48<325.158 472.927>
VStem: 94.9626 102.343<84.4189 300.519> 512.276 102.061<219.35 434.565>
LayerCount: 2
Fore
SplineSet
307 34 m 0
 403 34 469 111 501 260 c 0
 508.522071967 295.911827457 512.275964676 327.643331049 512.275964676 355.108791475 c 0
 512.275964676 440.834121683 475.705841649 485 403 485 c 0
 307 485 240 408 209 260 c 0
 201.184582624 223.609462844 197.306010383 191.513665836 197.306010383 163.785450091 c 0
 197.306010383 77.9812898699 234.446252127 34 307 34 c 0
297 -14 m 0
 222 -14 166 11 130 61 c 0
 106.739586182 94.2291625973 94.9626157317 134.525059575 94.9626157317 182.181218015 c 0
 94.9626157317 206.233394536 97.962498535 232.160409912 104 260 c 0
 121 343 158 409 214 458 c 0
 270 508 337 533 413 533 c 0
 489 533 544 508 579 458 c 0
 602.557692308 425.019230769 614.336538462 384.336908284 614.336538462 335.953032544 c 0
 614.336538462 312.452292899 611.557692308 287.134615385 606 260 c 0
 588 177 551 111 494 61 c 1
 439 11 373 -14 297 -14 c 0
429 800 m 1
 511 800 l 1
 586 616 l 1
 529 616 l 1
 457 743 l 1
 331 616 l 1
 274 616 l 1
 429 800 l 1
EndSplineSet
Validated: 1
EndChar

StartChar: otilde
Encoding: 245 245 205
Width: 608
Flags: W
HStem: -14 48<237.237 384.535> 485 48<325.158 472.927> 639 62<480.536 554.313> 715 62<345.869 419.464>
VStem: 94.9626 102.343<84.4189 300.519> 274 47<639 687.821> 512.276 102.061<219.35 434.565> 579 47<728.179 777>
LayerCount: 2
Fore
SplineSet
307 34 m 0xfe
 403 34 469 111 501 260 c 0
 508.522071967 295.911827457 512.275964676 327.643331049 512.275964676 355.108791475 c 0
 512.275964676 440.834121683 475.705841649 485 403 485 c 0
 307 485 240 408 209 260 c 0
 201.184582624 223.609462844 197.306010383 191.513665836 197.306010383 163.785450091 c 0
 197.306010383 77.9812898699 234.446252127 34 307 34 c 0xfe
297 -14 m 0
 222 -14 166 11 130 61 c 0
 106.739586182 94.2291625973 94.9626157317 134.525059575 94.9626157317 182.181218015 c 0
 94.9626157317 206.233394536 97.962498535 232.160409912 104 260 c 0
 121 343 158 409 214 458 c 0
 270 508 337 533 413 533 c 0
 489 533 544 508 579 458 c 0xfd
 602.557692308 425.019230769 614.336538462 384.336908284 614.336538462 335.953032544 c 0
 614.336538462 312.452292899 611.557692308 287.134615385 606 260 c 0
 588 177 551 111 494 61 c 1
 439 11 373 -14 297 -14 c 0
440 669 m 2
 417 696 l 1
 405 712 395 715 383 715 c 0
 356 715 335 688 321 639 c 1
 274 639 l 1
 294 727 340 777 399 777 c 0
 424 777 441 768 460 747 c 2
 483 720 l 1
 494 705 504 701 517 701 c 0
 545 701 565 728 579 777 c 1
 626 777 l 1
 606 689 560 639 501 639 c 0
 476 639 459 648 440 669 c 2
EndSplineSet
Validated: 1
EndChar

StartChar: odieresis
Encoding: 246 246 206
Width: 608
Flags: W
HStem: -14 48<237.237 384.535> 485 48<325.158 472.927> 652 114<318.959 392.746 508.959 582.746>
VStem: 94.9626 102.343<84.4189 300.519> 296.556 116.794<672.277 743.988> 486.556 116.794<672.277 743.988> 512.276 102.061<219.35 434.565>
LayerCount: 2
Fore
SplineSet
307 34 m 0xfa
 403 34 469 111 501 260 c 0
 508.522071967 295.911827457 512.275964676 327.643331049 512.275964676 355.108791475 c 0
 512.275964676 440.834121683 475.705841649 485 403 485 c 0
 307 485 240 408 209 260 c 0
 201.184582624 223.609462844 197.306010383 191.513665836 197.306010383 163.785450091 c 0
 197.306010383 77.9812898699 234.446252127 34 307 34 c 0xfa
297 -14 m 0
 222 -14 166 11 130 61 c 0
 106.739586182 94.2291625973 94.9626157317 134.525059575 94.9626157317 182.181218015 c 0
 94.9626157317 206.233394536 97.962498535 232.160409912 104 260 c 0
 121 343 158 409 214 458 c 0
 270 508 337 533 413 533 c 0
 489 533 544 508 579 458 c 0
 602.557692308 425.019230769 614.336538462 384.336908284 614.336538462 335.953032544 c 0
 614.336538462 312.452292899 611.557692308 287.134615385 606 260 c 0
 588 177 551 111 494 61 c 1
 439 11 373 -14 297 -14 c 0
367 766 m 0
 393.955379499 766 413.349963119 746.341930716 413.349963119 720.831877846 c 0
 413.349963119 717.004126772 412.913301403 713.044620501 412 709 c 0
 405 676 376 652 343 652 c 0
 314.589612167 652 296.555810115 669.788432768 296.555810115 695.793777965 c 0
 296.555810115 699.994862773 297.026445904 704.410387833 298 709 c 0
 305 740 336 766 367 766 c 0
557 766 m 0
 583.955379499 766 603.349963119 746.341930716 603.349963119 720.831877846 c 0
 603.349963119 717.004126772 602.913301403 713.044620501 602 709 c 0
 595 676 566 652 533 652 c 0
 504.589612167 652 486.555810115 669.788432768 486.555810115 695.793777965 c 0xfc
 486.555810115 699.994862773 487.026445904 704.410387833 488 709 c 0
 495 740 526 766 557 766 c 0
EndSplineSet
Validated: 1
EndChar

StartChar: divide
Encoding: 247 247 207
Width: 682
Flags: W
HStem: 68 130<326.973 404.63> 274 79<100 709> 429 130<403.795 481.63>
VStem: 299.363 132.932<95.7194 170.672> 376.363 132.891<456.719 531.672>
CounterMasks: 1 e0
LayerCount: 2
Fore
SplineSet
378 494 m 0xe8
 385 530 420 559 456 559 c 0
 487.651151771 559 509.253429846 536.583281756 509.253429846 506.701309761 c 0
 509.253429846 502.595545713 508.845609378 498.348848229 508 494 c 0
 500 458 465 429 429 429 c 0
 397.109749117 429 376.36253806 449.800341007 376.36253806 479.235739458 c 0
 376.36253806 483.952149555 376.89518938 488.890250883 378 494 c 0xe8
301 133 m 0
 308 169 344 198 380 198 c 0
 411.510367838 198 432.294928625 175.782256823 432.294928625 146.099609282 c 0
 432.294928625 141.870392736 431.872984031 137.489632162 431 133 c 0
 423 97 388 68 352 68 c 0
 320.109749117 68 299.36253806 88.8003410065 299.36253806 118.235739458 c 0xf0
 299.36253806 122.952149555 299.89518938 127.890250883 301 133 c 0
100 353 m 1
 726 353 l 1
 709 274 l 1
 83 274 l 1
 100 353 l 1
EndSplineSet
Validated: 1
EndChar

StartChar: oslash
Encoding: 248 248 208
Width: 620
Flags: W
HStem: -14 48<244.058 392.535> 485 48<333.158 481.782>
VStem: 103.367 102.049<143.482 299.748> 519.697 102.609<220.227 380.687>
LayerCount: 2
Fore
SplineSet
508 429 m 1
 492 466 459 485 411 485 c 0
 315 485 248 408 217 260 c 0
 208.925824036 222.051372968 205.415110297 189.970054511 205.415110297 162.1769219 c 0
 205.415110297 155.547801721 205.614835193 149.162636914 206 143 c 1
 508 429 l 1
217 93 m 1
 234 53 267 34 315 34 c 0
 411 34 477 112 509 260 c 0
 516.752551286 297.987501302 519.696938457 329.964797459 519.696938457 357.795665417 c 0
 519.696938457 365.863776945 519.449489743 373.583419244 519 381 c 1
 217 93 l 1
592 450 m 1
 612.297713144 418.571282873 622.306215245 379.425657463 622.306215245 334.808795321 c 0
 622.306215245 311.283856633 619.523760958 286.237864549 614 260 c 0
 596 177 559 111 502 61 c 1
 447 11 381 -14 305 -14 c 0
 244 -14 195 3 159 38 c 1
 71 -46 l 1
 40 -15 l 1
 132 72 l 1
 112.734500748 103.466982112 103.366587134 141.119955247 103.366587134 183.899575358 c 0
 103.366587134 207.735856893 106.274932934 233.16374813 112 260 c 0
 129 343 166 409 222 458 c 0
 278 508 345 533 421 533 c 0
 482 533 531 516 565 484 c 1
 651 565 l 1
 681 534 l 1
 592 450 l 1
EndSplineSet
Validated: 1
EndChar

StartChar: ugrave
Encoding: 249 249 209
Width: 618
Flags: W
HStem: -14 66<232.49 342.96> 0 52<517 591> 467 52<121 191 448 515>
VStem: 122.298 94.0608<69.235 245.391>
LayerCount: 2
Fore
SplineSet
448 519 m 1xb0
 616 519 l 1
 517 52 l 1
 602 52 l 1
 591 0 l 1
 416 0 l 1x70
 435 92 l 1
 387 23 326 -14 257 -14 c 0
 165.907358078 -14 122.298065201 24.8500128552 122.298065201 109.32963686 c 0
 122.298065201 132.428804926 125.558441876 158.939395423 132 189 c 2
 191 467 l 1
 110 467 l 1
 121 519 l 1
 292 519 l 1
 228 217 l 2
 220.120394609 181.541775742 216.358882864 152.102303734 216.358882864 129.038165877 c 0
 216.358882864 111.123356949 218.628289565 97.0549340009 223 87 c 0
 234 64 260 52 299 52 c 0
 383 52 440 115 465 231 c 2
 515 467 l 1
 437 467 l 1
 448 519 l 1xb0
367 799 m 1
 455 615 l 1
 398 615 l 1
 271 799 l 1
 367 799 l 1
EndSplineSet
Validated: 1
EndChar

StartChar: uacute
Encoding: 250 250 210
Width: 618
Flags: W
HStem: -14 66<232.49 342.96> 0 52<517 591> 467 52<121 191 448 515>
VStem: 122.298 94.0608<69.235 245.391>
LayerCount: 2
Fore
SplineSet
448 519 m 1xb0
 616 519 l 1
 517 52 l 1
 602 52 l 1
 591 0 l 1
 416 0 l 1x70
 435 92 l 1
 387 23 326 -14 257 -14 c 0
 165.907358078 -14 122.298065201 24.8500128552 122.298065201 109.32963686 c 0
 122.298065201 132.428804926 125.558441876 158.939395423 132 189 c 2
 191 467 l 1
 110 467 l 1
 121 519 l 1
 292 519 l 1
 228 217 l 2
 220.120394609 181.541775742 216.358882864 152.102303734 216.358882864 129.038165877 c 0
 216.358882864 111.123356949 218.628289565 97.0549340009 223 87 c 0
 234 64 260 52 299 52 c 0
 383 52 440 115 465 231 c 2
 515 467 l 1
 437 467 l 1
 448 519 l 1xb0
507 800 m 1
 604 800 l 1
 398 616 l 1
 341 616 l 1
 507 800 l 1
EndSplineSet
Validated: 1
EndChar

StartChar: ucircumflex
Encoding: 251 251 211
Width: 618
Flags: W
HStem: -14 66<232.49 342.96> 0 52<517 591> 467 52<121 191 448 515>
VStem: 122.298 94.0608<69.235 245.391>
LayerCount: 2
Fore
SplineSet
448 519 m 1xb0
 616 519 l 1
 517 52 l 1
 602 52 l 1
 591 0 l 1
 416 0 l 1x70
 435 92 l 1
 387 23 326 -14 257 -14 c 0
 165.907358078 -14 122.298065201 24.8500128552 122.298065201 109.32963686 c 0
 122.298065201 132.428804926 125.558441876 158.939395423 132 189 c 2
 191 467 l 1
 110 467 l 1
 121 519 l 1
 292 519 l 1
 228 217 l 2
 220.120394609 181.541775742 216.358882864 152.102303734 216.358882864 129.038165877 c 0
 216.358882864 111.123356949 218.628289565 97.0549340009 223 87 c 0
 234 64 260 52 299 52 c 0
 383 52 440 115 465 231 c 2
 515 467 l 1
 437 467 l 1
 448 519 l 1xb0
398 800 m 1
 480 800 l 1
 555 616 l 1
 498 616 l 1
 426 743 l 1
 300 616 l 1
 243 616 l 1
 398 800 l 1
EndSplineSet
Validated: 1
EndChar

StartChar: udieresis
Encoding: 252 252 212
Width: 618
Flags: W
HStem: -14 66<232.49 342.96> 0 52<517 591> 467 52<121 191 448 515> 652 114<287.959 361.746 477.959 551.746>
VStem: 122.298 94.0608<69.235 245.391> 265.556 116.794<672.277 743.988> 455.556 116.794<672.277 743.988>
LayerCount: 2
Fore
SplineSet
448 519 m 1xbe
 616 519 l 1
 517 52 l 1
 602 52 l 1
 591 0 l 1
 416 0 l 1x7e
 435 92 l 1
 387 23 326 -14 257 -14 c 0
 165.907358078 -14 122.298065201 24.8500128552 122.298065201 109.32963686 c 0
 122.298065201 132.428804926 125.558441876 158.939395423 132 189 c 2
 191 467 l 1
 110 467 l 1
 121 519 l 1
 292 519 l 1
 228 217 l 2
 220.120394609 181.541775742 216.358882864 152.102303734 216.358882864 129.038165877 c 0
 216.358882864 111.123356949 218.628289565 97.0549340009 223 87 c 0
 234 64 260 52 299 52 c 0
 383 52 440 115 465 231 c 2
 515 467 l 1
 437 467 l 1
 448 519 l 1xbe
336 766 m 0
 362.955379499 766 382.349963119 746.341930716 382.349963119 720.831877846 c 0
 382.349963119 717.004126772 381.913301403 713.044620501 381 709 c 0
 374 676 345 652 312 652 c 0
 283.589612167 652 265.555810115 669.788432768 265.555810115 695.793777965 c 0
 265.555810115 699.994862773 266.026445904 704.410387833 267 709 c 0
 274 740 305 766 336 766 c 0
526 766 m 0
 552.955379499 766 572.349963119 746.341930716 572.349963119 720.831877846 c 0
 572.349963119 717.004126772 571.913301403 713.044620501 571 709 c 0
 564 676 535 652 502 652 c 0
 473.589612167 652 455.555810115 669.788432768 455.555810115 695.793777965 c 0
 455.555810115 699.994862773 456.026445904 704.410387833 457 709 c 0
 464 740 495 766 526 766 c 0
EndSplineSet
Validated: 1
EndChar

StartChar: yacute
Encoding: 253 253 213
Width: 598
Flags: W
HStem: -222 52<75.7276 172.586> -207 99<27 70.6027> 467 52<125 173 270 353 495 562 621 679>
VStem: 27 46<-126.198 -108>
LayerCount: 2
Fore
SplineSet
213 -95 m 2xb0
 266 -9 l 1
 173 467 l 1
 114 467 l 1
 125 519 l 1
 364 519 l 1
 353 467 l 1
 270 467 l 1
 340 110 l 1
 562 467 l 1
 484 467 l 1
 495 519 l 1
 690 519 l 1
 679 467 l 1
 621 467 l 1
 259 -117 l 2
 209 -198 170 -222 98 -222 c 0xb0
 67 -222 37 -216 6 -207 c 1
 27 -108 l 1
 73 -108 l 1x70
 72.0786915144 -114.756262228 71.6053657284 -120.899495498 71.6053657284 -126.458663338 c 0
 71.6053657284 -157.103446251 85.9885051565 -170 119 -170 c 0
 155 -170 177 -155 213 -95 c 2xb0
539 800 m 1
 636 800 l 1
 430 616 l 1
 373 616 l 1
 539 800 l 1
EndSplineSet
Validated: 1
EndChar

StartChar: thorn
Encoding: 254 254 214
Width: 597
Flags: W
HStem: -208 52<-57 29 119 193> -14 56<230.504 378.834> 477 56<330.951 462.247> 708 52<138 213>
VStem: 498.916 103.458<220.456 439.851>
LayerCount: 2
Fore
SplineSet
213 285 m 2
 202 234 l 2
 196.335817665 206.76835416 193.519235465 182.28938845 193.519235465 160.656156677 c 0
 193.519235465 82.98749581 229.824638172 42 301 42 c 0
 393 42 457 116 488 260 c 0
 495.286610046 294.975728222 498.91558617 325.762875662 498.91558617 352.332784522 c 0
 498.91558617 435.154933252 463.654395858 477 394 477 c 0
 303 477 239 409 213 285 c 2
213 708 m 1
 127 708 l 1
 138 760 l 1
 314 760 l 1
 246 438 l 1
 294 503 354 533 434 533 c 0
 498 533 544 508 574 457 c 0
 593.000713267 425.332144555 602.374037077 387.246029471 602.374037077 342.995720397 c 0
 602.374037077 317.379743214 599.232929149 289.698074179 593 260 c 0
 576 179 542 113 490 62 c 0
 439 11 382 -14 318 -14 c 0
 238 -14 191 16 170 81 c 1
 119 -156 l 1
 204 -156 l 1
 193 -208 l 1
 -68 -208 l 1
 -57 -156 l 1
 29 -156 l 1
 213 708 l 1
EndSplineSet
Validated: 1
EndChar

